Perun-BoldItalic.ufo
<glyph name="exclam" format="2">
	<unicode hex="0021"/>
	<advance width="389"/>
	<outline>
		<contour>
			<point name="n00" x="437" y="722" type="line"/>
			<point name="n01" x="287" y="722" type="line"/>
			<point x="190" y="191" type="line"/>
			<point name="n03" x="288" y="191" type="line"/>
		</contour>
		<contour>
			<point name="n04" x="260" y="0" type="line"/>
			<point x="287" y="115" type="line"/>
			<point x="157" y="115" type="line"/>
			<point x="130" y="0" type="line"/>
		</contour>
	</outline>
</glyph>
<glyph name="quotedbl" format="2">
	<unicode hex="0022"/>
	<advance width="519"/>
	<outline>
		<contour>
			<point x="617" y="723" type="line"/>
			<point name="n01" x="467" y="723" type="line"/>
			<point x="426" y="432" type="line"/>
			<point name="n03" x="524" y="432" type="line"/>
		</contour>
		<contour>
			<point x="387" y="722" type="line"/>
			<point x="237" y="722" type="line"/>
			<point x="196" y="431" type="line"/>
			<point x="294" y="431" type="line"/>
		</contour>
	</outline>
</glyph>
<glyph name="numbersign" format="2">
	<unicode hex="0023"/>
	<advance width="716"/>
	<outline>
		<contour>
			<point x="796" y="539" type="line"/>
			<point x="693" y="539" type="line"/>
			<point name="n02" x="790" y="722" type="line"/>
			<point x="690" y="722" type="line"/>
			<point x="593" y="539" type="line"/>
			<point x="471" y="539" type="line"/>
			<point x="568" y="722" type="line"/>
			<point x="468" y="722" type="line"/>
			<point x="371" y="539" type="line"/>
			<point name="n09" x="271" y="539" type="line"/>
			<point name="n10" x="226" y="459" type="line"/>
			<point x="330" y="459" type="line"/>
			<point x="238" y="284" type="line"/>
			<point x="138" y="284" type="line"/>
			<point x="92" y="204" type="line"/>
			<point x="195" y="204" type="line"/>
			<point name="n16" x="88" y="0" type="line"/>
			<point x="188" y="0" type="line"/>
			<point name="n18" x="295" y="204" type="line"/>
			<point x="418" y="204" type="line"/>
			<point x="310" y="-1" type="line"/>
			<point x="410" y="0" type="line"/>
			<point x="517" y="204" type="line"/>
			<point x="617" y="204" type="line"/>
			<point x="663" y="284" type="line"/>
			<point x="560" y="284" type="line"/>
			<point x="651" y="459" type="line"/>
			<point x="751" y="459" type="line"/>
		</contour>
		<contour>
			<point x="552" y="459" type="line"/>
			<point x="461" y="284" type="line"/>
			<point name="n30" x="338" y="284" type="line"/>
			<point x="429" y="459" type="line"/>
		</contour>
	</outline>
</glyph>
<glyph name="dollar" format="2">
	<unicode hex="0024"/>
	<advance width="573"/>
	<outline>
		<contour>
			<point x="601" y="270" type="curve" smooth="yes"/>
			<point x="601" y="375"/>
			<point x="486" y="393"/>
			<point x="412" y="425" type="curve" smooth="yes"/>
			<point x="401.117" y="429.761"/>
			<point x="373.928" y="441.656"/>
			<point x="364" y="446" type="curve" smooth="yes"/>
			<point x="321" y="465"/>
			<point x="299" y="490"/>
			<point x="299" y="519" type="curve" smooth="yes"/>
			<point x="299" y="585"/>
			<point x="376" y="627"/>
			<point name="n12" x="433" y="627" type="curve" smooth="yes"/>
			<point x="481" y="627"/>
			<point x="517" y="612"/>
			<point name="n15" x="517" y="555" type="curve" smooth="yes"/>
			<point x="517" y="545"/>
			<point x="516" y="534"/>
			<point x="513" y="523" type="curve"/>
			<point x="542.473" y="523"/>
			<point x="623.001" y="523"/>
			<point x="648" y="523" type="curve"/>
			<point x="653" y="544"/>
			<point x="655" y="564"/>
			<point x="655" y="583" type="curve" smooth="yes"/>
			<point x="655" y="694"/>
			<point x="568" y="741"/>
			<point x="467" y="741" type="curve" smooth="yes"/>
			<point x="314" y="741"/>
			<point x="159" y="621"/>
			<point x="159" y="460" type="curve" smooth="yes"/>
			<point x="159" y="365"/>
			<point x="259" y="336"/>
			<point x="333" y="313" type="curve" smooth="yes"/>
			<point x="343.763" y="309.705"/>
			<point x="372.126" y="301.023"/>
			<point x="382" y="298" type="curve" smooth="yes"/>
			<point x="422" y="286"/>
			<point x="461" y="260"/>
			<point x="461" y="217" type="curve" smooth="yes"/>
			<point x="461" y="135"/>
			<point x="367" y="104"/>
			<point x="299" y="104" type="curve" smooth="yes"/>
			<point x="246" y="104"/>
			<point x="211" y="127"/>
			<point x="211" y="184" type="curve" smooth="yes"/>
			<point x="211" y="198"/>
			<point x="213" y="213"/>
			<point x="217" y="231" type="curve"/>
			<point x="188.129" y="231"/>
			<point x="106.552" y="231"/>
			<point x="82" y="231" type="curve"/>
			<point x="76" y="207"/>
			<point x="74" y="186"/>
			<point x="74" y="165" type="curve" smooth="yes"/>
			<point x="74" y="46"/>
			<point x="175" y="-9"/>
			<point x="283" y="-9" type="curve" smooth="yes"/>
			<point x="436" y="-9"/>
			<point x="601" y="106"/>
		</contour>
		<contour>
			<point x="238" y="-99" type="line"/>
			<point x="290" y="-99" type="line"/>
			<point x="498" y="799" type="line"/>
			<point x="446" y="799" type="line"/>
		</contour>
	</outline>
</glyph>
<glyph name="percent" format="2">
	<unicode hex="0025"/>
	<advance width="1000"/>
	<outline>
		<contour>
			<point x="153" y="474" type="curve" smooth="yes"/>
			<point x="153" y="376"/>
			<point x="216" y="321"/>
			<point x="309" y="321" type="curve" smooth="yes"/>
			<point x="448" y="321"/>
			<point x="563" y="442"/>
			<point x="563" y="574" type="curve" smooth="yes"/>
			<point x="563" y="672"/>
			<point x="500" y="729"/>
			<point x="405" y="729" type="curve" smooth="yes"/>
			<point x="268" y="729"/>
			<point x="153" y="608"/>
		</contour>
		<contour>
			<point x="325" y="388" type="curve" smooth="yes"/>
			<point x="276" y="388"/>
			<point x="256" y="420"/>
			<point x="256" y="471" type="curve" smooth="yes"/>
			<point x="256" y="545"/>
			<point x="299" y="662"/>
			<point x="389" y="662" type="curve" smooth="yes"/>
			<point x="438" y="662"/>
			<point x="457" y="628"/>
			<point x="457" y="577" type="curve" smooth="yes"/>
			<point x="457" y="503"/>
			<point x="416" y="388"/>
		</contour>
		<contour>
			<point name="n24" x="238" y="-14" type="line"/>
			<point x="337" y="-14" type="line"/>
			<point name="n26" x="935" y="736" type="line"/>
			<point x="836" y="736" type="line"/>
		</contour>
		<contour>
			<point x="601" y="145" type="curve" smooth="yes"/>
			<point x="601" y="48"/>
			<point x="664" y="-7"/>
			<point x="757" y="-7" type="curve" smooth="yes"/>
			<point x="895" y="-7"/>
			<point x="1012" y="113"/>
			<point x="1012" y="248" type="curve" smooth="yes"/>
			<point x="1012" y="344"/>
			<point x="951" y="401"/>
			<point x="856" y="401" type="curve" smooth="yes"/>
			<point x="718" y="401"/>
			<point x="601" y="279"/>
		</contour>
		<contour>
			<point x="772" y="60" type="curve" smooth="yes"/>
			<point x="723" y="60"/>
			<point x="704" y="93"/>
			<point x="704" y="144" type="curve" smooth="yes"/>
			<point x="704" y="219"/>
			<point x="746" y="334"/>
			<point x="837" y="334" type="curve" smooth="yes"/>
			<point x="887" y="334"/>
			<point x="906" y="301"/>
			<point x="906" y="250" type="curve" smooth="yes"/>
			<point x="906" y="176"/>
			<point x="865" y="60"/>
		</contour>
	</outline>
	<guideline x="0" y="543" angle="0"/>
</glyph>
<glyph name="ampersand" format="2">
	<unicode hex="0026"/>
	<advance width="789"/>
	<outline>
		<contour>
			<point x="93" y="145" type="curve" smooth="yes"/>
			<point x="93" y="34"/>
			<point x="197" y="-15"/>
			<point x="331" y="-15" type="curve" smooth="yes"/>
			<point x="402" y="-15"/>
			<point x="506" y="4"/>
			<point x="563" y="49" type="curve"/>
			<point x="570.698" y="39.6126"/>
			<point x="597.954" y="6.37331"/>
			<point name="n09" x="604" y="-1" type="curve"/>
			<point x="779" y="-1" type="line"/>
			<point x="717" y="51"/>
			<point x="697" y="67"/>
			<point x="658" y="130" type="curve"/>
			<point x="709" y="199"/>
			<point x="757" y="297"/>
			<point x="781" y="380" type="curve"/>
			<point x="645" y="380" type="line"/>
			<point x="648" y="380"/>
			<point x="606" y="255"/>
			<point x="584" y="221" type="curve"/>
			<point x="531" y="283"/>
			<point x="491" y="339"/>
			<point x="464" y="389" type="curve"/>
			<point x="561" y="438"/>
			<point x="663" y="526"/>
			<point x="663" y="627" type="curve" smooth="yes"/>
			<point x="663" y="714"/>
			<point x="560" y="735"/>
			<point name="n29" x="491" y="735" type="curve" smooth="yes"/>
			<point x="377" y="735"/>
			<point x="239" y="677"/>
			<point x="239" y="545" type="curve" smooth="yes"/>
			<point x="239" y="496"/>
			<point x="262" y="446"/>
			<point x="297" y="411" type="curve"/>
			<point x="190" y="357"/>
			<point x="93" y="275"/>
		</contour>
		<contour>
			<point x="413" y="455" type="curve"/>
			<point x="384" y="494"/>
			<point x="369" y="528"/>
			<point x="369" y="554" type="curve" smooth="yes"/>
			<point x="369" y="606"/>
			<point x="427" y="635"/>
			<point name="n44" x="473" y="635" type="curve" smooth="yes"/>
			<point x="501" y="635"/>
			<point x="532" y="610"/>
			<point x="532" y="583" type="curve" smooth="yes"/>
			<point x="532" y="534"/>
			<point x="450" y="479"/>
		</contour>
		<contour>
			<point x="237" y="175" type="curve" smooth="yes"/>
			<point x="237" y="237"/>
			<point x="297" y="293"/>
			<point x="342" y="328" type="curve"/>
			<point x="375" y="270"/>
			<point x="426" y="202"/>
			<point x="495" y="125" type="curve"/>
			<point x="454" y="95"/>
			<point x="407" y="83"/>
			<point x="356" y="83" type="curve" smooth="yes"/>
			<point x="300" y="83"/>
			<point x="237" y="110"/>
		</contour>
	</outline>
</glyph>
<glyph name="quotesingle" format="2">
  <advance width="409"/>
  <unicode hex="0027"/>
  <anchor x="237" y="722" name="_dcaron"/>
  <outline>
    <contour>
      <point x="447" y="722" type="line"/>
      <point x="297" y="722" type="line"/>
      <point x="256" y="432" type="line"/>
      <point x="354" y="432" type="line"/>
    </contour>
  </outline>
</glyph>
<glyph name="parenleft" format="2">
	<unicode hex="0028"/>
	<advance width="385"/>
	<outline>
		<contour>
			<point name="n00" x="265" y="-132" type="line"/>
			<point x="258" y="-72"/>
			<point x="254" y="-14"/>
			<point x="254" y="42" type="curve" smooth="yes"/>
			<point x="254" y="298"/>
			<point x="335" y="516"/>
			<point name="n06" x="465" y="736" type="curve"/>
			<point x="355" y="736" type="line"/>
			<point x="221" y="542"/>
			<point x="133" y="305"/>
			<point x="133" y="68" type="curve" smooth="yes"/>
			<point x="133" y="0"/>
			<point x="140" y="-67"/>
			<point name="n13" x="155" y="-132" type="curve"/>
		</contour>
	</outline>
</glyph>
<glyph name="parenright" format="2">
	<unicode hex="0029"/>
	<advance width="385"/>
	<outline>
		<contour>
			<point x="393" y="538" type="curve" smooth="yes"/>
			<point x="393" y="606"/>
			<point x="386" y="672"/>
			<point x="371" y="736" type="curve"/>
			<point x="261" y="736" type="line"/>
			<point x="269" y="678"/>
			<point x="273" y="621"/>
			<point x="273" y="564" type="curve" smooth="yes"/>
			<point x="273" y="306"/>
			<point x="189" y="90"/>
			<point x="60" y="-132" type="curve"/>
			<point x="170" y="-132" type="line"/>
			<point x="304" y="65"/>
			<point x="393" y="298"/>
		</contour>
	</outline>
</glyph>
<glyph name="asterisk" format="2">
  <advance width="640"/>
  <unicode hex="002A"/>
  <outline>
    <contour>
      <point x="633" y="486" type="line"/>
      <point x="657" y="588" type="line"/>
      <point x="496" y="562" type="line"/>
      <point x="625" y="686" type="line"/>
      <point x="545" y="735" type="line"/>
      <point x="458" y="594" type="line"/>
      <point x="437" y="735" type="line"/>
      <point x="332" y="686" type="line"/>
      <point x="405" y="562" type="line"/>
      <point x="256" y="588" type="line"/>
      <point x="232" y="486" type="line"/>
      <point x="393" y="512" type="line"/>
      <point x="264" y="388" type="line"/>
      <point x="345" y="338" type="line"/>
      <point x="432" y="480" type="line"/>
      <point x="453" y="338" type="line"/>
      <point x="557" y="388" type="line"/>
      <point x="484" y="512" type="line"/>
    </contour>
  </outline>
</glyph>
<glyph name="plus" format="2">
	<unicode hex="002B"/>
	<advance width="1000"/>
	<outline>
		<contour>
			<point name="n00" x="862" y="269" type="line"/>
			<point name="n01" x="876" y="331" type="line"/>
			<point x="607" y="331" type="line"/>
			<point x="670" y="600" type="line"/>
			<point x="608" y="600" type="line"/>
			<point x="545" y="331" type="line"/>
			<point x="276" y="331" type="line"/>
			<point x="262" y="269" type="line"/>
			<point x="531" y="269" type="line"/>
			<point name="n09" x="469" y="0" type="line"/>
			<point x="531" y="0" type="line"/>
			<point x="593" y="269" type="line"/>
		</contour>
	</outline>
</glyph>
<glyph name="comma" format="2">
	<unicode hex="002C"/>
	<advance width="310"/>
	<outline>
		<contour>
			<point name="n00" x="291" y="123" type="line"/>
			<point name="n01" x="155" y="123" type="line"/>
			<point name="n02" x="18" y="-129" type="line"/>
			<point name="n03" x="113" y="-129" type="line"/>
		</contour>
	</outline>
</glyph>
<glyph name="hyphen" format="2">
	<unicode hex="002D"/>
	<advance width="336"/>
	<outline>
		<contour>
			<point name="n00" x="341" y="190" type="line"/>
			<point name="n01" x="371" y="321" type="line"/>
			<point x="114" y="321" type="line"/>
			<point name="n03" x="84" y="190" type="line"/>
		</contour>
	</outline>
</glyph>
<glyph name="period" format="2">
	<unicode hex="002E"/>
	<advance width="293"/>
	<outline>
		<contour>
			<point name="n00" x="224" y="0" type="line"/>
			<point name="n01" x="254" y="132" type="line"/>
			<point x="128" y="132" type="line"/>
			<point name="n03" x="98" y="0" type="line"/>
		</contour>
	</outline>
</glyph>
<glyph name="slash" format="2">
	<unicode hex="002F"/>
	<advance width="426"/>
	<outline>
		<contour>
			<point name="n00" x="551" y="736" type="line"/>
			<point x="452" y="736" type="line"/>
			<point x="34" y="-52" type="line"/>
			<point x="133" y="-52" type="line"/>
		</contour>
	</outline>
</glyph>
<glyph name="zero" format="2">
  <advance width="614"/>
  <unicode hex="0030"/>
  <outline>
    <contour>
      <point x="656" y="529" type="curve" smooth="yes"/>
      <point x="656" y="667"/>
      <point x="594" y="740"/>
      <point x="466" y="740" type="curve" smooth="yes"/>
      <point x="434" y="740"/>
      <point x="415" y="737"/>
      <point x="394" y="732" type="curve"/>
      <point x="394" y="619" type="line"/>
      <point x="416" y="625"/>
      <point x="428" y="625"/>
      <point x="444" y="625" type="curve" smooth="yes"/>
      <point x="481" y="625"/>
      <point x="517" y="606"/>
      <point x="517" y="497" type="curve" smooth="yes"/>
      <point x="517" y="385"/>
      <point x="470" y="133"/>
      <point x="364" y="107" type="curve"/>
      <point x="364" y="-6" type="line"/>
      <point x="563" y="43"/>
      <point x="656" y="304"/>
    </contour>
    <contour>
      <point x="102" y="197" type="curve" smooth="yes"/>
      <point x="102" y="59"/>
      <point x="164" y="-14"/>
      <point x="292" y="-14" type="curve" smooth="yes"/>
      <point x="324" y="-14"/>
      <point x="343" y="-11"/>
      <point x="364" y="-6" type="curve"/>
      <point x="364" y="107" type="line"/>
      <point x="342" y="101"/>
      <point x="330" y="101"/>
      <point x="314" y="101" type="curve" smooth="yes"/>
      <point x="277" y="101"/>
      <point x="241" y="120"/>
      <point x="241" y="229" type="curve" smooth="yes"/>
      <point x="241" y="341"/>
      <point x="288" y="593"/>
      <point x="394" y="619" type="curve"/>
      <point x="394" y="732" type="line"/>
      <point x="195" y="683"/>
      <point x="102" y="422"/>
    </contour>
  </outline>
  <guideline angle="0" x="0" y="769"/>
</glyph>
<glyph name="one" format="2">
	<unicode hex="0031"/>
	<advance width="573"/>
	<outline>
		<contour>
			<point name="n00" x="406" y="0" type="line"/>
			<point name="n01" x="573" y="722" type="line"/>
			<point x="448" y="722" type="line"/>
			<point x="387" y="674"/>
			<point x="315" y="636"/>
			<point x="241" y="610" type="curve"/>
			<point name="n06" x="212" y="487" type="line"/>
			<point x="280" y="508"/>
			<point x="346" y="538"/>
			<point x="405" y="579" type="curve"/>
			<point x="271" y="0" type="line"/>
		</contour>
	</outline>
</glyph>
<glyph name="two" format="2">
	<unicode hex="0032"/>
	<advance width="573"/>
	<outline>
		<contour>
			<point x="31" y="0" type="line"/>
			<point name="n01" x="541" y="0" type="line"/>
			<point name="n02" x="567" y="115" type="line"/>
			<point x="212" y="115" type="line"/>
			<point x="420" y="248" type="line" smooth="yes"/>
			<point x="529" y="318"/>
			<point x="668" y="437"/>
			<point x="668" y="576" type="curve" smooth="yes"/>
			<point x="668" y="679"/>
			<point x="591" y="736"/>
			<point name="n10" x="480" y="736" type="curve" smooth="yes"/>
			<point x="348" y="736"/>
			<point x="209" y="656"/>
			<point x="179" y="523" type="curve"/>
			<point x="324" y="523" type="line"/>
			<point x="339" y="586"/>
			<point x="394" y="626"/>
			<point name="n17" x="447" y="626" type="curve" smooth="yes"/>
			<point x="494" y="626"/>
			<point x="526" y="595"/>
			<point x="526" y="552" type="curve" smooth="yes"/>
			<point x="526" y="475"/>
			<point x="425" y="387"/>
			<point x="365" y="344" type="curve" smooth="yes"/>
			<point x="61" y="129" type="line"/>
		</contour>
	</outline>
</glyph>
<glyph name="three" format="2">
  <advance width="573"/>
  <unicode hex="0033"/>
  <outline>
    <contour>
      <point x="93" y="203" type="line"/>
      <point x="87" y="178"/>
      <point x="85" y="155"/>
      <point x="85" y="137" type="curve" smooth="yes"/>
      <point x="85" y="35"/>
      <point x="151" y="-14"/>
      <point x="284" y="-14" type="curve" smooth="yes"/>
      <point x="426" y="-14"/>
      <point x="580" y="103"/>
      <point x="580" y="235" type="curve" smooth="yes"/>
      <point x="580" y="308"/>
      <point x="533" y="360"/>
      <point x="460" y="377" type="curve"/>
      <point x="567" y="417"/>
      <point x="637" y="485"/>
      <point x="637" y="583" type="curve" smooth="yes"/>
      <point x="637" y="680"/>
      <point x="568" y="738"/>
      <point x="450" y="738" type="curve" smooth="yes"/>
      <point x="321" y="738"/>
      <point x="201" y="668"/>
      <point x="170" y="534" type="curve"/>
      <point x="310" y="534" type="line"/>
      <point x="324" y="593"/>
      <point x="369" y="628"/>
      <point x="420" y="628" type="curve" smooth="yes"/>
      <point x="464" y="628"/>
      <point x="493" y="601"/>
      <point x="493" y="552" type="curve" smooth="yes"/>
      <point x="493" y="466"/>
      <point x="404" y="431"/>
      <point x="315" y="431" type="curve" smooth="yes"/>
      <point x="305" y="431" type="line"/>
      <point x="279" y="321" type="line"/>
      <point x="340" y="321" type="line" smooth="yes"/>
      <point x="391" y="321"/>
      <point x="436" y="307"/>
      <point x="436" y="241" type="curve" smooth="yes"/>
      <point x="436" y="169"/>
      <point x="381" y="96"/>
      <point x="302" y="96" type="curve" smooth="yes"/>
      <point x="253" y="96"/>
      <point x="229" y="124"/>
      <point x="229" y="166" type="curve" smooth="yes"/>
      <point x="229" y="178"/>
      <point x="231" y="190"/>
      <point x="234" y="203" type="curve"/>
    </contour>
  </outline>
</glyph>
<glyph name="four" format="2">
	<unicode hex="0034"/>
	<advance width="573"/>
	<outline>
		<contour>
			<point name="n00" x="588" y="158" type="line"/>
			<point name="n01" x="615" y="273" type="line"/>
			<point x="525" y="273" type="line"/>
			<point name="n03" x="629" y="722" type="line"/>
			<point x="454" y="722" type="line"/>
			<point x="88" y="288" type="line"/>
			<point x="58" y="158" type="line"/>
			<point x="363" y="158" type="line"/>
			<point name="n08" x="327" y="0" type="line"/>
			<point x="462" y="0" type="line"/>
			<point x="498" y="158" type="line"/>
		</contour>
		<contour>
			<point x="390" y="273" type="line"/>
			<point x="208" y="273" type="line"/>
			<point x="463" y="590" type="line"/>
		</contour>
	</outline>
</glyph>
<glyph name="five" format="2">
	<unicode hex="0035"/>
	<advance width="573"/>
	<outline>
		<contour>
			<point name="n00" x="81" y="184" type="line"/>
			<point x="78" y="168"/>
			<point x="77" y="153"/>
			<point x="77" y="141" type="curve" smooth="yes"/>
			<point x="77" y="38"/>
			<point x="148" y="-14"/>
			<point x="258" y="-14" type="curve" smooth="yes"/>
			<point x="446" y="-14"/>
			<point x="602" y="136"/>
			<point x="602" y="306" type="curve" smooth="yes"/>
			<point x="602" y="407"/>
			<point x="547" y="471"/>
			<point name="n12" x="446" y="471" type="curve" smooth="yes"/>
			<point x="400" y="471"/>
			<point x="313" y="458"/>
			<point x="279" y="420" type="curve"/>
			<point x="326" y="607" type="line"/>
			<point name="n17" x="629" y="607" type="line"/>
			<point name="n18" x="656" y="722" type="line"/>
			<point x="216" y="722" type="line"/>
			<point x="116" y="292" type="line"/>
			<point x="243" y="292" type="line"/>
			<point x="276" y="345"/>
			<point x="314" y="369"/>
			<point name="n24" x="371" y="369" type="curve" smooth="yes"/>
			<point x="431" y="369"/>
			<point x="459" y="343"/>
			<point x="459" y="285" type="curve" smooth="yes"/>
			<point x="459" y="198"/>
			<point x="396" y="96"/>
			<point x="291" y="96" type="curve" smooth="yes"/>
			<point x="243" y="96"/>
			<point x="212" y="118"/>
			<point x="212" y="160" type="curve" smooth="yes"/>
			<point x="212" y="168"/>
			<point x="213" y="176"/>
			<point name="n36" x="215" y="184" type="curve"/>
		</contour>
	</outline>
</glyph>
<glyph name="six" format="2">
	<unicode hex="0036"/>
	<advance width="573"/>
	<outline>
		<contour>
			<point x="91" y="189" type="curve" smooth="yes"/>
			<point x="91" y="65"/>
			<point x="153" y="-14"/>
			<point x="280" y="-14" type="curve" smooth="yes"/>
			<point x="455" y="-14"/>
			<point x="604" y="132"/>
			<point x="604" y="304" type="curve" smooth="yes"/>
			<point x="604" y="393"/>
			<point x="541" y="461"/>
			<point name="n09" x="451" y="461" type="curve" smooth="yes"/>
			<point x="367" y="461"/>
			<point x="317" y="435"/>
			<point x="260" y="374" type="curve"/>
			<point x="280" y="458"/>
			<point x="345" y="627"/>
			<point x="448" y="627" type="curve" smooth="yes"/>
			<point x="489" y="627"/>
			<point x="514" y="600"/>
			<point x="514" y="562" type="curve" smooth="yes"/>
			<point x="514" y="556"/>
			<point x="514" y="549"/>
			<point x="512" y="542" type="curve"/>
			<point x="652" y="542" type="line"/>
			<point x="654" y="549"/>
			<point x="655" y="557"/>
			<point x="655" y="568" type="curve" smooth="yes"/>
			<point x="655" y="670"/>
			<point x="574" y="738"/>
			<point x="465" y="738" type="curve" smooth="yes"/>
			<point x="222" y="738"/>
			<point x="91" y="397"/>
		</contour>
		<contour>
			<point x="241" y="179" type="curve" smooth="yes"/>
			<point x="241" y="255"/>
			<point x="288" y="360"/>
			<point name="n34" x="381" y="360" type="curve" smooth="yes"/>
			<point x="433" y="360"/>
			<point x="454" y="326"/>
			<point x="454" y="274" type="curve" smooth="yes"/>
			<point x="454" y="199"/>
			<point x="409" y="94"/>
			<point x="315" y="94" type="curve" smooth="yes"/>
			<point x="263" y="94"/>
			<point x="241" y="127"/>
		</contour>
	</outline>
</glyph>
<glyph name="seven" format="2">
  <advance width="573"/>
  <unicode hex="0037"/>
  <outline>
    <contour>
      <point x="663" y="582" type="line"/>
      <point x="696" y="722" type="line"/>
      <point x="212" y="722" type="line"/>
      <point x="185" y="607" type="line"/>
      <point x="535" y="607" type="line"/>
      <point x="118" y="0" type="line"/>
      <point x="284" y="0" type="line"/>
    </contour>
  </outline>
</glyph>
<glyph name="eight" format="2">
	<unicode hex="0038"/>
	<advance width="573"/>
	<outline>
		<contour>
			<point x="72" y="131" type="curve" smooth="yes"/>
			<point x="72" y="29"/>
			<point x="159" y="-14"/>
			<point x="280" y="-14" type="curve" smooth="yes"/>
			<point x="447" y="-14"/>
			<point x="590" y="70"/>
			<point x="590" y="246" type="curve" smooth="yes"/>
			<point x="590" y="331"/>
			<point x="538" y="359"/>
			<point x="470" y="388" type="curve"/>
			<point x="579" y="428"/>
			<point x="657" y="481"/>
			<point x="657" y="587" type="curve" smooth="yes"/>
			<point x="657" y="695"/>
			<point x="577" y="738"/>
			<point x="462" y="738" type="curve" smooth="yes"/>
			<point x="311" y="738"/>
			<point x="169" y="662"/>
			<point x="169" y="508" type="curve" smooth="yes"/>
			<point x="169" y="447"/>
			<point x="210" y="412"/>
			<point x="274" y="388" type="curve"/>
			<point x="150" y="344"/>
			<point x="72" y="267"/>
		</contour>
		<contour>
			<point name="n24" x="386" y="439" type="curve" smooth="yes"/>
			<point x="341" y="439"/>
			<point x="315" y="464"/>
			<point x="315" y="508" type="curve" smooth="yes"/>
			<point x="315" y="568"/>
			<point x="363" y="626"/>
			<point x="428" y="626" type="curve" smooth="yes"/>
			<point x="473" y="626"/>
			<point x="501" y="599"/>
			<point x="501" y="553" type="curve" smooth="yes"/>
			<point x="501" y="493"/>
			<point x="452" y="439"/>
		</contour>
		<contour>
			<point x="228" y="179" type="curve" smooth="yes"/>
			<point x="228" y="251"/>
			<point x="279" y="327"/>
			<point name="n39" x="360" y="327" type="curve" smooth="yes"/>
			<point x="414" y="327"/>
			<point x="444" y="293"/>
			<point x="444" y="241" type="curve" smooth="yes"/>
			<point x="444" y="168"/>
			<point x="387" y="95"/>
			<point x="307" y="95" type="curve" smooth="yes"/>
			<point x="254" y="95"/>
			<point x="228" y="127"/>
		</contour>
	</outline>
</glyph>
<glyph name="nine" format="2">
	<unicode hex="0039"/>
	<advance width="573"/>
	<outline>
		<contour>
			<point x="229" y="180" type="curve"/>
			<point x="89" y="180" type="line"/>
			<point x="87" y="170"/>
			<point x="85" y="160"/>
			<point x="85" y="145" type="curve" smooth="yes"/>
			<point x="85" y="47"/>
			<point x="171" y="-14"/>
			<point x="276" y="-14" type="curve" smooth="yes"/>
			<point x="522" y="-14"/>
			<point x="649" y="324"/>
			<point x="649" y="531" type="curve" smooth="yes"/>
			<point x="649" y="653"/>
			<point x="589" y="738"/>
			<point x="461" y="738" type="curve" smooth="yes"/>
			<point x="267" y="738"/>
			<point x="136" y="609"/>
			<point x="136" y="416" type="curve" smooth="yes"/>
			<point x="136" y="328"/>
			<point x="198" y="257"/>
			<point x="290" y="257" type="curve" smooth="yes"/>
			<point x="386" y="257"/>
			<point x="420" y="282"/>
			<point x="482" y="343" type="curve"/>
			<point x="462" y="253"/>
			<point x="395" y="93"/>
			<point x="292" y="93" type="curve" smooth="yes"/>
			<point x="249" y="93"/>
			<point x="226" y="120"/>
			<point x="226" y="157" type="curve" smooth="yes"/>
			<point x="226" y="164"/>
			<point x="227" y="172"/>
		</contour>
		<contour>
			<point x="361" y="357" type="curve" smooth="yes"/>
			<point x="308" y="357"/>
			<point x="286" y="391"/>
			<point x="286" y="443" type="curve" smooth="yes"/>
			<point x="286" y="518"/>
			<point x="332" y="626"/>
			<point x="424" y="626" type="curve" smooth="yes"/>
			<point x="477" y="626"/>
			<point x="499" y="592"/>
			<point x="499" y="540" type="curve" smooth="yes"/>
			<point x="499" y="464"/>
			<point x="453" y="357"/>
		</contour>
	</outline>
</glyph>
<glyph name="colon" format="2">
	<unicode hex="003A"/>
	<advance width="310"/>
	<outline>
		<contour>
			<point name="n00" x="348" y="368" type="line"/>
			<point name="n01" x="378" y="500" type="line"/>
			<point x="252" y="500" type="line"/>
			<point x="222" y="368" type="line"/>
		</contour>
		<contour>
			<point name="n04" x="263" y="0" type="line"/>
			<point name="n05" x="293" y="132" type="line"/>
			<point x="167" y="132" type="line"/>
			<point name="n07" x="137" y="0" type="line"/>
		</contour>
	</outline>
</glyph>
<glyph name="semicolon" format="2">
	<unicode hex="003B"/>
	<advance width="310"/>
	<outline>
		<contour>
			<point name="n00" x="333" y="368" type="line"/>
			<point name="n01" x="363" y="500" type="line"/>
			<point x="237" y="500" type="line"/>
			<point x="207" y="368" type="line"/>
		</contour>
		<contour>
			<point x="293" y="132" type="line"/>
			<point x="157" y="132" type="line"/>
			<point name="n06" x="20" y="-120" type="line"/>
			<point x="115" y="-120" type="line"/>
		</contour>
	</outline>
</glyph>
<glyph name="less" format="2">
	<unicode hex="003C"/>
	<advance width="1000"/>
	<outline>
		<contour>
			<point name="n00" x="809" y="39" type="line"/>
			<point x="823" y="101" type="line"/>
			<point x="333" y="300" type="line"/>
			<point x="915" y="499" type="line"/>
			<point name="n04" x="930" y="561" type="line"/>
			<point x="276" y="331" type="line"/>
			<point name="n06" x="262" y="269" type="line"/>
		</contour>
	</outline>
</glyph>
<glyph name="equal" format="2">
  <advance width="1000"/>
  <unicode hex="003D"/>
  <outline>
    <contour>
      <point x="883" y="360" type="line"/>
      <point x="897" y="422" type="line"/>
      <point x="297" y="422" type="line"/>
      <point x="283" y="360" type="line"/>
    </contour>
    <contour>
      <point x="841" y="178" type="line"/>
      <point x="855" y="240" type="line"/>
      <point x="255" y="240" type="line"/>
      <point x="241" y="178" type="line"/>
    </contour>
  </outline>
</glyph>
<glyph name="greater" format="2">
	<unicode hex="003E"/>
	<advance width="1000"/>
	<outline>
		<contour>
			<point x="862" y="269" type="line"/>
			<point name="n01" x="876" y="331" type="line"/>
			<point x="330" y="561" type="line"/>
			<point name="n03" x="315" y="499" type="line"/>
			<point x="805" y="300" type="line"/>
			<point x="223" y="101" type="line"/>
			<point name="n06" x="209" y="39" type="line"/>
		</contour>
	</outline>
</glyph>
<glyph name="question" format="2">
  <advance width="539"/>
  <unicode hex="003F"/>
  <outline>
    <contour>
      <point x="250" y="295" type="curve" smooth="yes"/>
      <point x="224" y="181" type="line"/>
      <point x="324" y="181" type="line"/>
      <point x="340" y="254" type="line" smooth="yes"/>
      <point x="350" y="299"/>
      <point x="400" y="335"/>
      <point x="454" y="374" type="curve" smooth="yes"/>
      <point x="530" y="428"/>
      <point x="614" y="488"/>
      <point x="614" y="588" type="curve" smooth="yes"/>
      <point x="614" y="685"/>
      <point x="535" y="736"/>
      <point x="405" y="736" type="curve" smooth="yes"/>
      <point x="301" y="736"/>
      <point x="206" y="667"/>
      <point x="160" y="593" type="curve"/>
      <point x="239" y="532" type="line"/>
      <point x="281" y="596"/>
      <point x="325" y="634"/>
      <point x="390" y="634" type="curve" smooth="yes"/>
      <point x="441" y="634"/>
      <point x="471" y="609"/>
      <point x="471" y="561" type="curve" smooth="yes"/>
      <point x="471" y="490"/>
      <point x="404" y="439"/>
      <point x="341" y="392" type="curve" smooth="yes"/>
      <point x="299" y="361"/>
      <point x="258" y="330"/>
    </contour>
    <contour>
      <point x="289" y="-3" type="line"/>
      <point x="315" y="109" type="line"/>
      <point x="195" y="109" type="line"/>
      <point x="169" y="-3" type="line"/>
    </contour>
  </outline>
</glyph>
<glyph name="A" format="2">
	<unicode hex="0041"/>
	<advance width="709"/>
	<outline>
		<contour>
			<point name="n00" x="700" y="0" type="line"/>
			<point name="n01" x="596" y="720" type="line"/>
			<point x="447" y="720" type="line"/>
			<point x="10" y="0" type="line"/>
			<point x="155" y="0" type="line"/>
			<point x="246" y="154" type="line"/>
			<point name="n06" x="531" y="154" type="line"/>
			<point x="555" y="0" type="line"/>
		</contour>
		<contour>
			<point name="n08" x="515" y="269" type="line"/>
			<point x="314" y="269" type="line"/>
			<point x="485" y="561" type="line"/>
		</contour>
	</outline>
</glyph>
<glyph name="B" format="2">
	<unicode hex="0042"/>
	<advance width="673"/>
	<outline>
		<contour>
			<point x="70" y="0" type="line"/>
			<point name="n01" x="377" y="0" type="line" smooth="yes"/>
			<point x="506" y="0"/>
			<point x="668" y="90"/>
			<point x="668" y="228" type="curve" smooth="yes"/>
			<point x="668" y="323"/>
			<point x="593" y="356"/>
			<point x="526" y="371" type="curve"/>
			<point x="526" y="375" type="line"/>
			<point x="622" y="405"/>
			<point x="716" y="481"/>
			<point x="716" y="585" type="curve" smooth="yes"/>
			<point x="716" y="678"/>
			<point x="640" y="722"/>
			<point name="n14" x="534" y="722" type="curve" smooth="yes"/>
			<point x="236" y="722" type="line"/>
		</contour>
		<contour>
			<point name="n16" x="318" y="427" type="line"/>
			<point x="359" y="608" type="line"/>
			<point name="n18" x="465" y="608" type="line" smooth="yes"/>
			<point x="515" y="608"/>
			<point x="556" y="582"/>
			<point x="556" y="530" type="curve" smooth="yes"/>
			<point x="556" y="458"/>
			<point x="479" y="427"/>
			<point x="413" y="427" type="curve" smooth="yes"/>
		</contour>
		<contour>
			<point x="245" y="114" type="line"/>
			<point name="n26" x="291" y="313" type="line"/>
			<point x="418" y="313" type="line" smooth="yes"/>
			<point x="474" y="313"/>
			<point x="517" y="288"/>
			<point x="517" y="228" type="curve" smooth="yes"/>
			<point x="517" y="143"/>
			<point x="430" y="114"/>
			<point name="n33" x="350" y="114" type="curve" smooth="yes"/>
		</contour>
	</outline>
</glyph>
<glyph name="C" format="2">
  <advance width="727"/>
  <unicode hex="0043"/>
  <anchor x="364" y="-60" name="bottom"/>
  <anchor x="378" y="10" name="cedillaC"/>
  <anchor x="554" y="800" name="top"/>
  <outline>
    <contour>
      <point x="123" y="220" type="curve"/>
      <point x="129" y="85"/>
      <point x="197" y="-14"/>
      <point x="374" y="-14" type="curve" smooth="yes"/>
      <point x="549" y="-14"/>
      <point x="681" y="81"/>
      <point x="728" y="243" type="curve"/>
      <point x="567" y="243" type="line"/>
      <point x="529" y="154"/>
      <point x="483" y="100"/>
      <point x="394" y="100" type="curve" smooth="yes"/>
      <point x="300" y="100"/>
      <point x="273" y="161"/>
      <point x="273" y="233" type="curve" smooth="yes"/>
      <point x="273" y="383"/>
      <point x="341" y="622"/>
      <point x="531" y="622" type="curve" smooth="yes"/>
      <point x="596" y="622"/>
      <point x="637" y="594"/>
      <point x="637" y="535" type="curve" smooth="yes"/>
      <point x="637" y="522"/>
      <point x="635" y="510"/>
      <point x="632" y="496" type="curve"/>
      <point x="778" y="496" type="line"/>
      <point x="782" y="514"/>
      <point x="784" y="536"/>
      <point x="784" y="555" type="curve" smooth="yes"/>
      <point x="784" y="679"/>
      <point x="700" y="736"/>
      <point x="539" y="736" type="curve" smooth="yes"/>
      <point x="271" y="736"/>
      <point x="123" y="458"/>
    </contour>
  </outline>
  <guideline angle="0" x="0" y="-12"/>
  <guideline angle="0" x="0" y="736"/>
</glyph>
<glyph name="D" format="2">
  <advance width="728"/>
  <unicode hex="0044"/>
  <anchor x="449" y="800" name="top"/>
  <outline>
    <contour>
      <point x="768" y="458" type="curve" smooth="yes"/>
      <point x="768" y="632"/>
      <point x="643" y="720"/>
      <point x="454" y="720" type="curve" smooth="yes"/>
      <point x="235" y="720" type="line"/>
      <point x="69" y="-1" type="line"/>
      <point x="288" y="-1" type="line" smooth="yes"/>
      <point x="556" y="-1"/>
      <point x="768" y="188"/>
    </contour>
    <contour>
      <point x="314" y="113" type="curve" smooth="yes"/>
      <point x="245" y="113" type="line"/>
      <point x="359" y="605" type="line"/>
      <point x="428" y="605" type="line" smooth="yes"/>
      <point x="555" y="605"/>
      <point x="618" y="552"/>
      <point x="618" y="447" type="curve" smooth="yes"/>
      <point x="618" y="264"/>
      <point x="511" y="113"/>
    </contour>
  </outline>
</glyph>
<glyph name="E" format="2">
  <advance width="594"/>
  <unicode hex="0045"/>
  <anchor x="320" y="-60" name="bottom"/>
  <anchor x="471" y="800" name="top"/>
  <outline>
    <contour>
      <point x="551" y="0" type="line"/>
      <point x="578" y="115" type="line"/>
      <point x="236" y="115" type="line"/>
      <point x="283" y="319" type="line"/>
      <point x="595" y="319" type="line"/>
      <point x="620" y="429" type="line"/>
      <point x="308" y="429" type="line"/>
      <point x="349" y="607" type="line"/>
      <point x="681" y="607" type="line"/>
      <point x="708" y="722" type="line"/>
      <point x="231" y="722" type="line"/>
      <point x="64" y="0" type="line"/>
    </contour>
  </outline>
</glyph>
<glyph name="F" format="2">
	<unicode hex="0046"/>
	<advance width="583"/>
	<outline>
		<contour>
			<point name="n00" x="669" y="607" type="line"/>
			<point name="n01" x="696" y="722" type="line"/>
			<point x="237" y="722" type="line"/>
			<point name="n03" x="70" y="0" type="line"/>
			<point x="220" y="0" type="line"/>
			<point name="n05" x="293" y="315" type="line"/>
			<point x="582" y="315" type="line"/>
			<point x="608" y="430" type="line"/>
			<point name="n08" x="319" y="430" type="line"/>
			<point x="360" y="607" type="line"/>
		</contour>
	</outline>
</glyph>
<glyph name="G" format="2">
  <advance width="774"/>
  <unicode hex="0047"/>
  <anchor x="600" y="800" name="top"/>
  <outline>
    <contour>
      <point x="124" y="258" type="curve" smooth="yes"/>
      <point x="124" y="58"/>
      <point x="261" y="-14"/>
      <point x="440" y="-14" type="curve" smooth="yes"/>
      <point x="510" y="-14"/>
      <point x="599" y="-3"/>
      <point x="711" y="31" type="curve"/>
      <point x="793" y="384" type="line"/>
      <point x="513" y="384" type="line"/>
      <point x="485" y="265" type="line"/>
      <point x="615" y="265" type="line"/>
      <point x="581" y="116" type="line"/>
      <point x="540" y="107"/>
      <point x="499" y="100"/>
      <point x="463" y="100" type="curve" smooth="yes"/>
      <point x="354" y="100"/>
      <point x="275" y="158"/>
      <point x="275" y="271" type="curve" smooth="yes"/>
      <point x="275" y="428"/>
      <point x="384" y="622"/>
      <point x="559" y="622" type="curve" smooth="yes"/>
      <point x="618" y="622"/>
      <point x="681" y="601"/>
      <point x="681" y="530" type="curve" smooth="yes"/>
      <point x="681" y="521"/>
      <point x="680" y="509"/>
      <point x="677" y="496" type="curve"/>
      <point x="828" y="496" type="line"/>
      <point x="833" y="520"/>
      <point x="836" y="542"/>
      <point x="836" y="563" type="curve" smooth="yes"/>
      <point x="836" y="683"/>
      <point x="740" y="736"/>
      <point x="591" y="736" type="curve" smooth="yes"/>
      <point x="332" y="736"/>
      <point x="124" y="505"/>
    </contour>
  </outline>
  <guideline angle="0" x="0" y="747"/>
  <guideline angle="0" x="0" y="-14"/>
</glyph>
<glyph name="H" format="2">
  <advance width="702"/>
  <unicode hex="0048"/>
  <anchor x="435" y="-75" name="bottom"/>
  <anchor x="525" y="800" name="top"/>
  <outline>
    <contour>
      <point x="639" y="0" type="line"/>
      <point x="806" y="722" type="line"/>
      <point x="661" y="722" type="line"/>
      <point x="594" y="435" type="line"/>
      <point x="309" y="435" type="line"/>
      <point x="376" y="722" type="line"/>
      <point x="231" y="722" type="line"/>
      <point x="64" y="0" type="line"/>
      <point x="209" y="0" type="line"/>
      <point x="283" y="320" type="line"/>
      <point x="568" y="320" type="line"/>
      <point x="494" y="0" type="line"/>
    </contour>
  </outline>
</glyph>
<glyph name="I" format="2">
	<unicode hex="0049"/>
	<advance width="289"/>
	<outline>
		<contour>
			<point name="n00" x="220" y="0" type="line"/>
			<point name="n01" x="387" y="722" type="line"/>
			<point x="237" y="722" type="line"/>
			<point name="n03" x="70" y="0" type="line"/>
		</contour>
	</outline>
</glyph>
<glyph name="K" format="2">
  <advance width="694"/>
  <unicode hex="004B"/>
  <anchor x="335" y="-60" name="bottom"/>
  <anchor x="504" y="800" name="top"/>
  <outline>
    <contour>
      <point x="670" y="0" type="line"/>
      <point x="465" y="386" type="line"/>
      <point x="797" y="722" type="line"/>
      <point x="627" y="722" type="line"/>
      <point x="310" y="412" type="line"/>
      <point x="382" y="722" type="line"/>
      <point x="237" y="722" type="line"/>
      <point x="70" y="0" type="line"/>
      <point x="215" y="0" type="line"/>
      <point x="299" y="362" type="line"/>
      <point x="480" y="0" type="line"/>
    </contour>
  </outline>
</glyph>
<glyph name="L" format="2">
  <advance width="570"/>
  <unicode hex="004C"/>
  <anchor x="293" y="-60" name="bottom"/>
  <anchor x="449" y="402" name="dotCN"/>
  <anchor x="322" y="800" name="top"/>
  <outline>
    <contour>
      <point x="546" y="0" type="line"/>
      <point x="573" y="115" type="line"/>
      <point x="242" y="115" type="line"/>
      <point x="382" y="722" type="line"/>
      <point x="237" y="722" type="line"/>
      <point x="70" y="0" type="line"/>
    </contour>
  </outline>
</glyph>
<glyph name="N" format="2">
	<unicode hex="004E"/>
	<advance width="767"/>
	<outline>
		<contour>
			<point name="n00" x="698" y="0" type="line"/>
			<point name="n01" x="865" y="722" type="line"/>
			<point x="725" y="722" type="line"/>
			<point x="591" y="145" type="line"/>
			<point x="447" y="722" type="line"/>
			<point x="237" y="722" type="line"/>
			<point x="70" y="0" type="line"/>
			<point x="210" y="0" type="line"/>
			<point x="343" y="577" type="line"/>
			<point x="488" y="0" type="line"/>
		</contour>
	</outline>
</glyph>
<glyph name="O" format="2">
  <advance width="793"/>
  <unicode hex="004F"/>
  <anchor x="391" y="-60" name="bottom"/>
  <anchor x="399" y="10" name="bottomUC"/>
  <anchor x="552" y="800" name="top"/>
  <outline>
    <contour>
      <point x="480" y="109" type="line"/>
      <point x="460" y="102"/>
      <point x="438" y="100"/>
      <point x="415" y="100" type="curve" smooth="yes"/>
      <point x="326" y="100"/>
      <point x="278" y="150"/>
      <point x="278" y="252" type="curve" smooth="yes"/>
      <point x="278" y="390"/>
      <point x="341" y="568"/>
      <point x="480" y="612" type="curve"/>
      <point x="480" y="726" type="line"/>
      <point x="265" y="679"/>
      <point x="124" y="472"/>
      <point x="124" y="246" type="curve" smooth="yes"/>
      <point x="124" y="75"/>
      <point x="226" y="-14"/>
      <point x="392" y="-14" type="curve" smooth="yes"/>
      <point x="423" y="-14"/>
      <point x="452" y="-11"/>
      <point x="480" y="-5" type="curve"/>
    </contour>
    <contour>
      <point x="480" y="612" type="line"/>
      <point x="500" y="619"/>
      <point x="522" y="621"/>
      <point x="545" y="621" type="curve" smooth="yes"/>
      <point x="634" y="621"/>
      <point x="682" y="571"/>
      <point x="682" y="469" type="curve" smooth="yes"/>
      <point x="682" y="331"/>
      <point x="619" y="153"/>
      <point x="480" y="109" type="curve"/>
      <point x="480" y="-5" type="line"/>
      <point x="695" y="42"/>
      <point x="836" y="249"/>
      <point x="836" y="475" type="curve" smooth="yes"/>
      <point x="836" y="646"/>
      <point x="734" y="735"/>
      <point x="568" y="735" type="curve" smooth="yes"/>
      <point x="537" y="735"/>
      <point x="508" y="732"/>
      <point x="480" y="726" type="curve"/>
    </contour>
  </outline>
  <guideline angle="90" x="463" y="0"/>
</glyph>
<glyph name="W" format="2">
	<unicode hex="0057"/>
	<advance width="1000"/>
	<outline>
		<contour>
			<point name="n00" x="1157" y="722" type="line"/>
			<point x="997" y="722" type="line"/>
			<point x="762" y="180" type="line"/>
			<point name="n03" x="746" y="722" type="line"/>
			<point x="588" y="722" type="line"/>
			<point x="322" y="180" type="line"/>
			<point name="n06" x="337" y="722" type="line"/>
			<point name="n07" x="177" y="722" type="line"/>
			<point name="n08" x="190" y="0" type="line"/>
			<point x="360" y="0" type="line"/>
			<point name="n10" x="625" y="541" type="line"/>
			<point x="640" y="0" type="line"/>
			<point x="810" y="0" type="line"/>
		</contour>
	</outline>
</glyph>
<glyph name="X" format="2">
  <advance width="692"/>
  <unicode hex="0058"/>
  <anchor x="530" y="800" name="top"/>
  <outline>
    <contour>
      <point x="683" y="0" type="line"/>
      <point x="515" y="376" type="line"/>
      <point x="830" y="722" type="line"/>
      <point x="675" y="722" type="line"/>
      <point x="466" y="479" type="line"/>
      <point x="368" y="722" type="line"/>
      <point x="198" y="722" type="line"/>
      <point x="349" y="376" type="line"/>
      <point x="10" y="0" type="line"/>
      <point x="160" y="0" type="line"/>
      <point x="397" y="274" type="line"/>
      <point x="513" y="0" type="line"/>
    </contour>
  </outline>
</glyph>
<glyph name="Y" format="2">
	<unicode hex="0059"/>
	<advance width="653"/>
	<outline>
		<contour>
			<point name="n00" x="811" y="722" type="line"/>
			<point x="645" y="722" type="line"/>
			<point x="424" y="419" type="line"/>
			<point x="343" y="722" type="line"/>
			<point x="177" y="722" type="line"/>
			<point x="315" y="273" type="line"/>
			<point name="n06" x="252" y="0" type="line"/>
			<point x="402" y="0" type="line"/>
			<point x="465" y="273" type="line"/>
		</contour>
	</outline>
</glyph>
<glyph name="Z" format="2">
	<unicode hex="005A"/>
	<advance width="632"/>
	<outline>
		<contour>
			<point name="n00" x="588" y="0" type="line"/>
			<point name="n01" x="615" y="115" type="line"/>
			<point x="245" y="115" type="line"/>
			<point x="718" y="597" type="line"/>
			<point x="747" y="722" type="line"/>
			<point name="n05" x="234" y="722" type="line"/>
			<point name="n06" x="207" y="607" type="line"/>
			<point x="547" y="607" type="line"/>
			<point x="74" y="125" type="line"/>
			<point x="45" y="0" type="line"/>
		</contour>
	</outline>
</glyph>
<glyph name="bracketleft" format="2">
	<unicode hex="005B"/>
	<advance width="390"/>
	<outline>
		<contour>
			<point name="n00" x="262" y="-198" type="line"/>
			<point name="n01" x="283" y="-108" type="line"/>
			<point x="178" y="-108" type="line"/>
			<point x="349" y="632" type="line"/>
			<point name="n04" x="454" y="632" type="line"/>
			<point name="n05" x="475" y="722" type="line"/>
			<point x="250" y="722" type="line"/>
			<point x="37" y="-198" type="line"/>
		</contour>
	</outline>
</glyph>
<glyph name="backslash" format="2">
	<unicode hex="005C"/>
	<advance width="426"/>
	<outline>
		<contour>
			<point name="n00" x="369" y="-52" type="line"/>
			<point name="n01" x="315" y="736" type="line"/>
			<point name="n02" x="216" y="736" type="line"/>
			<point x="270" y="-52" type="line"/>
		</contour>
	</outline>
</glyph>
<glyph name="bracketright" format="2">
	<unicode hex="005D"/>
	<advance width="390"/>
	<outline>
		<contour>
			<point x="262" y="-198" type="line"/>
			<point x="475" y="722" type="line"/>
			<point name="n02" x="250" y="722" type="line"/>
			<point name="n03" x="229" y="632" type="line"/>
			<point x="334" y="632" type="line"/>
			<point x="163" y="-108" type="line"/>
			<point name="n06" x="58" y="-108" type="line"/>
			<point name="n07" x="37" y="-198" type="line"/>
		</contour>
	</outline>
</glyph>
<glyph name="asciicircum" format="2">
	<unicode hex="005E"/>
	<advance width="1000"/>
	<outline>
		<contour>
			<point name="n00" x="763" y="10" type="line"/>
			<point x="672" y="610" type="line"/>
			<point name="n02" x="610" y="610" type="line"/>
			<point name="n03" x="241" y="10" type="line"/>
			<point x="303" y="10" type="line"/>
			<point name="n05" x="626" y="546" type="line"/>
			<point x="701" y="10" type="line"/>
		</contour>
	</outline>
</glyph>
<glyph name="underscore" format="2">
	<unicode hex="005F"/>
	<advance width="500"/>
	<outline>
		<contour>
			<point name="n00" x="466" y="-149" type="line"/>
			<point name="n01" x="483" y="-74" type="line"/>
			<point x="-17" y="-74" type="line"/>
			<point x="-34" y="-149" type="line"/>
		</contour>
	</outline>
</glyph>
<glyph name="grave" format="2">
	<unicode hex="0060"/>
	<advance width="251"/>
	<outline>
		<contour>
			<point name="n00" x="335" y="600" type="line"/>
			<point name="n01" x="285" y="780" type="line"/>
			<point name="n02" x="155" y="780" type="line"/>
			<point name="n03" x="265" y="600" type="line"/>
		</contour>
	</outline>
</glyph>
<glyph name="a" format="2">
	<unicode hex="0061"/>
	<advance width="612"/>
	<outline>
		<contour>
			<point x="94" y="177" type="curve" smooth="yes"/>
			<point x="94" y="68"/>
			<point x="148" y="-14"/>
			<point x="273" y="-14" type="curve" smooth="yes"/>
			<point x="337" y="-14"/>
			<point x="393" y="31"/>
			<point x="429" y="65" type="curve"/>
			<point name="n07" x="414" y="0" type="line"/>
			<point x="549" y="0" type="line"/>
			<point name="n09" x="664" y="501" type="line"/>
			<point x="522" y="470" type="line"/>
			<point x="519" y="454" type="line"/>
			<point x="502" y="487"/>
			<point x="465" y="514"/>
			<point x="395" y="514" type="curve" smooth="yes"/>
			<point x="214" y="514"/>
			<point x="94" y="339"/>
		</contour>
		<contour>
			<point x="229" y="178" type="curve" smooth="yes"/>
			<point x="229" y="278"/>
			<point x="293" y="428"/>
			<point x="399" y="428" type="curve" smooth="yes"/>
			<point x="462" y="428"/>
			<point x="482" y="375"/>
			<point x="482" y="322" type="curve" smooth="yes"/>
			<point x="482" y="230"/>
			<point x="423" y="72"/>
			<point x="311" y="72" type="curve" smooth="yes"/>
			<point x="246" y="72"/>
			<point x="229" y="126"/>
		</contour>
	</outline>
	<anchor name="top" x="379" y="589"/>
</glyph>
<glyph name="d" format="2">
  <advance width="625"/>
  <unicode hex="0064"/>
  <anchor x="262" y="-60" name="bottom"/>
  <anchor x="749" y="723" name="dcaron"/>
  <anchor x="659" y="800" name="top"/>
  <outline>
    <contour>
      <point x="98" y="169" type="curve" smooth="yes"/>
      <point x="98" y="54"/>
      <point x="152" y="-14"/>
      <point x="277" y="-14" type="curve" smooth="yes"/>
      <point x="341" y="-14"/>
      <point x="397" y="31"/>
      <point x="433" y="65" type="curve"/>
      <point x="418" y="-1" type="line"/>
      <point x="553" y="-1" type="line"/>
      <point x="719" y="721" type="line"/>
      <point x="584" y="721" type="line"/>
      <point x="523" y="454" type="line"/>
      <point x="500" y="494"/>
      <point x="469" y="514"/>
      <point x="390" y="514" type="curve" smooth="yes"/>
      <point x="207" y="514"/>
      <point x="98" y="330"/>
    </contour>
    <contour>
      <point x="233" y="178" type="curve" smooth="yes"/>
      <point x="233" y="278"/>
      <point x="297" y="428"/>
      <point x="403" y="428" type="curve" smooth="yes"/>
      <point x="466" y="428"/>
      <point x="486" y="375"/>
      <point x="486" y="322" type="curve" smooth="yes"/>
      <point x="486" y="230"/>
      <point x="427" y="72"/>
      <point x="315" y="72" type="curve" smooth="yes"/>
      <point x="250" y="72"/>
      <point x="233" y="126"/>
    </contour>
  </outline>
</glyph>
<glyph name="e" format="2">
	<unicode hex="0065"/>
	<advance width="552"/>
	<outline>
		<contour>
			<point x="88" y="154" type="curve" smooth="yes"/>
			<point x="88" y="49"/>
			<point x="144" y="-14"/>
			<point name="n03" x="280" y="-14" type="curve" smooth="yes"/>
			<point x="408" y="-14"/>
			<point x="497" y="42"/>
			<point x="534" y="155" type="curve"/>
			<point x="398" y="155" type="line"/>
			<point x="381" y="107"/>
			<point x="345" y="72"/>
			<point name="n10" x="291" y="72" type="curve" smooth="yes"/>
			<point x="238" y="72"/>
			<point x="223" y="105"/>
			<point x="223" y="144" type="curve" smooth="yes"/>
			<point x="223" y="168"/>
			<point x="229" y="198"/>
			<point x="234" y="222" type="curve"/>
			<point x="556" y="222" type="line"/>
			<point x="566" y="260" type="line" smooth="yes"/>
			<point x="573" y="288"/>
			<point x="577" y="316"/>
			<point x="577" y="342" type="curve" smooth="yes"/>
			<point x="577" y="438"/>
			<point x="527" y="513"/>
			<point name="n24" x="401" y="513" type="curve" smooth="yes"/>
			<point x="206" y="513"/>
			<point x="88" y="333"/>
		</contour>
		<contour>
			<point x="254" y="307" type="line"/>
			<point x="269" y="374"/>
			<point x="306" y="428"/>
			<point name="n30" x="372" y="428" type="curve" smooth="yes"/>
			<point x="422" y="428"/>
			<point x="442" y="397"/>
			<point x="442" y="353" type="curve" smooth="yes"/>
			<point x="442" y="339"/>
			<point x="440" y="324"/>
			<point x="436" y="307" type="curve"/>
		</contour>
	</outline>
	<anchor name="top" x="352" y="600"/>
</glyph>
<glyph name="g" format="2">
	<unicode hex="0067"/>
	<advance width="560"/>
	<outline>
		<contour>
			<point x="191" y="266" type="curve" smooth="yes"/>
			<point x="219" y="387"/>
			<point x="277" y="448"/>
			<point name="n03" x="368" y="448" type="curve" smooth="yes"/>
			<point x="475" y="448"/>
			<point x="505" y="382"/>
			<point x="478" y="264" type="curve" smooth="yes"/>
			<point x="452" y="153"/>
			<point x="391" y="77"/>
			<point name="n09" x="288" y="77" type="curve" smooth="yes"/>
			<point x="189" y="77"/>
			<point x="167" y="162"/>
		</contour>
		<contour>
			<point x="98" y="266" type="curve" smooth="yes"/>
			<point x="62" y="110"/>
			<point x="109" y="14"/>
			<point name="n15" x="264" y="14" type="curve" smooth="yes"/>
			<point x="343" y="14"/>
			<point x="396" y="50"/>
			<point x="441" y="93" type="curve"/>
			<point x="401" y="-80"/>
			<point x="343" y="-138"/>
			<point name="n21" x="250" y="-138" type="curve" smooth="yes"/>
			<point x="186" y="-138"/>
			<point x="134" y="-105"/>
			<point name="n24" x="149" y="-40" type="curve"/>
			<point name="n25" x="55" y="-40" type="line"/>
			<point x="31" y="-144"/>
			<point x="109" y="-200"/>
			<point name="n28" x="218" y="-200" type="curve" smooth="yes"/>
			<point x="372" y="-200"/>
			<point x="483" y="-105"/>
			<point x="514" y="29" type="curve" smooth="yes"/>
			<point name="n32" x="622" y="500" type="line"/>
			<point name="hr01" x="532" y="500" type="line"/>
			<point x="520" y="444" type="line"/>
			<point x="503" y="482"/>
			<point x="447" y="512"/>
			<point name="n37" x="378" y="512" type="curve" smooth="yes"/>
			<point x="242" y="512"/>
			<point x="129" y="399"/>
		</contour>
	</outline>
</glyph>
<glyph name="k" format="2">
	<unicode hex="006B"/>
	<advance width="550"/>
	<outline>
		<contour>
			<point name="n00" x="535" y="0" type="line"/>
			<point x="405" y="284" type="line"/>
			<point name="n02" x="634" y="500" type="line"/>
			<point x="472" y="500" type="line"/>
			<point x="269" y="301" type="line"/>
			<point name="n05" x="367" y="722" type="line"/>
			<point x="232" y="722" type="line"/>
			<point x="65" y="0" type="line"/>
			<point x="200" y="0" type="line"/>
			<point x="260" y="261" type="line"/>
			<point x="371" y="0" type="line"/>
		</contour>
	</outline>
</glyph>
<glyph name="l" format="2">
	<unicode hex="006C"/>
	<advance width="264"/>
	<outline>
		<contour>
			<point name="n00" x="200" y="0" type="line"/>
			<point name="n01" x="367" y="722" type="line"/>
			<point x="232" y="722" type="line"/>
			<point name="n03" x="65" y="0" type="line"/>
		</contour>
	</outline>
</glyph>
<glyph name="m" format="2">
	<unicode hex="006D"/>
	<advance width="856"/>
	<outline>
		<contour>
			<point x="460" y="323" type="line"/>
			<point name="n01" x="385" y="0" type="line"/>
			<point x="475" y="0" type="line"/>
			<point x="550" y="323" type="line" smooth="yes"/>
			<point x="563" y="379"/>
			<point x="637" y="448"/>
			<point x="706" y="448" type="curve" smooth="yes"/>
			<point x="783" y="448"/>
			<point x="808" y="400"/>
			<point x="790" y="322" type="curve" smooth="yes"/>
			<point x="716" y="-1" type="line"/>
			<point x="806" y="-1" type="line"/>
			<point x="881" y="325" type="line" smooth="yes"/>
			<point x="910" y="450"/>
			<point x="862" y="512"/>
			<point x="739" y="512" type="curve" smooth="yes"/>
			<point x="673" y="512"/>
			<point x="613" y="482"/>
			<point x="557" y="423" type="curve"/>
			<point x="534" y="485"/>
			<point x="503" y="513"/>
			<point name="n21" x="407" y="513" type="curve" smooth="yes"/>
			<point x="348" y="513"/>
			<point x="293" y="486"/>
			<point x="240" y="431" type="curve"/>
			<point name="n25" x="255" y="500" type="line"/>
			<point x="165" y="500" type="line"/>
			<point x="50" y="0" type="line"/>
			<point x="140" y="0" type="line"/>
			<point x="215" y="323" type="line" smooth="yes"/>
			<point x="228" y="379"/>
			<point name="hr02" x="303" y="450"/>
			<point name="n32" x="377" y="450" type="curve" smooth="yes"/>
			<point x="444" y="450"/>
			<point x="474" y="391"/>
			<point x="459" y="324" type="curve"/>
		</contour>
	</outline>
</glyph>
<glyph name="n" format="2">
  <advance width="605"/>
  <unicode hex="006E"/>
  <anchor x="305" y="-60" name="bottom"/>
  <anchor x="429" y="580" name="top"/>
  <outline>
    <contour>
      <point x="73" y="0" type="line"/>
      <point x="208" y="0" type="line"/>
      <point x="272" y="279" type="line" smooth="yes"/>
      <point x="288" y="349"/>
      <point x="330" y="433"/>
      <point x="414" y="433" type="curve" smooth="yes"/>
      <point x="459" y="433"/>
      <point x="481" y="408"/>
      <point x="481" y="359" type="curve" smooth="yes"/>
      <point x="481" y="342"/>
      <point x="478" y="322"/>
      <point x="473" y="299" type="curve" smooth="yes"/>
      <point x="404" y="0" type="line"/>
      <point x="539" y="0" type="line"/>
      <point x="617" y="339" type="line" smooth="yes"/>
      <point x="622" y="359"/>
      <point x="624" y="377"/>
      <point x="624" y="394" type="curve" smooth="yes"/>
      <point x="624" y="469"/>
      <point x="579" y="514"/>
      <point x="489" y="514" type="curve" smooth="yes"/>
      <point x="409" y="514"/>
      <point x="363" y="496"/>
      <point x="308" y="433" type="curve"/>
      <point x="323" y="500" type="line"/>
      <point x="188" y="500" type="line"/>
    </contour>
  </outline>
</glyph>
<glyph name="p" format="2">
  <advance width="627"/>
  <unicode hex="0070"/>
  <anchor x="335" y="-60" name="bottom"/>
  <anchor x="450" y="580" name="top"/>
  <outline>
    <contour>
      <point x="31" y="-200" type="line"/>
      <point x="166" y="-200" type="line"/>
      <point x="222" y="46" type="line"/>
      <point x="249" y="10"/>
      <point x="307" y="-14"/>
      <point x="353" y="-14" type="curve" smooth="yes"/>
      <point x="534" y="-14"/>
      <point x="648" y="163"/>
      <point x="648" y="321" type="curve" smooth="yes"/>
      <point x="648" y="430"/>
      <point x="594" y="514"/>
      <point x="469" y="514" type="curve" smooth="yes"/>
      <point x="406" y="514"/>
      <point x="347" y="466"/>
      <point x="312" y="432" type="curve"/>
      <point x="327" y="500" type="line"/>
      <point x="192" y="500" type="line"/>
    </contour>
    <contour>
      <point x="260" y="174" type="curve" smooth="yes"/>
      <point x="260" y="267"/>
      <point x="319" y="424"/>
      <point x="431" y="424" type="curve" smooth="yes"/>
      <point x="493" y="424"/>
      <point x="515" y="376"/>
      <point x="515" y="320" type="curve" smooth="yes"/>
      <point x="515" y="225"/>
      <point x="452" y="71"/>
      <point x="343" y="71" type="curve" smooth="yes"/>
      <point x="281" y="71"/>
      <point x="260" y="120"/>
    </contour>
  </outline>
</glyph>
<glyph name="s" format="2">
  <advance width="522"/>
  <unicode hex="0073"/>
  <anchor x="259" y="-60" name="bottom"/>
  <anchor x="379" y="580" name="top"/>
  <outline>
    <contour>
      <point x="86" y="154" type="line"/>
      <point x="83" y="139"/>
      <point x="81" y="124"/>
      <point x="81" y="110" type="curve" smooth="yes"/>
      <point x="81" y="18"/>
      <point x="159" y="-14"/>
      <point x="248" y="-14" type="curve" smooth="yes"/>
      <point x="375" y="-14"/>
      <point x="519" y="53"/>
      <point x="519" y="189" type="curve" smooth="yes"/>
      <point x="519" y="270"/>
      <point x="443" y="295"/>
      <point x="373" y="309" type="curve" smooth="yes"/>
      <point x="357" y="312"/>
      <point x="278" y="332"/>
      <point x="280" y="373" type="curve" smooth="yes"/>
      <point x="282" y="422"/>
      <point x="304" y="429"/>
      <point x="339" y="429" type="curve" smooth="yes"/>
      <point x="386" y="429"/>
      <point x="421" y="417"/>
      <point x="421" y="382" type="curve" smooth="yes"/>
      <point x="421" y="376"/>
      <point x="420" y="365"/>
      <point x="418" y="354" type="curve"/>
      <point x="551" y="354" type="line"/>
      <point x="554" y="370"/>
      <point x="556" y="385"/>
      <point x="556" y="399" type="curve" smooth="yes"/>
      <point x="556" y="489"/>
      <point x="467" y="514"/>
      <point x="378" y="514" type="curve" smooth="yes"/>
      <point x="264" y="514"/>
      <point x="144" y="473"/>
      <point x="144" y="354" type="curve" smooth="yes"/>
      <point x="144" y="271"/>
      <point x="247" y="220"/>
      <point x="314" y="204" type="curve" smooth="yes"/>
      <point x="352" y="195"/>
      <point x="383" y="179"/>
      <point x="383" y="145" type="curve" smooth="yes"/>
      <point x="383" y="102"/>
      <point x="331" y="71"/>
      <point x="289" y="71" type="curve" smooth="yes"/>
      <point x="238" y="71"/>
      <point x="216" y="86"/>
      <point x="216" y="120" type="curve" smooth="yes"/>
      <point x="216" y="130"/>
      <point x="218" y="141"/>
      <point x="221" y="154" type="curve"/>
    </contour>
  </outline>
</glyph>
<glyph name="u" format="2">
	<unicode hex="0075"/>
	<advance width="533"/>
	<outline>
		<contour>
			<point name="n00" x="272" y="48" type="line"/>
			<point x="206" y="48"/>
			<point x="164" y="103"/>
			<point x="179" y="169" type="curve" smooth="yes"/>
			<point name="n04" x="255" y="500" type="line"/>
			<point x="165" y="500" type="line"/>
			<point x="89" y="171" type="line" smooth="yes"/>
			<point x="60" y="46"/>
			<point x="110" y="-13"/>
			<point name="n09" x="238" y="-13" type="curve" smooth="yes"/>
			<point x="307" y="-13"/>
			<point x="364" y="13"/>
			<point x="409" y="64" type="curve"/>
			<point name="n13" x="394" y="0" type="line"/>
			<point x="484" y="0" type="line"/>
			<point x="599" y="500" type="line"/>
			<point x="509" y="500" type="line"/>
			<point x="435" y="178" type="line" smooth="yes"/>
			<point x="418" y="103"/>
			<point name="hr02" x="347" y="48"/>
			<point x="273" y="48" type="curve"/>
		</contour>
	</outline>
</glyph>
<glyph name="v" format="2">
	<unicode hex="0076"/>
	<advance width="543"/>
	<outline>
		<contour>
			<point name="n00" x="649" y="500" type="line"/>
			<point x="505" y="500" type="line"/>
			<point x="307" y="151" type="line"/>
			<point x="269" y="500" type="line"/>
			<point x="125" y="500" type="line"/>
			<point name="n05" x="197" y="0" type="line"/>
			<point x="347" y="0" type="line"/>
		</contour>
	</outline>
</glyph>
<glyph name="w" format="2">
	<unicode hex="0077"/>
	<advance width="855"/>
	<outline>
		<contour>
			<point name="n00" x="961" y="500" type="line"/>
			<point x="822" y="500" type="line"/>
			<point x="650" y="170" type="line"/>
			<point x="621" y="500" type="line"/>
			<point x="465" y="500" type="line"/>
			<point x="284" y="170" type="line"/>
			<point name="n06" x="264" y="500" type="line"/>
			<point name="n07" x="125" y="500" type="line"/>
			<point name="n08" x="163" y="0" type="line"/>
			<point x="323" y="0" type="line"/>
			<point x="509" y="350" type="line"/>
			<point x="533" y="0" type="line"/>
			<point x="693" y="0" type="line"/>
		</contour>
	</outline>
</glyph>
<glyph name="x" format="2">
	<unicode hex="0078"/>
	<advance width="546"/>
	<outline>
		<contour>
			<point name="n00" x="537" y="0" type="line"/>
			<point x="424" y="268" type="line"/>
			<point name="n02" x="635" y="500" type="line"/>
			<point x="485" y="500" type="line"/>
			<point x="366" y="353" type="line"/>
			<point x="302" y="500" type="line"/>
			<point x="142" y="500" type="line"/>
			<point x="250" y="268" type="line"/>
			<point x="10" y="0" type="line"/>
			<point x="160" y="0" type="line"/>
			<point x="306" y="179" type="line"/>
			<point x="377" y="0" type="line"/>
		</contour>
	</outline>
</glyph>
<glyph name="y" format="2">
	<unicode hex="0079"/>
	<advance width="542"/>
	<outline>
		<contour>
			<point x="177" y="-57" type="line" smooth="yes"/>
			<point x="164" y="-79"/>
			<point x="135" y="-126"/>
			<point x="90" y="-198" type="curve"/>
			<point x="238" y="-198" type="line"/>
			<point x="374" y="36"/>
			<point x="512" y="267"/>
			<point name="n07" x="649" y="500" type="curve"/>
			<point x="506" y="500" type="line"/>
			<point x="323" y="180" type="line"/>
			<point x="279" y="500" type="line"/>
			<point x="126" y="500" type="line"/>
			<point x="211" y="0" type="line"/>
		</contour>
	</outline>
</glyph>
<glyph name="z" format="2">
  <advance width="501"/>
  <unicode hex="007A"/>
  <anchor x="248" y="-60" name="bottom"/>
  <anchor x="368" y="580" name="top"/>
  <outline>
    <contour>
      <point x="466" y="0" type="line"/>
      <point x="486" y="85" type="line"/>
      <point x="208" y="85" type="line"/>
      <point x="544" y="395" type="line"/>
      <point x="568" y="500" type="line"/>
      <point x="168" y="500" type="line"/>
      <point x="149" y="415" type="line"/>
      <point x="409" y="415" type="line"/>
      <point x="72" y="105" type="line"/>
      <point x="48" y="0" type="line"/>
    </contour>
  </outline>
</glyph>
<glyph name="braceleft" format="2">
  <advance width="510"/>
  <unicode hex="007B"/>
  <outline>
    <contour>
      <point x="118" y="216" type="line"/>
      <point x="175" y="208"/>
      <point x="219" y="163"/>
      <point x="219" y="103" type="curve" smooth="yes"/>
      <point x="219" y="90"/>
      <point x="217" y="78"/>
      <point x="214" y="65" type="curve"/>
      <point x="181" y="-57" type="line" smooth="yes"/>
      <point x="174" y="-83"/>
      <point x="171" y="-105"/>
      <point x="171" y="-123" type="curve" smooth="yes"/>
      <point x="171" y="-227"/>
      <point x="267" y="-240"/>
      <point x="379" y="-240" type="curve" smooth="yes"/>
      <point x="385" y="-240" type="line"/>
      <point x="406" y="-146" type="line"/>
      <point x="353" y="-146"/>
      <point x="306" y="-146"/>
      <point x="306" y="-96" type="curve" smooth="yes"/>
      <point x="306" y="-88"/>
      <point x="307" y="-78"/>
      <point x="310" y="-67" type="curve" smooth="yes"/>
      <point x="328" y="6" type="line" smooth="yes"/>
      <point x="339" y="49"/>
      <point x="349" y="90"/>
      <point x="349" y="127" type="curve" smooth="yes"/>
      <point x="349" y="181"/>
      <point x="329" y="227"/>
      <point x="266" y="260" type="curve"/>
      <point x="384" y="311"/>
      <point x="423" y="389"/>
      <point x="445" y="514" type="curve" smooth="yes"/>
      <point x="458" y="586" type="line"/>
      <point x="473" y="661"/>
      <point x="527" y="665"/>
      <point x="593" y="665" type="curve"/>
      <point x="614" y="759" type="line"/>
      <point x="468" y="759"/>
      <point x="357" y="737"/>
      <point x="328" y="575" type="curve"/>
      <point x="305" y="453" type="line" smooth="yes"/>
      <point x="286" y="352"/>
      <point x="232" y="314"/>
      <point x="137" y="300" type="curve"/>
    </contour>
  </outline>
</glyph>
<glyph name="bar" format="2">
	<unicode hex="007C"/>
	<advance width="344"/>
	<outline>
		<contour>
			<point x="148" y="-258" type="line"/>
			<point name="n01" x="392" y="796" type="line"/>
			<point x="321" y="796" type="line"/>
			<point name="n03" x="77" y="-258" type="line"/>
		</contour>
	</outline>
</glyph>
<glyph name="asciitilde" format="2">
  <advance width="636"/>
  <unicode hex="007E"/>
  <outline>
    <contour>
      <point x="95" y="175" type="curve"/>
      <point x="186" y="175" type="line"/>
      <point x="207" y="206"/>
      <point x="246" y="228"/>
      <point x="273" y="228" type="curve" smooth="yes"/>
      <point x="323" y="228"/>
      <point x="395" y="178"/>
      <point x="473" y="178" type="curve" smooth="yes"/>
      <point x="535" y="178"/>
      <point x="640" y="277"/>
      <point x="664" y="335" type="curve"/>
      <point x="576" y="335" type="line"/>
      <point x="562" y="309"/>
      <point x="516" y="283"/>
      <point x="489" y="283" type="curve" smooth="yes"/>
      <point x="438" y="283"/>
      <point x="364" y="333"/>
      <point x="285" y="333" type="curve" smooth="yes"/>
      <point x="223" y="333"/>
      <point x="118" y="233"/>
    </contour>
  </outline>
</glyph>
<glyph name="exclamdown" format="2">
	<unicode hex="00A1"/>
	<advance width="399"/>
	<outline>
		<contour>
			<point name="n00" x="349" y="385" type="line"/>
			<point x="375" y="500" type="line"/>
			<point x="245" y="500" type="line"/>
			<point name="n03" x="219" y="385" type="line"/>
		</contour>
		<contour>
			<point name="n04" x="224" y="-198" type="line"/>
			<point name="n05" x="315" y="309" type="line"/>
			<point x="217" y="309" type="line"/>
			<point x="74" y="-198" type="line"/>
		</contour>
	</outline>
</glyph>
<glyph name="currency" format="2">
	<unicode hex="00A4"/>
	<advance width="619"/>
	<outline>
		<contour>
			<point name="n00" x="374" y="273" type="curve" smooth="yes"/>
			<point x="289" y="273"/>
			<point x="234" y="342"/>
			<point x="254" y="427" type="curve" smooth="yes"/>
			<point x="274" y="513"/>
			<point x="359" y="582"/>
			<point name="n06" x="445" y="582" type="curve" smooth="yes"/>
			<point x="528" y="582"/>
			<point x="581" y="510"/>
			<point x="562" y="428" type="curve" smooth="yes"/>
			<point x="543" y="345"/>
			<point x="457" y="273"/>
		</contour>
		<contour>
			<point x="625" y="196" type="line"/>
			<point x="546" y="299" type="line"/>
			<point x="585" y="336"/>
			<point x="609" y="379"/>
			<point x="621" y="431" type="curve" smooth="yes"/>
			<point x="632" y="480"/>
			<point x="626" y="523"/>
			<point x="605" y="560" type="curve"/>
			<point x="733" y="664" type="line"/>
			<point x="706" y="700" type="line"/>
			<point x="575" y="594" type="line"/>
			<point x="547" y="624"/>
			<point x="509" y="639"/>
			<point name="n25" x="460" y="639" type="curve" smooth="yes"/>
			<point x="409" y="639"/>
			<point x="361" y="624"/>
			<point x="318" y="595" type="curve"/>
			<point x="238" y="700" type="line"/>
			<point x="193" y="664" type="line"/>
			<point x="274" y="559" type="line"/>
			<point x="235" y="526"/>
			<point x="211" y="482"/>
			<point x="198" y="427" type="curve" smooth="yes"/>
			<point x="187" y="379"/>
			<point x="192" y="336"/>
			<point x="212" y="299" type="curve"/>
			<point x="85" y="196" type="line"/>
			<point x="113" y="160" type="line"/>
			<point x="240" y="263" type="line"/>
			<point x="270" y="232"/>
			<point x="310" y="216"/>
			<point name="n43" x="361" y="216" type="curve" smooth="yes"/>
			<point x="410" y="216"/>
			<point x="457" y="232"/>
			<point x="501" y="263" type="curve"/>
			<point x="580" y="160" type="line"/>
		</contour>
	</outline>
</glyph>
<glyph name="yen" format="2">
	<unicode hex="00A5"/>
	<advance width="573"/>
	<outline>
		<contour>
			<point name="n00" x="739" y="722" type="line"/>
			<point x="590" y="722" type="line"/>
			<point x="384" y="419" type="line"/>
			<point x="318" y="722" type="line"/>
			<point x="169" y="722" type="line"/>
			<point x="219" y="523" type="line"/>
			<point name="n06" x="134" y="523" type="line"/>
			<point name="n07" x="119" y="457" type="line"/>
			<point x="236" y="457" type="line"/>
			<point x="266" y="338" type="line"/>
			<point name="n10" x="91" y="338" type="line"/>
			<point name="n11" x="76" y="272" type="line"/>
			<point x="283" y="272" type="line"/>
			<point name="n13" x="220" y="0" type="line"/>
			<point x="354" y="0" type="line"/>
			<point x="417" y="272" type="line"/>
			<point x="624" y="272" type="line"/>
			<point x="639" y="338" type="line"/>
			<point x="464" y="338" type="line"/>
			<point x="550" y="457" type="line"/>
			<point x="667" y="457" type="line"/>
			<point x="682" y="523" type="line"/>
			<point x="596" y="523" type="line"/>
		</contour>
	</outline>
</glyph>
<glyph name="brokenbar" format="2">
	<unicode hex="00A6"/>
	<advance width="344"/>
	<outline>
		<contour>
			<point x="276" y="336" type="line"/>
			<point name="n01" x="368" y="736" type="line"/>
			<point x="317" y="736" type="line"/>
			<point x="225" y="336" type="line"/>
		</contour>
		<contour>
			<point name="n04" x="152" y="-198" type="line"/>
			<point x="245" y="202" type="line"/>
			<point x="194" y="202" type="line"/>
			<point name="n07" x="101" y="-198" type="line"/>
		</contour>
	</outline>
</glyph>
<glyph name="section" format="2">
  <advance width="467"/>
  <unicode hex="00A7"/>
  <outline>
    <contour>
      <point x="265" y="205" type="curve"/>
      <point x="237" y="223" type="line" smooth="yes"/>
      <point x="219" y="234"/>
      <point x="191" y="257"/>
      <point x="191" y="286" type="curve" smooth="yes"/>
      <point x="191" y="354"/>
      <point x="266" y="381"/>
      <point x="324" y="391" type="curve"/>
      <point x="381" y="357" type="line" smooth="yes"/>
      <point x="394" y="349"/>
      <point x="402" y="333"/>
      <point x="402" y="320" type="curve" smooth="yes"/>
      <point x="402" y="277"/>
      <point x="354" y="234"/>
    </contour>
    <contour>
      <point x="541" y="612" type="curve"/>
      <point x="562" y="709" type="line"/>
      <point x="519" y="737"/>
      <point x="464" y="752"/>
      <point x="403" y="752" type="curve" smooth="yes"/>
      <point x="238" y="752"/>
      <point x="175" y="677"/>
      <point x="175" y="582" type="curve" smooth="yes"/>
      <point x="175" y="543"/>
      <point x="200" y="514"/>
      <point x="233" y="486" type="curve" smooth="yes"/>
      <point x="255" y="467" type="line"/>
      <point x="168" y="446"/>
      <point x="61" y="388"/>
      <point x="61" y="267" type="curve" smooth="yes"/>
      <point x="61" y="206"/>
      <point x="110" y="162"/>
      <point x="165" y="125" type="curve" smooth="yes"/>
      <point x="249" y="69" type="line" smooth="yes"/>
      <point x="293" y="39"/>
      <point x="308" y="9"/>
      <point x="308" y="-12" type="curve" smooth="yes"/>
      <point x="308" y="-65"/>
      <point x="252" y="-83"/>
      <point x="171" y="-83" type="curve" smooth="yes"/>
      <point x="129" y="-83"/>
      <point x="56" y="-68"/>
      <point x="12" y="-33" type="curve"/>
      <point x="-14" y="-159" type="line"/>
      <point x="19" y="-179"/>
      <point x="120" y="-199"/>
      <point x="177" y="-199" type="curve" smooth="yes"/>
      <point x="353" y="-199"/>
      <point x="453" y="-126"/>
      <point x="453" y="-18" type="curve" smooth="yes"/>
      <point x="453" y="42"/>
      <point x="416" y="83"/>
      <point x="375" y="113" type="curve" smooth="yes"/>
      <point x="347" y="133" type="line"/>
      <point x="435" y="172"/>
      <point x="538" y="240"/>
      <point x="538" y="342" type="curve" smooth="yes"/>
      <point x="538" y="382"/>
      <point x="517" y="433"/>
      <point x="450" y="474" type="curve" smooth="yes"/>
      <point x="374" y="520" type="line" smooth="yes"/>
      <point x="332" y="545"/>
      <point x="324" y="575"/>
      <point x="324" y="591" type="curve" smooth="yes"/>
      <point x="324" y="629"/>
      <point x="354" y="660"/>
      <point x="408" y="660" type="curve" smooth="yes"/>
      <point x="467" y="660"/>
      <point x="499" y="643"/>
    </contour>
  </outline>
</glyph>
<glyph name="dieresis" format="2">
  <advance width="319"/>
  <unicode hex="00A8"/>
  <anchor x="319" y="555" name="_top"/>
  <outline>
    <contour>
      <point x="465" y="630" type="line"/>
      <point x="493" y="750" type="line"/>
      <point x="383" y="750" type="line"/>
      <point x="355" y="630" type="line"/>
    </contour>
    <contour>
      <point x="255" y="630" type="line"/>
      <point x="283" y="750" type="line"/>
      <point x="173" y="750" type="line"/>
      <point x="145" y="630" type="line"/>
    </contour>
  </outline>
</glyph>
<glyph name="copyright" format="2">
  <advance width="867"/>
  <unicode hex="00A9"/>
  <outline>
    <contour>
      <point x="306" y="291" type="curve" smooth="yes"/>
      <point x="306" y="190"/>
      <point x="359" y="130"/>
      <point x="461" y="130" type="curve" smooth="yes"/>
      <point x="572" y="130"/>
      <point x="663" y="201"/>
      <point x="689" y="309" type="curve"/>
      <point x="572" y="309" type="line"/>
      <point x="558" y="247"/>
      <point x="536" y="207"/>
      <point x="474" y="207" type="curve" smooth="yes"/>
      <point x="421" y="207"/>
      <point x="416" y="236"/>
      <point x="416" y="272" type="curve" smooth="yes"/>
      <point x="416" y="369"/>
      <point x="453" y="509"/>
      <point x="552" y="509" type="curve" smooth="yes"/>
      <point x="589" y="509"/>
      <point x="605" y="489"/>
      <point x="605" y="448" type="curve" smooth="yes"/>
      <point x="605" y="439"/>
      <point x="604" y="428"/>
      <point x="602" y="416" type="curve"/>
      <point x="716" y="416" type="line"/>
      <point x="720" y="432"/>
      <point x="722" y="447"/>
      <point x="722" y="461" type="curve" smooth="yes"/>
      <point x="722" y="542"/>
      <point x="659" y="586"/>
      <point x="574" y="586" type="curve" smooth="yes"/>
      <point x="416" y="586"/>
      <point x="306" y="436"/>
    </contour>
    <contour>
      <point x="131" y="278" type="curve" smooth="yes"/>
      <point x="131" y="100"/>
      <point x="261" y="-14"/>
      <point x="432" y="-14" type="curve" smooth="yes"/>
      <point x="670" y="-14"/>
      <point x="902" y="208"/>
      <point x="902" y="444" type="curve" smooth="yes"/>
      <point x="902" y="621"/>
      <point x="772" y="736"/>
      <point x="600" y="736" type="curve" smooth="yes"/>
      <point x="361" y="736"/>
      <point x="131" y="514"/>
    </contour>
    <contour>
      <point x="199" y="291" type="curve" smooth="yes"/>
      <point x="199" y="484"/>
      <point x="387" y="667"/>
      <point x="583" y="667" type="curve" smooth="yes"/>
      <point x="725" y="667"/>
      <point x="830" y="570"/>
      <point x="830" y="425" type="curve" smooth="yes"/>
      <point x="830" y="232"/>
      <point x="642" y="52"/>
      <point x="446" y="52" type="curve" smooth="yes"/>
      <point x="302" y="52"/>
      <point x="199" y="149"/>
    </contour>
  </outline>
</glyph>
<glyph name="guillemotleft" format="2">
	<unicode hex="00AB"/>
	<advance width="603"/>
	<outline>
		<contour>
			<point name="n00" x="564" y="57" type="line"/>
			<point x="519" y="252" type="line"/>
			<point x="654" y="447" type="line"/>
			<point name="n03" x="524" y="447" type="line"/>
			<point name="n04" x="369" y="252" type="line"/>
			<point x="434" y="57" type="line"/>
		</contour>
		<contour>
			<point x="306" y="57" type="line"/>
			<point x="261" y="252" type="line"/>
			<point name="n08" x="396" y="447" type="line"/>
			<point x="266" y="447" type="line"/>
			<point x="111" y="252" type="line"/>
			<point x="176" y="57" type="line"/>
		</contour>
	</outline>
</glyph>
<glyph name="logicalnot" format="2">
  <advance width="686"/>
  <unicode hex="00AC"/>
  <outline>
    <contour>
      <point x="686" y="159" type="line"/>
      <point x="751" y="450" type="line"/>
      <point x="141" y="450" type="line"/>
      <point x="113" y="320" type="line"/>
      <point x="593" y="320" type="line"/>
      <point x="556" y="159" type="line"/>
    </contour>
  </outline>
</glyph>
<glyph name="uni00AD" format="2">
  <advance width="347"/>
  <unicode hex="00AD"/>
  <outline>
    <contour>
      <point x="366" y="234" type="line"/>
      <point x="392" y="364" type="line"/>
      <point x="122" y="364" type="line"/>
      <point x="96" y="234" type="line"/>
    </contour>
  </outline>
</glyph>
<glyph name="macron" format="2">
	<unicode hex="00AF"/>
	<advance width="319"/>
	<outline>
		<contour>
			<point name="n00" x="465" y="630" type="line"/>
			<point name="n01" x="484" y="709" type="line"/>
			<point x="164" y="709" type="line"/>
			<point name="n03" x="145" y="630" type="line"/>
		</contour>
	</outline>
</glyph>
<glyph name="degree" format="2">
	<unicode hex="00B0"/>
	<advance width="319"/>
	<outline>
		<contour>
			<point name="n00" x="326" y="720" type="curve" smooth="yes"/>
			<point x="265" y="720"/>
			<point x="205" y="671"/>
			<point x="191" y="610" type="curve" smooth="yes"/>
			<point x="177" y="549"/>
			<point x="214" y="500"/>
			<point name="n06" x="275" y="500" type="curve" smooth="yes"/>
			<point x="336" y="500"/>
			<point x="397" y="549"/>
			<point x="411" y="610" type="curve" smooth="yes"/>
			<point x="425" y="670"/>
			<point x="386" y="720"/>
		</contour>
		<contour>
			<point name="n12" x="285" y="540" type="curve" smooth="yes"/>
			<point x="246" y="540"/>
			<point x="222" y="572"/>
			<point name="n15" x="231" y="611" type="curve" smooth="yes"/>
			<point x="240" y="650"/>
			<point x="278" y="681"/>
			<point name="n18" x="317" y="681" type="curve" smooth="yes"/>
			<point x="356" y="681"/>
			<point x="380" y="650"/>
			<point name="n21" x="371" y="611" type="curve" smooth="yes"/>
			<point x="362" y="572"/>
			<point x="324" y="540"/>
		</contour>
	</outline>
</glyph>
<glyph name="threesuperior" format="2">
  <advance width="366"/>
  <unicode hex="00B3"/>
  <outline>
    <contour>
      <point x="346" y="540" type="line"/>
      <point x="430" y="555"/>
      <point x="472" y="591"/>
      <point x="472" y="648" type="curve" smooth="yes"/>
      <point x="472" y="707"/>
      <point x="426" y="742"/>
      <point x="348" y="742" type="curve" smooth="yes"/>
      <point x="261" y="742"/>
      <point x="194" y="699"/>
      <point x="178" y="632" type="curve"/>
      <point x="277" y="632" type="line"/>
      <point x="285" y="666"/>
      <point x="305" y="683"/>
      <point x="335" y="683" type="curve" smooth="yes"/>
      <point x="359" y="683"/>
      <point x="368" y="672"/>
      <point x="368" y="646" type="curve" smooth="yes"/>
      <point x="368" y="599"/>
      <point x="338" y="579"/>
      <point x="266" y="579" type="curve"/>
      <point x="252" y="520" type="line"/>
      <point x="312" y="520"/>
      <point x="339" y="505"/>
      <point x="339" y="470" type="curve" smooth="yes"/>
      <point x="339" y="433"/>
      <point x="308" y="401"/>
      <point x="268" y="401" type="curve" smooth="yes"/>
      <point x="245" y="401"/>
      <point x="234" y="411"/>
      <point x="234" y="433" type="curve" smooth="yes"/>
      <point x="234" y="440"/>
      <point x="235" y="448"/>
      <point x="237" y="457" type="curve"/>
      <point x="137" y="457" type="line"/>
      <point x="135" y="447"/>
      <point x="133" y="437"/>
      <point x="133" y="425" type="curve" smooth="yes"/>
      <point x="133" y="371"/>
      <point x="176" y="342"/>
      <point x="258" y="342" type="curve" smooth="yes"/>
      <point x="364" y="342"/>
      <point x="440" y="391"/>
      <point x="440" y="462" type="curve" smooth="yes"/>
      <point x="440" y="510"/>
      <point x="405" y="547"/>
      <point x="347" y="558" type="curve"/>
      <point x="353" y="549" type="line"/>
    </contour>
  </outline>
</glyph>
<glyph name="acute" format="2">
	<unicode hex="00B4"/>
	<advance width="221"/>
	<outline>
		<contour>
			<point name="n00" x="442" y="780" type="line"/>
			<point name="n01" x="312" y="780" type="line"/>
			<point name="n02" x="180" y="600" type="line"/>
			<point name="n03" x="250" y="600" type="line"/>
		</contour>
	</outline>
</glyph>
<glyph name="periodcentered" format="2">
  <advance width="283"/>
  <unicode hex="00B7"/>
  <anchor x="160" y="350" name="_dotCN"/>
  <anchor x="221" y="483" name="top"/>
  <outline>
    <contour>
      <point x="269" y="276" type="line"/>
      <point x="299" y="408" type="line"/>
      <point x="173" y="408" type="line"/>
      <point x="143" y="276" type="line"/>
    </contour>
  </outline>
</glyph>
<glyph name="cedilla" format="2">
	<unicode hex="00B8"/>
	<advance width="250"/>
	<outline>
		<contour>
			<point x="255" y="-153" type="line"/>
			<point x="271" y="-84"/>
			<point x="231" y="-50"/>
			<point name="n03" x="138" y="-51" type="curve"/>
			<point name="n04" x="150" y="-1" type="line"/>
			<point x="100" y="-1" type="line"/>
			<point x="77" y="-101" type="line"/>
			<point name="n07" x="103" y="-101" type="line" smooth="yes"/>
			<point x="120" y="-101"/>
			<point x="135" y="-106"/>
			<point x="151" y="-115" type="curve" smooth="yes"/>
			<point x="167" y="-124"/>
			<point x="173" y="-138"/>
			<point x="169" y="-156" type="curve" smooth="yes"/>
			<point x="164" y="-178"/>
			<point x="142" y="-189"/>
			<point name="n16" x="105" y="-189" type="curve" smooth="yes"/>
			<point x="75" y="-189"/>
			<point x="40" y="-185"/>
			<point x="0" y="-176" type="curve"/>
			<point name="n20" x="-13" y="-236" type="line"/>
			<point x="25" y="-242"/>
			<point x="55" y="-245"/>
			<point name="n23" x="80" y="-245" type="curve" smooth="yes"/>
			<point x="152" y="-245"/>
			<point x="238" y="-223"/>
			<point name="n26" x="254" y="-155" type="curve"/>
		</contour>
	</outline>
</glyph>
<glyph name="ordmasculine" format="2">
	<unicode hex="00BA"/>
	<advance width="418"/>
	<outline>
		<contour>
			<point x="435" y="526" type="line"/>
			<point x="418" y="454"/>
			<point x="368" y="386"/>
			<point name="n03" x="296" y="386" type="curve" smooth="yes"/>
			<point x="224" y="386"/>
			<point x="204" y="453"/>
			<point x="221" y="525" type="curve" smooth="yes"/>
			<point x="237" y="596"/>
			<point x="288" y="664"/>
			<point name="n09" x="359" y="664" type="curve" smooth="yes"/>
			<point x="430" y="664"/>
			<point x="449" y="596"/>
			<point x="433" y="525" type="curve"/>
		</contour>
		<contour>
			<point name="n13" x="442" y="242" type="line"/>
			<point name="n14" x="450" y="279" type="line"/>
			<point x="97" y="279" type="line"/>
			<point x="89" y="242" type="line"/>
		</contour>
		<contour>
			<point x="371" y="709" type="line"/>
			<point x="264" y="709"/>
			<point x="182" y="637"/>
			<point x="156" y="525" type="curve" smooth="yes"/>
			<point x="130" y="414"/>
			<point x="179" y="341"/>
			<point name="n23" x="286" y="341" type="curve" smooth="yes"/>
			<point x="393" y="341"/>
			<point x="474" y="414"/>
			<point x="500" y="526" type="curve" smooth="yes"/>
			<point x="526" y="638"/>
			<point x="478" y="710"/>
			<point name="n29" x="371" y="710" type="curve"/>
		</contour>
	</outline>
</glyph>
<glyph name="guillemotright" format="2">
	<unicode hex="00BB"/>
	<advance width="603"/>
	<outline>
		<contour>
			<point x="609" y="252" type="line"/>
			<point x="544" y="447" type="line"/>
			<point name="n02" x="414" y="447" type="line"/>
			<point x="459" y="252" type="line"/>
			<point name="n04" x="324" y="57" type="line"/>
			<point name="n05" x="454" y="57" type="line"/>
		</contour>
		<contour>
			<point name="n06" x="351" y="252" type="line"/>
			<point x="286" y="447" type="line"/>
			<point x="156" y="447" type="line"/>
			<point x="201" y="252" type="line"/>
			<point x="66" y="57" type="line"/>
			<point x="196" y="57" type="line"/>
		</contour>
	</outline>
</glyph>
<glyph name="onequarter" format="2">
  <advance width="799"/>
  <unicode hex="00BC"/>
  <outline>
    <component base="onesuperior"/>
    <contour>
      <point x="823" y="736" type="line"/>
      <point x="724" y="736" type="line"/>
      <point x="125" y="-14" type="line"/>
      <point x="224" y="-14" type="line"/>
    </contour>
    <contour>
      <point x="778" y="71" type="line"/>
      <point x="792" y="132" type="line"/>
      <point x="748" y="132" type="line"/>
      <point x="804" y="372" type="line"/>
      <point x="689" y="372" type="line"/>
      <point x="476" y="140" type="line"/>
      <point x="460" y="71" type="line"/>
      <point x="638" y="71" type="line"/>
      <point x="619" y="-14" type="line"/>
      <point x="715" y="-14" type="line"/>
      <point x="734" y="71" type="line"/>
    </contour>
    <contour>
      <point x="653" y="132" type="line"/>
      <point x="559" y="132" type="line"/>
      <point x="688" y="281" type="line"/>
    </contour>
  </outline>
</glyph>
<glyph name="threequarters" format="2">
	<unicode hex="00BE"/>
	<advance width="799"/>
	<outline>
		<contour>
			<point name="n00" x="656" y="148" type="line"/>
			<point x="535" y="148" type="line"/>
			<point x="694" y="313" type="line"/>
		</contour>
		<contour>
			<point x="376" y="547" type="line"/>
			<point x="424" y="564"/>
			<point x="463" y="585"/>
			<point x="475" y="639" type="curve" smooth="yes"/>
			<point x="491" y="708"/>
			<point x="433" y="736"/>
			<point name="n09" x="356" y="736" type="curve" smooth="yes"/>
			<point x="280" y="736"/>
			<point x="208" y="701"/>
			<point x="191" y="626" type="curve"/>
			<point x="255" y="626" type="line"/>
			<point x="268" y="659"/>
			<point x="295" y="677"/>
			<point x="339" y="680" type="curve"/>
			<point name="n17" x="342" y="680" type="line" smooth="yes"/>
			<point x="368" y="680"/>
			<point x="406" y="667"/>
			<point x="399" y="635" type="curve" smooth="yes"/>
			<point x="387" y="581"/>
			<point x="342" y="569"/>
			<point name="n23" x="285" y="569" type="curve"/>
			<point name="n24" x="273" y="516" type="line"/>
			<point x="338" y="516"/>
			<point x="383" y="505"/>
			<point x="369" y="445" type="curve" smooth="yes"/>
			<point x="363" y="421"/>
			<point x="300" y="399"/>
			<point name="n30" x="275" y="399" type="curve" smooth="yes"/>
			<point x="229" y="399"/>
			<point x="198" y="422"/>
			<point name="n33" x="203" y="461" type="curve"/>
			<point name="n34" x="137" y="461" type="line"/>
			<point x="123" y="384"/>
			<point x="177" y="340"/>
			<point name="n37" x="259" y="340" type="curve" smooth="yes"/>
			<point x="328" y="340"/>
			<point x="423" y="382"/>
			<point x="438" y="449" type="curve" smooth="yes"/>
			<point x="452" y="511"/>
			<point x="423" y="533"/>
			<point x="375" y="547" type="curve"/>
		</contour>
		<contour>
			<point x="831" y="736" type="line"/>
			<point x="762" y="736" type="line"/>
			<point name="n46" x="163" y="-14" type="line"/>
			<point x="232" y="-14" type="line"/>
		</contour>
		<contour>
			<point x="790" y="95" type="line"/>
			<point x="802" y="148" type="line"/>
			<point x="721" y="148" type="line"/>
			<point x="777" y="390" type="line"/>
			<point x="707" y="390" type="line"/>
			<point x="477" y="147" type="line"/>
			<point x="465" y="95" type="line"/>
			<point name="n55" x="645" y="95" type="line"/>
			<point x="623" y="0" type="line"/>
			<point x="687" y="0" type="line"/>
			<point x="709" y="95" type="line"/>
		</contour>
	</outline>
</glyph>
<glyph name="Aacute" format="2">
	<unicode hex="00C1"/>
	<advance width="750"/>
	<outline>
		<contour>
			<point name="n00" x="573" y="278" type="line"/>
			<point x="300" y="278" type="line"/>
			<point x="512" y="611" type="line"/>
		</contour>
		<contour>
			<point name="n03" x="735" y="0" type="line"/>
			<point name="n04" x="595" y="722" type="line"/>
			<point x="485" y="722" type="line"/>
			<point x="15" y="0" type="line"/>
			<point x="118" y="0" type="line"/>
			<point x="242" y="193" type="line"/>
			<point name="n09" x="596" y="193" type="line"/>
			<point x="629" y="0" type="line"/>
		</contour>
		<contour>
			<point x="764" y="992" type="line"/>
			<point x="663" y="992" type="line"/>
			<point x="524" y="821" type="line"/>
			<point x="585" y="821" type="line"/>
		</contour>
	</outline>
</glyph>
<glyph name="Aring" format="2">
	<unicode hex="00C5"/>
	<advance width="750"/>
	<outline>
		<contour>
			<point name="n00" x="572" y="278" type="line"/>
			<point x="299" y="278" type="line"/>
			<point x="511" y="611" type="line"/>
		</contour>
		<contour>
			<point name="n03" x="565" y="860" type="curve" smooth="yes"/>
			<point x="526" y="860"/>
			<point x="501" y="890"/>
			<point x="510" y="929" type="curve" smooth="yes"/>
			<point x="519" y="968"/>
			<point x="558" y="999"/>
			<point name="n09" x="597" y="999" type="curve" smooth="yes"/>
			<point x="636" y="999"/>
			<point x="658" y="968"/>
			<point x="649" y="929" type="curve" smooth="yes"/>
			<point x="640" y="890"/>
			<point x="604" y="860"/>
		</contour>
		<contour>
			<point name="n15" x="735" y="0" type="line"/>
			<point name="n16" x="595" y="722" type="line"/>
			<point x="485" y="722" type="line"/>
			<point x="15" y="0" type="line"/>
			<point x="118" y="0" type="line"/>
			<point x="242" y="193" type="line"/>
			<point name="n21" x="596" y="193" type="line"/>
			<point x="629" y="0" type="line"/>
		</contour>
		<contour>
			<point name="n23" x="606" y="1040" type="curve" smooth="yes"/>
			<point x="545" y="1040"/>
			<point x="485" y="991"/>
			<point x="471" y="930" type="curve" smooth="yes"/>
			<point x="457" y="869"/>
			<point x="494" y="820"/>
			<point name="n29" x="555" y="820" type="curve" smooth="yes"/>
			<point x="615" y="820"/>
			<point x="677" y="870"/>
			<point x="691" y="930" type="curve" smooth="yes"/>
			<point x="705" y="991"/>
			<point x="667" y="1040"/>
		</contour>
	</outline>
</glyph>
<glyph name="AE" format="2">
  <advance width="1001"/>
  <unicode hex="00C6"/>
  <anchor x="727" y="800" name="top"/>
  <outline>
    <contour>
      <point x="947" y="0" type="line"/>
      <point x="972" y="114" type="line"/>
      <point x="630" y="114" type="line"/>
      <point x="678" y="316" type="line"/>
      <point x="990" y="316" type="line"/>
      <point x="1016" y="430" type="line"/>
      <point x="704" y="430" type="line"/>
      <point x="748" y="618" type="line"/>
      <point x="1080" y="618" type="line"/>
      <point x="1104" y="722" type="line"/>
      <point x="568" y="722" type="line"/>
      <point x="10" y="0" type="line"/>
      <point x="153" y="0" type="line"/>
      <point x="284" y="172" type="line"/>
      <point x="500" y="172" type="line"/>
      <point x="460" y="0" type="line"/>
    </contour>
    <contour>
      <point x="535" y="286" type="line"/>
      <point x="370" y="286" type="line"/>
      <point x="607" y="596" type="line"/>
    </contour>
  </outline>
</glyph>
<glyph name="Edieresis" format="2">
	<unicode hex="00CB"/>
	<advance width="606"/>
	<outline>
		<contour>
			<point name="n00" x="537" y="0" type="line"/>
			<point name="n01" x="557" y="87" type="line"/>
			<point x="201" y="87" type="line"/>
			<point name="n03" x="256" y="326" type="line"/>
			<point x="592" y="326" type="line"/>
			<point x="612" y="413" type="line"/>
			<point name="n06" x="276" y="413" type="line"/>
			<point x="328" y="635" type="line"/>
			<point name="n08" x="674" y="635" type="line"/>
			<point name="n09" x="694" y="722" type="line"/>
			<point x="247" y="722" type="line"/>
			<point x="80" y="0" type="line"/>
		</contour>
		<contour>
			<point name="n12" x="444" y="851" type="line"/>
			<point name="n13" x="466" y="943" type="line"/>
			<point x="376" y="943" type="line"/>
			<point x="354" y="851" type="line"/>
		</contour>
		<contour>
			<point x="644" y="851" type="line"/>
			<point x="666" y="943" type="line"/>
			<point x="576" y="943" type="line"/>
			<point x="554" y="851" type="line"/>
		</contour>
	</outline>
</glyph>
<glyph name="Iacute" format="2">
	<unicode hex="00CD"/>
	<advance width="264"/>
	<outline>
		<contour>
			<point name="n00" x="530" y="1000" type="line"/>
			<point name="n01" x="400" y="1000" type="line"/>
			<point x="267" y="820" type="line"/>
			<point x="337" y="820" type="line"/>
		</contour>
		<contour>
			<point x="215" y="0" type="line"/>
			<point x="382" y="722" type="line"/>
			<point x="232" y="722" type="line"/>
			<point x="65" y="0" type="line"/>
		</contour>
	</outline>
</glyph>
<glyph name="Idieresis" format="2">
	<unicode hex="00CF"/>
	<advance width="289"/>
	<outline>
		<contour>
			<point name="n00" x="502" y="852" type="line"/>
			<point name="n01" x="529" y="972" type="line"/>
			<point x="419" y="972" type="line"/>
			<point x="392" y="852" type="line"/>
		</contour>
		<contour>
			<point name="n04" x="292" y="852" type="line"/>
			<point name="n05" x="319" y="972" type="line"/>
			<point x="209" y="972" type="line"/>
			<point x="182" y="852" type="line"/>
		</contour>
		<contour>
			<point x="220" y="0" type="line"/>
			<point x="387" y="722" type="line"/>
			<point x="237" y="722" type="line"/>
			<point x="70" y="0" type="line"/>
		</contour>
	</outline>
</glyph>
<glyph name="Oacute" format="2">
	<unicode hex="00D3"/>
	<advance width="773"/>
	<outline>
		<contour>
			<point x="696" y="374" type="line"/>
			<point x="657" y="206"/>
			<point x="572" y="73"/>
			<point name="n03" x="403" y="73" type="curve" smooth="yes"/>
			<point x="239" y="73"/>
			<point x="209" y="204"/>
			<point x="248" y="375" type="curve" smooth="yes"/>
			<point x="290" y="558"/>
			<point x="386" y="649"/>
			<point name="n09" x="536" y="649" type="curve" smooth="yes"/>
			<point x="702" y="649"/>
			<point x="734" y="540"/>
			<point x="696" y="375" type="curve"/>
		</contour>
		<contour>
			<point x="801" y="375" type="line"/>
			<point x="850" y="588"/>
			<point x="773" y="735"/>
			<point name="n16" x="558" y="735" type="curve" smooth="yes"/>
			<point x="342" y="735"/>
			<point x="195" y="588"/>
			<point x="146" y="375" type="curve" smooth="yes"/>
			<point x="102" y="184"/>
			<point x="148" y="-14"/>
			<point name="n22" x="383" y="-14" type="curve" smooth="yes"/>
			<point x="586" y="-14"/>
			<point x="746" y="143"/>
			<point x="799" y="374" type="curve"/>
		</contour>
		<contour>
			<point x="757" y="992" type="line"/>
			<point x="656" y="992" type="line"/>
			<point x="517" y="821" type="line"/>
			<point x="578" y="821" type="line"/>
		</contour>
	</outline>
</glyph>
<glyph name="multiply" format="2">
	<unicode hex="00D7"/>
	<advance width="1000"/>
	<outline>
		<contour>
			<point x="786" y="69" type="line"/>
			<point x="609" y="300" type="line"/>
			<point name="n02" x="893" y="531" type="line"/>
			<point x="863" y="570" type="line"/>
			<point x="578" y="338" type="line"/>
			<point name="n05" x="401" y="570" type="line"/>
			<point x="353" y="531" type="line"/>
			<point x="529" y="300" type="line"/>
			<point name="n08" x="246" y="69" type="line"/>
			<point name="n09" x="276" y="30" type="line"/>
			<point x="560" y="262" type="line"/>
			<point x="738" y="30" type="line"/>
		</contour>
	</outline>
</glyph>
<glyph name="Yacute" format="2">
	<unicode hex="00DD"/>
	<advance width="665"/>
	<outline>
		<contour>
			<point name="n00" x="818" y="722" type="line"/>
			<point x="704" y="722" type="line"/>
			<point x="426" y="375" type="line"/>
			<point x="305" y="722" type="line"/>
			<point x="182" y="722" type="line"/>
			<point x="348" y="287" type="line"/>
			<point name="n06" x="282" y="0" type="line"/>
			<point x="383" y="0" type="line"/>
			<point x="449" y="287" type="line"/>
		</contour>
		<contour>
			<point x="714" y="993" type="line"/>
			<point x="612" y="993" type="line"/>
			<point x="474" y="822" type="line"/>
			<point x="535" y="822" type="line"/>
		</contour>
	</outline>
</glyph>
<glyph name="Thorn" format="2">
  <advance width="655"/>
  <unicode hex="00DE"/>
  <outline>
    <contour>
      <point x="57" y="0" type="line"/>
      <point x="207" y="0" type="line"/>
      <point x="245" y="163" type="line"/>
      <point x="345" y="163" type="line" smooth="yes"/>
      <point x="520" y="163"/>
      <point x="681" y="246"/>
      <point x="681" y="439" type="curve" smooth="yes"/>
      <point x="681" y="554"/>
      <point x="586" y="601"/>
      <point x="446" y="601" type="curve" smooth="yes"/>
      <point x="346" y="601" type="line"/>
      <point x="374" y="722" type="line"/>
      <point x="224" y="722" type="line"/>
    </contour>
    <contour>
      <point x="271" y="278" type="line"/>
      <point x="319" y="486" type="line"/>
      <point x="419" y="486" type="line" smooth="yes"/>
      <point x="491" y="486"/>
      <point x="530" y="467"/>
      <point x="530" y="414" type="curve" smooth="yes"/>
      <point x="530" y="317"/>
      <point x="462" y="278"/>
      <point x="371" y="278" type="curve" smooth="yes"/>
    </contour>
  </outline>
</glyph>
<glyph name="igrave" format="2">
	<unicode hex="00EC"/>
	<advance width="264"/>
	<outline>
		<contour>
			<point name="n00" x="334" y="600" type="line"/>
			<point name="n01" x="284" y="780" type="line"/>
			<point x="154" y="780" type="line"/>
			<point name="n03" x="264" y="600" type="line"/>
		</contour>
		<contour>
			<point name="n04" x="200" y="0" type="line"/>
			<point x="315" y="500" type="line"/>
			<point x="180" y="500" type="line"/>
			<point x="65" y="0" type="line"/>
		</contour>
	</outline>
</glyph>
<glyph name="iacute" format="2">
	<unicode hex="00ED"/>
	<advance width="229"/>
	<outline>
		<contour>
			<point name="n00" x="452" y="780" type="line"/>
			<point name="n01" x="322" y="780" type="line"/>
			<point x="190" y="600" type="line"/>
			<point x="260" y="600" type="line"/>
		</contour>
		<contour>
			<point x="200" y="0" type="line"/>
			<point x="315" y="500" type="line"/>
			<point x="180" y="500" type="line"/>
			<point x="65" y="0" type="line"/>
		</contour>
	</outline>
</glyph>
<glyph name="idieresis" format="2">
	<unicode hex="00EF"/>
	<advance width="264"/>
	<outline>
		<contour>
			<point name="n00" x="437" y="630" type="line"/>
			<point name="n01" x="465" y="750" type="line"/>
			<point x="355" y="750" type="line"/>
			<point x="327" y="630" type="line"/>
		</contour>
		<contour>
			<point x="227" y="630" type="line"/>
			<point x="255" y="750" type="line"/>
			<point name="n06" x="145" y="750" type="line"/>
			<point name="n07" x="117" y="630" type="line"/>
		</contour>
		<contour>
			<point x="200" y="0" type="line"/>
			<point x="315" y="500" type="line"/>
			<point x="180" y="500" type="line"/>
			<point x="65" y="0" type="line"/>
		</contour>
	</outline>
</glyph>
<glyph name="eth" format="2">
	<unicode hex="00F0"/>
	<advance width="587"/>
	<outline>
		<contour>
			<point name="n00" x="291" y="-13" type="line"/>
			<point x="442" y="-13"/>
			<point x="558" y="85"/>
			<point x="596" y="250" type="curve" smooth="yes"/>
			<point x="642" y="448"/>
			<point x="541" y="577"/>
			<point x="465" y="627" type="curve"/>
			<point x="615" y="690" type="line"/>
			<point x="604" y="732" type="line"/>
			<point x="425" y="659" type="line"/>
			<point name="n10" x="308" y="734" type="line"/>
			<point x="252" y="705" type="line"/>
			<point x="351" y="628" type="line"/>
			<point x="198" y="566" type="line"/>
			<point x="207" y="523" type="line"/>
			<point x="395" y="598" type="line"/>
			<point x="410" y="585" type="line" smooth="yes"/>
			<point x="427" y="571"/>
			<point x="458" y="538"/>
			<point x="458" y="512" type="curve"/>
			<point x="450" y="512"/>
			<point x="419" y="513"/>
			<point name="n22" x="410" y="513" type="curve"/>
			<point x="238" y="511"/>
			<point x="142" y="406"/>
			<point x="106" y="250" type="curve" smooth="yes"/>
			<point x="69" y="90"/>
			<point x="129" y="-13"/>
			<point x="289" y="-13" type="curve"/>
		</contour>
		<contour>
			<point x="198" y="250" type="curve" smooth="yes"/>
			<point x="222" y="352"/>
			<point x="297" y="445"/>
			<point name="n32" x="395" y="445" type="curve" smooth="yes"/>
			<point x="497" y="445"/>
			<point x="528" y="361"/>
			<point x="503" y="254" type="curve" smooth="yes"/>
			<point x="482" y="164"/>
			<point x="421" y="56"/>
			<point name="n38" x="305" y="56" type="curve" smooth="yes"/>
			<point x="200" y="56"/>
			<point x="173" y="143"/>
		</contour>
	</outline>
</glyph>
<glyph name="ntilde" format="2">
	<unicode hex="00F1"/>
	<advance width="573"/>
	<outline>
		<contour>
			<point name="n00" x="399" y="453" type="line"/>
			<point x="466" y="453"/>
			<point x="508" y="398"/>
			<point x="493" y="331" type="curve" smooth="yes"/>
			<point name="n04" x="417" y="0" type="line"/>
			<point x="506" y="0" type="line"/>
			<point x="582" y="329" type="line" smooth="yes"/>
			<point x="610" y="452"/>
			<point x="560" y="513"/>
			<point name="n09" x="432" y="513" type="curve" smooth="yes"/>
			<point x="332" y="513"/>
			<point x="308" y="473"/>
			<point x="262" y="436" type="curve"/>
			<point name="n13" x="276" y="500" type="line"/>
			<point x="186" y="500" type="line"/>
			<point x="71" y="0" type="line"/>
			<point x="161" y="0" type="line"/>
			<point x="236" y="323" type="line" smooth="yes"/>
			<point x="253" y="398"/>
			<point name="hr02" x="324" y="453"/>
			<point x="398" y="453" type="curve"/>
		</contour>
		<contour>
			<point x="287" y="620" type="curve"/>
			<point x="340" y="620" type="line"/>
			<point x="353" y="647"/>
			<point x="368" y="661"/>
			<point name="n25" x="382" y="661" type="curve" smooth="yes"/>
			<point x="388" y="661"/>
			<point name="hr03" x="453" y="625"/>
			<point name="n28" x="491" y="625" type="curve" smooth="yes"/>
			<point x="540" y="625"/>
			<point x="583" y="673"/>
			<point x="599" y="723" type="curve"/>
			<point x="544" y="723" type="line"/>
			<point x="531" y="696"/>
			<point x="517" y="682"/>
			<point name="n35" x="503" y="682" type="curve" smooth="yes"/>
			<point x="497" y="682"/>
			<point name="hr04" x="432" y="718"/>
			<point name="n38" x="393" y="718" type="curve" smooth="yes"/>
			<point x="345" y="718"/>
			<point x="302" y="669"/>
		</contour>
	</outline>
</glyph>
<glyph name="yacute" format="2">
	<unicode hex="00FD"/>
	<advance width="534"/>
	<outline>
		<contour>
			<point name="n00" x="635" y="500" type="line"/>
			<point x="538" y="500" type="line"/>
			<point x="305" y="123" type="line"/>
			<point x="235" y="500" type="line"/>
			<point x="130" y="500" type="line"/>
			<point x="229" y="0" type="line"/>
			<point x="196" y="-52" type="line" smooth="yes"/>
			<point x="177" y="-82"/>
			<point x="157" y="-121"/>
			<point name="n09" x="128" y="-121" type="curve" smooth="yes"/>
			<point x="104" y="-121"/>
			<point x="85" y="-91"/>
			<point x="80" y="-72" type="curve"/>
			<point x="1" y="-109" type="line"/>
			<point x="14" y="-170"/>
			<point x="51" y="-200"/>
			<point name="n16" x="112" y="-200" type="curve" smooth="yes"/>
			<point x="181" y="-200"/>
			<point x="219" y="-162"/>
			<point x="255" y="-106" type="curve" smooth="yes"/>
		</contour>
		<contour>
			<point x="603" y="771" type="line"/>
			<point x="502" y="771" type="line"/>
			<point x="363" y="600" type="line"/>
			<point x="424" y="600" type="line"/>
		</contour>
	</outline>
</glyph>
<glyph name="aogonek" format="2">
	<unicode hex="0105"/>
	<advance width="535"/>
	<outline>
		<contour>
			<point name="n00" x="374" y="-226" type="curve" smooth="yes"/>
			<point x="386" y="-226"/>
			<point x="410" y="-225"/>
			<point x="446" y="-222" type="curve"/>
			<point x="462" y="-152" type="line"/>
			<point name="n05" x="421" y="-156" type="line"/>
			<point x="388" y="-156"/>
			<point x="375" y="-145"/>
			<point x="380" y="-122" type="curve" smooth="yes"/>
			<point x="392" y="-72"/>
			<point x="435" y="-24"/>
			<point name="n11" x="457" y="-6" type="curve"/>
			<point x="417" y="-6" type="line"/>
			<point x="393" y="-25" type="line"/>
			<point x="364" y="-45"/>
			<point x="315" y="-98"/>
			<point x="305" y="-141" type="curve" smooth="yes"/>
			<point x="292" y="-196"/>
			<point x="319" y="-226"/>
		</contour>
		<contour>
			<point x="177" y="144" type="line"/>
			<point x="197" y="229"/>
			<point x="315" y="249"/>
			<point name="n22" x="395" y="249" type="curve"/>
			<point x="396" y="249"/>
			<point x="413" y="248"/>
			<point x="446" y="246" type="curve"/>
			<point x="418" y="126"/>
			<point x="372" y="55"/>
			<point name="n28" x="256" y="55" type="curve" smooth="yes"/>
			<point x="202" y="55"/>
			<point x="165" y="91"/>
			<point x="177" y="145" type="curve"/>
		</contour>
		<contour>
			<point x="385" y="447" type="line"/>
			<point x="454" y="447"/>
			<point x="489" y="412"/>
			<point x="475" y="350" type="curve"/>
			<point x="472" y="339"/>
			<point x="468" y="327"/>
			<point x="462" y="314" type="curve"/>
			<point x="448" y="314"/>
			<point x="408" y="316"/>
			<point name="n41" x="394" y="316" type="curve" smooth="yes"/>
			<point x="266" y="316"/>
			<point x="114" y="281"/>
			<point x="80" y="132" type="curve" smooth="yes"/>
			<point x="59" y="40"/>
			<point x="146" y="-13"/>
			<point name="n47" x="238" y="-13" type="curve" smooth="yes"/>
			<point x="316" y="-13"/>
			<point x="360" y="25"/>
			<point x="412" y="73" type="curve"/>
			<point x="409" y="62"/>
			<point x="408" y="38"/>
			<point name="n53" x="406" y="0" type="curve"/>
			<point name="n54" x="496" y="0" type="line"/>
			<point x="493" y="25"/>
			<point x="503" y="86"/>
			<point x="525" y="183" type="curve" smooth="yes"/>
			<point x="550" y="290" type="line" smooth="yes"/>
			<point x="568" y="366"/>
			<point x="574" y="412"/>
			<point x="571" y="429" type="curve" smooth="yes"/>
			<point x="561" y="486"/>
			<point x="504" y="514"/>
			<point name="n64" x="398" y="514" type="curve" smooth="yes"/>
			<point x="264" y="514"/>
			<point x="184" y="463"/>
			<point name="n67" x="162" y="366" type="curve"/>
			<point name="n68" x="255" y="366" type="line"/>
			<point x="268" y="424"/>
			<point x="328" y="447"/>
			<point name="n71" x="386" y="447" type="curve"/>
		</contour>
	</outline>
</glyph>
<glyph name="Ccircumflex" format="2">
	<unicode hex="0108"/>
	<advance width="660"/>
	<outline>
		<contour>
			<point x="627" y="529" type="curve"/>
			<point x="728" y="529" type="line"/>
			<point x="760" y="668"/>
			<point x="670" y="736"/>
			<point name="n04" x="519" y="736" type="curve" smooth="yes"/>
			<point x="302" y="736"/>
			<point x="182" y="572"/>
			<point x="132" y="357" type="curve" smooth="yes"/>
			<point x="83" y="143"/>
			<point x="129" y="-14"/>
			<point name="n10" x="344" y="-14" type="curve" smooth="yes"/>
			<point x="488" y="-14"/>
			<point x="624" y="58"/>
			<point x="655" y="193" type="curve"/>
			<point x="554" y="193" type="line"/>
			<point x="535" y="109"/>
			<point x="469" y="67"/>
			<point name="n17" x="361" y="67" type="curve" smooth="yes"/>
			<point x="208" y="67"/>
			<point x="194" y="183"/>
			<point x="234" y="356" type="curve" smooth="yes"/>
			<point x="280" y="557"/>
			<point x="370" y="657"/>
			<point name="n23" x="502" y="657" type="curve" smooth="yes"/>
			<point x="602" y="657"/>
			<point x="649" y="623"/>
		</contour>
		<contour>
			<point x="678" y="796" type="line"/>
			<point x="627" y="966" type="line"/>
			<point x="517" y="966" type="line"/>
			<point x="388" y="796" type="line"/>
			<point x="448" y="796" type="line"/>
			<point x="558" y="906" type="line"/>
			<point x="618" y="796" type="line"/>
		</contour>
	</outline>
</glyph>
<glyph name="ccircumflex" format="2">
	<unicode hex="0109"/>
	<advance width="501"/>
	<outline>
		<contour>
			<point name="n00" x="543" y="341" type="line"/>
			<point x="561" y="453"/>
			<point x="497" y="512"/>
			<point name="n03" x="386" y="512" type="curve" smooth="yes"/>
			<point x="237" y="512"/>
			<point x="132" y="399"/>
			<point x="96" y="244" type="curve" smooth="yes"/>
			<point x="58" y="79"/>
			<point x="118" y="-14"/>
			<point name="n09" x="262" y="-14" type="curve" smooth="yes"/>
			<point x="377" y="-14"/>
			<point x="476" y="58"/>
			<point name="n12" x="507" y="167" type="curve"/>
			<point name="n13" x="412" y="167" type="line"/>
			<point x="393" y="95"/>
			<point x="341" y="50"/>
			<point name="n16" x="276" y="50" type="curve" smooth="yes"/>
			<point x="190" y="50"/>
			<point x="162" y="118"/>
			<point x="194" y="255" type="curve" smooth="yes"/>
			<point x="214" y="342"/>
			<point x="262" y="447"/>
			<point name="n22" x="372" y="447" type="curve" smooth="yes"/>
			<point x="432" y="447"/>
			<point x="457" y="402"/>
			<point name="n25" x="448" y="341" type="curve"/>
		</contour>
		<contour>
			<point x="529" y="573" type="line"/>
			<point x="479" y="743" type="line"/>
			<point x="369" y="743" type="line"/>
			<point x="239" y="573" type="line"/>
			<point x="299" y="573" type="line"/>
			<point x="410" y="683" type="line"/>
			<point x="469" y="573" type="line"/>
		</contour>
	</outline>
</glyph>
<glyph name="Ebreve" format="2">
	<unicode hex="0114"/>
	<advance width="577"/>
	<outline>
		<contour>
			<point name="n00" x="515" y="0" type="line"/>
			<point name="n01" x="535" y="87" type="line"/>
			<point x="179" y="87" type="line"/>
			<point name="n03" x="234" y="326" type="line"/>
			<point x="570" y="326" type="line"/>
			<point x="590" y="413" type="line"/>
			<point name="n06" x="254" y="413" type="line"/>
			<point x="306" y="635" type="line"/>
			<point name="n08" x="652" y="635" type="line"/>
			<point name="n09" x="672" y="722" type="line"/>
			<point x="225" y="722" type="line"/>
			<point x="58" y="0" type="line"/>
		</contour>
		<contour>
			<point name="n12" x="480" y="859" type="curve" smooth="yes"/>
			<point x="443" y="859"/>
			<point x="405" y="883"/>
			<point name="n15" x="405" y="913" type="curve"/>
			<point name="n16" x="353" y="913" type="line"/>
			<point x="346" y="849"/>
			<point x="393" y="796"/>
			<point name="n19" x="466" y="796" type="curve" smooth="yes"/>
			<point x="540" y="796"/>
			<point x="610" y="850"/>
			<point x="634" y="913" type="curve"/>
			<point x="582" y="913" type="line"/>
			<point x="568" y="882"/>
			<point x="518" y="859"/>
		</contour>
	</outline>
</glyph>
<glyph name="hbar" format="2">
  <advance width="583"/>
  <unicode hex="0127"/>
  <outline>
    <component base="h"/>
    <contour>
      <point x="102.388" y="557" type="line"/>
      <point x="478.768" y="557" type="line"/>
      <point x="490.582" y="651" type="line"/>
      <point x="114.203" y="651" type="line"/>
    </contour>
  </outline>
</glyph>
<glyph name="imacron" format="2">
	<unicode hex="012B"/>
	<advance width="264"/>
	<outline>
		<contour>
			<point name="n00" x="424" y="573" type="line"/>
			<point name="n01" x="443" y="652" type="line"/>
			<point x="123" y="652" type="line"/>
			<point name="n03" x="104" y="573" type="line"/>
		</contour>
		<contour>
			<point name="n04" x="200" y="0" type="line"/>
			<point name="n05" x="315" y="500" type="line"/>
			<point x="180" y="500" type="line"/>
			<point x="65" y="0" type="line"/>
		</contour>
	</outline>
</glyph>
<glyph name="Idotaccent" format="2">
	<unicode hex="0130"/>
	<advance width="289"/>
	<outline>
		<contour>
			<point name="n00" x="389" y="795" type="line"/>
			<point name="n01" x="419" y="925" type="line"/>
			<point x="299" y="925" type="line"/>
			<point name="n03" x="269" y="795" type="line"/>
		</contour>
		<contour>
			<point name="n04" x="220" y="0" type="line"/>
			<point name="n05" x="387" y="722" type="line"/>
			<point x="237" y="722" type="line"/>
			<point x="70" y="0" type="line"/>
		</contour>
	</outline>
</glyph>
<glyph name="dotlessi" format="2">
	<unicode hex="0131"/>
	<advance width="264"/>
	<outline>
		<contour>
			<point name="n00" x="200" y="0" type="line"/>
			<point name="n01" x="315" y="500" type="line"/>
			<point x="180" y="500" type="line"/>
			<point name="n03" x="65" y="0" type="line"/>
		</contour>
	</outline>
</glyph>
<glyph name="lacute" format="2">
	<unicode hex="013A"/>
	<advance width="264"/>
	<outline>
		<contour>
			<point name="n00" x="540" y="962" type="line"/>
			<point name="n01" x="410" y="962" type="line"/>
			<point x="278" y="782" type="line"/>
			<point x="348" y="782" type="line"/>
		</contour>
		<contour>
			<point x="200" y="0" type="line"/>
			<point x="367" y="722" type="line"/>
			<point x="232" y="722" type="line"/>
			<point x="65" y="0" type="line"/>
		</contour>
	</outline>
</glyph>
<glyph name="lcaron" format="2">
	<unicode hex="013E"/>
	<advance width="264"/>
	<outline>
		<contour>
			<point name="n00" x="835" y="1444" type="line"/>
			<point name="n01" x="685" y="1444" type="line"/>
			<point x="644" y="1154" type="line"/>
			<point x="742" y="1154" type="line"/>
		</contour>
		<contour>
			<point x="200" y="0" type="line"/>
			<point x="367" y="722" type="line"/>
			<point x="232" y="722" type="line"/>
			<point x="65" y="0" type="line"/>
		</contour>
	</outline>
</glyph>
<glyph name="ldot" format="2">
	<unicode hex="0140"/>
	<advance width="547"/>
	<outline>
		<contour>
			<point name="n00" x="533" y="276" type="line"/>
			<point name="n01" x="563" y="408" type="line"/>
			<point x="437" y="408" type="line"/>
			<point x="407" y="276" type="line"/>
		</contour>
		<contour>
			<point name="n04" x="200" y="0" type="line"/>
			<point name="n05" x="367" y="722" type="line"/>
			<point x="232" y="722" type="line"/>
			<point x="65" y="0" type="line"/>
		</contour>
	</outline>
</glyph>
<glyph name="Lslash" format="2">
  <advance width="646"/>
  <unicode hex="0141"/>
  <outline>
    <contour>
      <point x="592" y="0" type="line"/>
      <point x="619" y="115" type="line"/>
      <point x="293" y="115" type="line"/>
      <point x="359" y="402" type="line"/>
      <point x="497" y="514" type="line"/>
      <point x="525" y="636" type="line"/>
      <point x="387" y="524" type="line"/>
      <point x="433" y="722" type="line"/>
      <point x="283" y="722" type="line"/>
      <point x="203" y="376" type="line"/>
      <point x="85" y="281" type="line"/>
      <point x="57" y="159" type="line"/>
      <point x="175" y="254" type="line"/>
      <point x="116" y="0" type="line"/>
    </contour>
  </outline>
</glyph>
<glyph name="lslash" format="2">
  <advance width="358"/>
  <unicode hex="0142"/>
  <outline>
    <contour>
      <point x="446" y="465" type="line"/>
      <point x="475" y="587" type="line"/>
      <point x="362" y="496" type="line"/>
      <point x="414" y="722" type="line"/>
      <point x="279" y="722" type="line"/>
      <point x="205" y="403" type="line"/>
      <point x="92" y="312" type="line"/>
      <point x="65" y="193" type="line"/>
      <point x="177" y="283" type="line"/>
      <point x="112" y="0" type="line"/>
      <point x="247" y="0" type="line"/>
      <point x="334" y="375" type="line"/>
    </contour>
  </outline>
</glyph>
<glyph name="Omacron" format="2">
	<unicode hex="014C"/>
	<advance width="754"/>
	<outline>
		<contour>
			<point x="688" y="375" type="curve" smooth="yes"/>
			<point x="649" y="207"/>
			<point x="563" y="74"/>
			<point name="n03" x="395" y="74" type="curve" smooth="yes"/>
			<point x="227" y="74"/>
			<point x="201" y="208"/>
			<point x="240" y="375" type="curve" smooth="yes"/>
			<point x="282" y="558"/>
			<point x="378" y="649"/>
			<point name="n09" x="528" y="649" type="curve" smooth="yes"/>
			<point x="694" y="649"/>
			<point x="726" y="540"/>
		</contour>
		<contour>
			<point x="791" y="375" type="curve" smooth="yes"/>
			<point x="840" y="589"/>
			<point x="762" y="736"/>
			<point name="n15" x="548" y="736" type="curve" smooth="yes"/>
			<point x="333" y="736"/>
			<point x="186" y="589"/>
			<point x="137" y="375" type="curve" smooth="yes"/>
			<point x="87" y="158"/>
			<point x="157" y="-14"/>
			<point name="n21" x="375" y="-14" type="curve" smooth="yes"/>
			<point x="592" y="-14"/>
			<point x="741" y="157"/>
		</contour>
		<contour>
			<point name="n24" x="693" y="796" type="line"/>
			<point name="n25" x="709" y="865" type="line"/>
			<point x="447" y="865" type="line"/>
			<point x="431" y="796" type="line"/>
		</contour>
	</outline>
</glyph>
<glyph name="ohungarumlaut" format="2">
	<unicode hex="0151"/>
	<advance width="572"/>
	<outline>
		<contour>
			<point x="494" y="248" type="curve" smooth="yes"/>
			<point x="471" y="148"/>
			<point x="398" y="51"/>
			<point name="n03" x="297" y="51" type="curve" smooth="yes"/>
			<point x="196" y="51"/>
			<point x="167" y="148"/>
			<point x="190" y="248" type="curve" smooth="yes"/>
			<point x="213" y="349"/>
			<point x="287" y="447"/>
			<point name="n09" x="388" y="447" type="curve" smooth="yes"/>
			<point x="489" y="447"/>
			<point x="517" y="349"/>
		</contour>
		<contour>
			<point x="589" y="250" type="line"/>
			<point x="626" y="410"/>
			<point x="556" y="512"/>
			<point name="n15" x="403" y="512" type="curve" smooth="yes"/>
			<point x="250" y="512"/>
			<point x="133" y="408"/>
			<point x="96" y="249" type="curve" smooth="yes"/>
			<point x="59" y="90"/>
			<point x="129" y="-14"/>
			<point name="n21" x="282" y="-14" type="curve" smooth="yes"/>
			<point x="435" y="-14"/>
			<point x="551" y="88"/>
			<point x="588" y="248" type="curve"/>
		</contour>
		<contour>
			<point x="522" y="744" type="line"/>
			<point x="432" y="744" type="line"/>
			<point x="322" y="573" type="line"/>
			<point x="372" y="573" type="line"/>
		</contour>
		<contour>
			<point x="662" y="744" type="line"/>
			<point x="572" y="744" type="line"/>
			<point x="462" y="573" type="line"/>
			<point x="512" y="573" type="line"/>
		</contour>
	</outline>
</glyph>
<glyph name="OE" format="2">
  <advance width="1023"/>
  <unicode hex="0152"/>
  <anchor x="546" y="-60" name="bottom"/>
  <anchor x="742" y="800" name="top"/>
  <outline>
    <contour>
      <point x="124" y="246" type="curve" smooth="yes"/>
      <point x="124" y="75"/>
      <point x="226" y="-14"/>
      <point x="392" y="-14" type="curve" smooth="yes"/>
      <point x="466" y="-14"/>
      <point x="533" y="4"/>
      <point x="591" y="35" type="curve"/>
      <point x="740" y="693" type="line"/>
      <point x="696" y="722"/>
      <point x="640" y="736"/>
      <point x="573" y="736" type="curve" smooth="yes"/>
      <point x="302" y="736"/>
      <point x="124" y="499"/>
    </contour>
    <contour>
      <point x="278" y="252" type="curve" smooth="yes"/>
      <point x="278" y="408"/>
      <point x="358" y="622"/>
      <point x="547" y="622" type="curve" smooth="yes"/>
      <point x="591" y="622"/>
      <point x="623" y="610"/>
      <point x="645" y="589" type="curve"/>
      <point x="545" y="143" type="line"/>
      <point x="509" y="116"/>
      <point x="466" y="100"/>
      <point x="415" y="100" type="curve" smooth="yes"/>
      <point x="326" y="100"/>
      <point x="278" y="150"/>
    </contour>
    <contour>
      <point x="967" y="0" type="line"/>
      <point x="994" y="115" type="line"/>
      <point x="672" y="115" type="line"/>
      <point x="719" y="319" type="line"/>
      <point x="1011" y="319" type="line"/>
      <point x="1036" y="429" type="line"/>
      <point x="744" y="429" type="line"/>
      <point x="785" y="607" type="line"/>
      <point x="1097" y="607" type="line"/>
      <point x="1124" y="722" type="line"/>
      <point x="667" y="722" type="line"/>
      <point x="500" y="0" type="line"/>
    </contour>
  </outline>
</glyph>
<glyph name="scedilla" format="2">
	<unicode hex="015F"/>
	<advance width="483"/>
	<outline>
		<contour>
			<point x="344" y="449" type="line"/>
			<point x="410" y="449"/>
			<point x="436" y="421"/>
			<point x="423" y="366" type="curve"/>
			<point x="515" y="366" type="line"/>
			<point x="541" y="479"/>
			<point x="477" y="512"/>
			<point name="n07" x="359" y="512" type="curve" smooth="yes"/>
			<point x="225" y="512"/>
			<point x="156" y="450"/>
			<point x="138" y="373" type="curve" smooth="yes"/>
			<point x="89" y="162"/>
			<point x="412" y="267"/>
			<point x="382" y="139" type="curve" smooth="yes"/>
			<point x="369" y="81"/>
			<point x="305" y="51"/>
			<point name="n16" x="247" y="51" type="curve" smooth="yes"/>
			<point x="178" y="51"/>
			<point x="150" y="82"/>
			<point name="n19" x="163" y="144" type="curve"/>
			<point name="n20" x="71" y="144" type="line"/>
			<point x="47" y="40"/>
			<point x="103" y="-9"/>
			<point name="n23" x="202" y="-14" type="curve"/>
			<point x="181" y="-105" type="line"/>
			<point name="n25" x="215" y="-105" type="line" smooth="yes"/>
			<point x="252" y="-105"/>
			<point x="297" y="-124"/>
			<point x="288" y="-164" type="curve" smooth="yes"/>
			<point x="282" y="-189"/>
			<point x="254" y="-201"/>
			<point x="207" y="-201" type="curve" smooth="yes"/>
			<point name="n32" x="201" y="-201" type="line" smooth="yes"/>
			<point x="171" y="-201"/>
			<point x="138" y="-197"/>
			<point x="104" y="-189" type="curve"/>
			<point x="93" y="-239" type="line"/>
			<point x="131" y="-245"/>
			<point x="162" y="-248"/>
			<point name="n39" x="187" y="-248" type="curve" smooth="yes"/>
			<point x="251" y="-248"/>
			<point x="345" y="-222"/>
			<point x="359" y="-163" type="curve"/>
			<point x="357" y="-163" type="line"/>
			<point x="374" y="-91"/>
			<point x="332" y="-55"/>
			<point name="n46" x="232" y="-55" type="curve"/>
			<point x="242" y="-13" type="line"/>
			<point x="353" y="-7"/>
			<point x="451" y="39"/>
			<point x="476" y="147" type="curve" smooth="yes"/>
			<point x="522" y="346"/>
			<point x="200" y="243"/>
			<point x="230" y="374" type="curve" smooth="yes"/>
			<point x="241" y="421"/>
			<point x="293" y="448"/>
			<point name="n56" x="341" y="448" type="curve"/>
		</contour>
	</outline>
</glyph>
<glyph name="tcedilla" format="2">
	<unicode hex="0163"/>
	<advance width="370"/>
	<outline>
		<contour>
			<point x="252" y="131" type="line"/>
			<point name="n01" x="323" y="436" type="line"/>
			<point x="433" y="436" type="line"/>
			<point name="n03" x="447" y="500" type="line"/>
			<point name="n04" x="337" y="500" type="line"/>
			<point x="369" y="636" type="line"/>
			<point x="270" y="599" type="line"/>
			<point x="247" y="500" type="line"/>
			<point x="157" y="500" type="line"/>
			<point x="143" y="436" type="line"/>
			<point x="233" y="436" type="line"/>
			<point x="162" y="131" type="line" smooth="yes"/>
			<point x="141" y="39"/>
			<point x="155" y="-10"/>
			<point x="232" y="-14" type="curve"/>
			<point x="211" y="-105" type="line"/>
			<point name="n16" x="245" y="-105" type="line" smooth="yes"/>
			<point x="282" y="-105"/>
			<point x="327" y="-124"/>
			<point x="318" y="-164" type="curve" smooth="yes"/>
			<point x="312" y="-189"/>
			<point x="284" y="-201"/>
			<point x="237" y="-201" type="curve" smooth="yes"/>
			<point name="n23" x="231" y="-201" type="line" smooth="yes"/>
			<point x="201" y="-201"/>
			<point x="168" y="-197"/>
			<point x="134" y="-189" type="curve"/>
			<point name="n27" x="123" y="-239" type="line"/>
			<point x="161" y="-245"/>
			<point x="192" y="-248"/>
			<point name="n30" x="217" y="-248" type="curve" smooth="yes"/>
			<point x="281" y="-248"/>
			<point x="375" y="-222"/>
			<point x="389" y="-163" type="curve"/>
			<point x="387" y="-163" type="line"/>
			<point x="404" y="-91"/>
			<point x="362" y="-55"/>
			<point name="n37" x="262" y="-55" type="curve"/>
			<point x="272" y="-13" type="line"/>
			<point x="293" y="-11"/>
			<point x="314" y="-7"/>
			<point x="332" y="-1" type="curve"/>
			<point x="347" y="63" type="line"/>
			<point x="330" y="58"/>
			<point x="310" y="55"/>
			<point x="289" y="54" type="curve"/>
			<point x="283" y="54" type="line" smooth="yes"/>
			<point x="245" y="54"/>
			<point x="242" y="84"/>
			<point x="252" y="129" type="curve"/>
		</contour>
	</outline>
</glyph>
<glyph name="tbar" format="2">
  <advance width="370"/>
  <unicode hex="0167"/>
  <outline>
    <component base="t"/>
    <contour>
      <point x="141" y="323" type="line"/>
      <point x="122" y="238" type="line"/>
      <point x="402" y="238" type="line"/>
      <point x="421" y="323" type="line"/>
    </contour>
  </outline>
</glyph>
<glyph name="uring" format="2">
	<unicode hex="016F"/>
	<advance width="533"/>
	<outline>
		<contour>
			<point name="n00" x="271" y="48" type="line"/>
			<point x="205" y="48"/>
			<point x="163" y="103"/>
			<point x="178" y="169" type="curve" smooth="yes"/>
			<point name="n04" x="254" y="500" type="line"/>
			<point x="164" y="500" type="line"/>
			<point x="88" y="171" type="line" smooth="yes"/>
			<point x="59" y="46"/>
			<point x="109" y="-13"/>
			<point name="n09" x="237" y="-13" type="curve" smooth="yes"/>
			<point x="306" y="-13"/>
			<point x="363" y="13"/>
			<point x="408" y="64" type="curve"/>
			<point name="n13" x="393" y="0" type="line"/>
			<point x="483" y="0" type="line"/>
			<point x="598" y="500" type="line"/>
			<point x="508" y="500" type="line"/>
			<point x="434" y="178" type="line" smooth="yes"/>
			<point x="417" y="103"/>
			<point name="hr02" x="346" y="48"/>
			<point x="272" y="48" type="curve"/>
		</contour>
		<contour>
			<point name="n21" x="408" y="613" type="curve" smooth="yes"/>
			<point x="369" y="613"/>
			<point x="344" y="644"/>
			<point x="353" y="683" type="curve" smooth="yes"/>
			<point x="362" y="722"/>
			<point x="401" y="753"/>
			<point name="n27" x="440" y="753" type="curve" smooth="yes"/>
			<point x="479" y="753"/>
			<point x="503" y="722"/>
			<point x="494" y="683" type="curve" smooth="yes"/>
			<point x="485" y="644"/>
			<point x="447" y="613"/>
		</contour>
		<contour>
			<point name="n33" x="449" y="793" type="curve" smooth="yes"/>
			<point x="388" y="793"/>
			<point x="328" y="744"/>
			<point x="314" y="683" type="curve" smooth="yes"/>
			<point x="300" y="622"/>
			<point x="337" y="573"/>
			<point name="n39" x="398" y="573" type="curve" smooth="yes"/>
			<point x="458" y="573"/>
			<point x="520" y="623"/>
			<point x="534" y="683" type="curve" smooth="yes"/>
			<point x="548" y="744"/>
			<point x="510" y="793"/>
		</contour>
	</outline>
</glyph>
<glyph name="ycircumflex" format="2">
	<unicode hex="0177"/>
	<advance width="535"/>
	<outline>
		<contour>
			<point x="194" y="-56" type="line" smooth="yes"/>
			<point x="136" y="-151"/>
			<point name="n02" x="109" y="-198"/>
			<point x="109" y="-198" type="curve"/>
			<point x="201" y="-198" type="line"/>
			<point x="344" y="36"/>
			<point x="489" y="267"/>
			<point name="n07" x="634" y="500" type="curve"/>
			<point x="537" y="500" type="line"/>
			<point x="304" y="123" type="line"/>
			<point x="234" y="500" type="line"/>
			<point x="129" y="500" type="line"/>
			<point x="228" y="0" type="line"/>
		</contour>
		<contour>
			<point x="544" y="573" type="line"/>
			<point x="494" y="743" type="line"/>
			<point x="384" y="743" type="line"/>
			<point x="254" y="573" type="line"/>
			<point x="314" y="573" type="line"/>
			<point x="425" y="683" type="line"/>
			<point x="484" y="573" type="line"/>
		</contour>
	</outline>
</glyph>
<glyph name="zcaron" format="2">
	<unicode hex="017E"/>
	<advance width="467"/>
	<outline>
		<contour>
			<point name="n00" x="418" y="0" type="line"/>
			<point name="n01" x="434" y="70" type="line"/>
			<point x="166" y="70" type="line"/>
			<point x="514" y="417" type="line"/>
			<point x="533" y="500" type="line"/>
			<point name="n05" x="185" y="500" type="line"/>
			<point name="n06" x="169" y="430" type="line"/>
			<point x="415" y="430" type="line"/>
			<point x="69" y="83" type="line"/>
			<point x="50" y="0" type="line"/>
		</contour>
		<contour>
			<point x="542" y="770" type="line"/>
			<point x="482" y="770" type="line"/>
			<point x="371" y="660" type="line"/>
			<point x="312" y="770" type="line"/>
			<point x="252" y="770" type="line"/>
			<point x="303" y="600" type="line"/>
			<point x="413" y="600" type="line"/>
		</contour>
	</outline>
</glyph>
<glyph name="longs" format="2">
  <advance width="354"/>
  <unicode hex="017F"/>
  <outline>
    <contour>
      <point x="106" y="415" type="line"/>
      <point x="196" y="415" type="line"/>
      <point x="107" y="0" type="line"/>
      <point x="247" y="0" type="line"/>
      <point x="367" y="573" type="line" smooth="yes"/>
      <point x="378" y="624"/>
      <point x="397" y="647"/>
      <point x="446" y="647" type="curve" smooth="yes"/>
      <point x="466" y="647"/>
      <point x="484" y="643"/>
      <point x="501" y="633" type="curve"/>
      <point x="521" y="718" type="line"/>
      <point x="487" y="730"/>
      <point x="455" y="736"/>
      <point x="418" y="736" type="curve" smooth="yes"/>
      <point x="316" y="736"/>
      <point x="260" y="690"/>
      <point x="233" y="576" type="curve" smooth="yes"/>
      <point x="215" y="500" type="line"/>
      <point x="125" y="500" type="line"/>
    </contour>
  </outline>
</glyph>
<glyph name="florin" format="2">
  <advance width="527"/>
  <unicode hex="0192"/>
  <outline>
    <contour>
      <point x="93" y="-66" type="line" smooth="yes"/>
      <point x="82" y="-117"/>
      <point x="63" y="-140"/>
      <point x="14" y="-140" type="curve" smooth="yes"/>
      <point x="-6" y="-140"/>
      <point x="-24" y="-136"/>
      <point x="-41" y="-126" type="curve"/>
      <point x="-61" y="-211" type="line"/>
      <point x="-27" y="-223"/>
      <point x="5" y="-229"/>
      <point x="42" y="-229" type="curve" smooth="yes"/>
      <point x="144" y="-229"/>
      <point x="207" y="-183"/>
      <point x="232" y="-69" type="curve"/>
      <point x="367" y="573" type="line"/>
      <point x="379" y="624"/>
      <point x="397" y="647"/>
      <point x="446" y="647" type="curve" smooth="yes"/>
      <point x="466" y="647"/>
      <point x="484" y="643"/>
      <point x="501" y="633" type="curve"/>
      <point x="521" y="718" type="line"/>
      <point x="487" y="730"/>
      <point x="455" y="736"/>
      <point x="418" y="736" type="curve" smooth="yes"/>
      <point x="316" y="736"/>
      <point x="258" y="690"/>
      <point x="233" y="576" type="curve" smooth="yes"/>
    </contour>
    <contour>
      <point x="125" y="500" type="line"/>
      <point x="106" y="415" type="line"/>
      <point x="437" y="415" type="line"/>
      <point x="456" y="500" type="line"/>
    </contour>
  </outline>
</glyph>
<glyph name="uni019E" format="2">
  <advance width="601"/>
  <unicode hex="019E"/>
  <outline>
    <contour>
      <point x="73" y="0" type="line"/>
      <point x="208" y="0" type="line"/>
      <point x="269" y="279" type="line" smooth="yes"/>
      <point x="284" y="349"/>
      <point x="327" y="433"/>
      <point x="411" y="433" type="curve" smooth="yes"/>
      <point x="456" y="433"/>
      <point x="478" y="408"/>
      <point x="478" y="359" type="curve" smooth="yes"/>
      <point x="478" y="342"/>
      <point x="475" y="322"/>
      <point x="470" y="299" type="curve" smooth="yes"/>
      <point x="361" y="-200" type="line"/>
      <point x="496" y="-200" type="line"/>
      <point x="614" y="339" type="line" smooth="yes"/>
      <point x="618" y="359"/>
      <point x="621" y="377"/>
      <point x="621" y="396" type="curve" smooth="yes"/>
      <point x="621" y="469"/>
      <point x="576" y="514"/>
      <point x="486" y="514" type="curve" smooth="yes"/>
      <point x="406" y="514"/>
      <point x="358" y="496"/>
      <point x="303" y="433" type="curve"/>
      <point x="318" y="500" type="line"/>
      <point x="182" y="500" type="line"/>
    </contour>
  </outline>
</glyph>
<glyph name="cdotaccent.001" format="2">
	<unicode hex="01A9"/>
	<advance width="534"/>
	<outline>
		<contour>
			<point name="n00" x="377" y="453" type="line"/>
			<point x="444" y="453"/>
			<point x="486" y="398"/>
			<point x="471" y="331" type="curve" smooth="yes"/>
			<point name="n04" x="395" y="0" type="line"/>
			<point x="484" y="0" type="line"/>
			<point x="560" y="329" type="line" smooth="yes"/>
			<point x="588" y="452"/>
			<point x="538" y="513"/>
			<point name="n09" x="410" y="513" type="curve" smooth="yes"/>
			<point x="310" y="513"/>
			<point x="286" y="473"/>
			<point x="240" y="436" type="curve"/>
			<point name="n13" x="254" y="500" type="line"/>
			<point x="164" y="500" type="line"/>
			<point x="49" y="0" type="line"/>
			<point x="139" y="0" type="line"/>
			<point x="214" y="323" type="line" smooth="yes"/>
			<point x="231" y="398"/>
			<point name="hr02" x="302" y="453"/>
			<point x="376" y="453" type="curve"/>
		</contour>
		<contour>
			<point x="359" y="-230" type="line"/>
			<point x="308" y="-60" type="line"/>
			<point x="198" y="-60" type="line"/>
			<point x="69" y="-230" type="line"/>
			<point x="129" y="-230" type="line"/>
			<point x="239" y="-120" type="line"/>
			<point x="299" y="-230" type="line"/>
		</contour>
	</outline>
</glyph>
<glyph name="uni01C0" format="2">
  <advance width="344"/>
  <unicode hex="01C0"/>
  <outline>
    <contour>
      <point x="148" y="-258" type="line"/>
      <point x="392" y="796" type="line"/>
      <point x="321" y="796" type="line"/>
      <point x="77" y="-258" type="line"/>
    </contour>
  </outline>
</glyph>
<glyph name="uni01C1" format="2">
  <advance width="688"/>
  <unicode hex="01C1"/>
  <outline>
    <contour>
      <point x="148" y="-258" type="line"/>
      <point x="392" y="796" type="line"/>
      <point x="321" y="796" type="line"/>
      <point x="77" y="-258" type="line"/>
    </contour>
    <contour>
      <point x="492" y="-258" type="line"/>
      <point x="736" y="796" type="line"/>
      <point x="665" y="796" type="line"/>
      <point x="421" y="-258" type="line"/>
    </contour>
  </outline>
</glyph>
<glyph name="uni01C2" format="2">
  <advance width="405"/>
  <unicode hex="01C2"/>
  <outline>
    <contour>
      <point x="448" y="272" type="line"/>
      <point x="460" y="323" type="line"/>
      <point x="303" y="323" type="line"/>
      <point x="323" y="413" type="line"/>
      <point x="480" y="413" type="line"/>
      <point x="492" y="464" type="line"/>
      <point x="335" y="464" type="line"/>
      <point x="398" y="736" type="line"/>
      <point x="347" y="736" type="line"/>
      <point x="284" y="464" type="line"/>
      <point x="126" y="464" type="line"/>
      <point x="114" y="413" type="line"/>
      <point x="272" y="413" type="line"/>
      <point x="252" y="323" type="line"/>
      <point x="94" y="323" type="line"/>
      <point x="82" y="272" type="line"/>
      <point x="240" y="272" type="line"/>
      <point x="177" y="0" type="line"/>
      <point x="228" y="0" type="line"/>
      <point x="291" y="272" type="line"/>
    </contour>
  </outline>
</glyph>
<glyph name="uni01C8" format="2">
	<unicode hex="01C8"/>
	<advance width="730"/>
	<outline>
		<contour>
			<point name="n00" x="479" y="0" type="line"/>
			<point name="n01" x="499" y="87" type="line"/>
			<point x="180" y="87" type="line"/>
			<point x="327" y="722" type="line"/>
			<point x="226" y="722" type="line"/>
			<point x="59" y="0" type="line"/>
		</contour>
		<contour>
			<point x="518" y="-140" type="line"/>
			<point x="507" y="-140"/>
			<point x="491" y="-140"/>
			<point name="n09" x="472" y="-141" type="curve"/>
			<point x="458" y="-205" type="line"/>
			<point name="n11" x="469" y="-205" type="line" smooth="yes"/>
			<point x="477" y="-205"/>
			<point x="484" y="-205"/>
			<point x="493" y="-206" type="curve"/>
			<point x="502" y="-206" type="line" smooth="yes"/>
			<point x="572" y="-206"/>
			<point x="633" y="-167"/>
			<point x="653" y="-80" type="curve" smooth="yes"/>
			<point name="n19" x="786" y="500" type="line"/>
			<point x="696" y="500" type="line"/>
			<point x="569" y="-50" type="line" smooth="yes"/>
			<point x="558" y="-97"/>
			<point x="549" y="-140"/>
			<point x="517" y="-140" type="curve"/>
		</contour>
		<contour>
			<point name="n25" x="825" y="630" type="line"/>
			<point name="n26" x="847" y="722" type="line"/>
			<point x="741" y="722" type="line"/>
			<point x="719" y="630" type="line"/>
		</contour>
	</outline>
</glyph>
<glyph name="Acaron" format="2">
	<unicode hex="01CD"/>
	<advance width="750"/>
	<outline>
		<contour>
			<point name="n00" x="573" y="278" type="line"/>
			<point x="300" y="278" type="line"/>
			<point x="512" y="611" type="line"/>
		</contour>
		<contour>
			<point name="n03" x="735" y="0" type="line"/>
			<point name="n04" x="595" y="722" type="line"/>
			<point x="485" y="722" type="line"/>
			<point x="15" y="0" type="line"/>
			<point x="118" y="0" type="line"/>
			<point x="242" y="193" type="line"/>
			<point name="n09" x="596" y="193" type="line"/>
			<point x="629" y="0" type="line"/>
		</contour>
		<contour>
			<point x="741" y="966" type="line"/>
			<point x="681" y="966" type="line"/>
			<point x="571" y="856" type="line"/>
			<point x="511" y="966" type="line"/>
			<point x="451" y="966" type="line"/>
			<point x="502" y="796" type="line"/>
			<point x="612" y="796" type="line"/>
		</contour>
	</outline>
</glyph>
<glyph name="Ucaron" format="2">
	<unicode hex="01D3"/>
	<advance width="697"/>
	<outline>
		<contour>
			<point x="345" y="-14" type="line"/>
			<point x="562" y="-14"/>
			<point x="659" y="96"/>
			<point x="711" y="322" type="curve" smooth="yes"/>
			<point name="n04" x="804" y="722" type="line"/>
			<point x="703" y="722" type="line"/>
			<point x="610" y="322" type="line" smooth="yes"/>
			<point x="572" y="157"/>
			<point x="507" y="74"/>
			<point name="n09" x="365" y="74" type="curve" smooth="yes"/>
			<point x="216" y="74"/>
			<point x="199" y="168"/>
			<point x="235" y="322" type="curve" smooth="yes"/>
			<point x="328" y="722" type="line"/>
			<point x="227" y="722" type="line"/>
			<point x="134" y="322" type="line" smooth="yes"/>
			<point x="82" y="96"/>
			<point x="129" y="-14"/>
			<point name="n18" x="346" y="-14" type="curve"/>
		</contour>
		<contour>
			<point x="716" y="966" type="line"/>
			<point x="656" y="966" type="line"/>
			<point x="546" y="856" type="line"/>
			<point x="486" y="966" type="line"/>
			<point x="426" y="966" type="line"/>
			<point x="477" y="796" type="line"/>
			<point x="587" y="796" type="line"/>
		</contour>
	</outline>
</glyph>
<glyph name="uni01DC" format="2">
	<unicode hex="01DC"/>
	<advance width="572"/>
	<outline>
		<contour>
			<point name="n00" x="291" y="48" type="line"/>
			<point x="225" y="48"/>
			<point x="183" y="103"/>
			<point x="198" y="169" type="curve" smooth="yes"/>
			<point name="n04" x="274" y="500" type="line"/>
			<point x="184" y="500" type="line"/>
			<point x="108" y="171" type="line" smooth="yes"/>
			<point x="79" y="46"/>
			<point x="129" y="-13"/>
			<point name="n09" x="257" y="-13" type="curve" smooth="yes"/>
			<point x="326" y="-13"/>
			<point x="383" y="13"/>
			<point x="428" y="64" type="curve"/>
			<point name="n13" x="413" y="0" type="line"/>
			<point x="503" y="0" type="line"/>
			<point x="618" y="500" type="line"/>
			<point x="528" y="500" type="line"/>
			<point x="454" y="178" type="line" smooth="yes"/>
			<point x="437" y="103"/>
			<point name="hr02" x="366" y="48"/>
			<point x="292" y="48" type="curve"/>
		</contour>
		<contour>
			<point name="n21" x="376" y="630" type="line"/>
			<point name="n22" x="398" y="722" type="line"/>
			<point x="308" y="722" type="line"/>
			<point x="286" y="630" type="line"/>
		</contour>
		<contour>
			<point x="576" y="630" type="line"/>
			<point x="598" y="722" type="line"/>
			<point x="508" y="722" type="line"/>
			<point x="486" y="630" type="line"/>
		</contour>
		<contour>
			<point x="498" y="782" type="line"/>
			<point x="437" y="953" type="line"/>
			<point x="336" y="953" type="line"/>
			<point x="437" y="782" type="line"/>
		</contour>
	</outline>
</glyph>
<glyph name="uni01E1" format="2">
	<unicode hex="01E1"/>
	<advance width="535"/>
	<outline>
		<contour>
			<point name="n00" x="455" y="573" type="line"/>
			<point name="n01" x="478" y="673" type="line"/>
			<point x="388" y="673" type="line"/>
			<point x="365" y="573" type="line"/>
		</contour>
		<contour>
			<point name="n04" x="578" y="733" type="line"/>
			<point name="n05" x="594" y="802" type="line"/>
			<point x="332" y="802" type="line"/>
			<point x="316" y="733" type="line"/>
		</contour>
		<contour>
			<point x="177" y="144" type="line"/>
			<point x="197" y="229"/>
			<point x="315" y="249"/>
			<point name="n11" x="395" y="249" type="curve"/>
			<point x="396" y="249"/>
			<point x="413" y="248"/>
			<point x="446" y="246" type="curve"/>
			<point x="418" y="126"/>
			<point x="372" y="55"/>
			<point name="n17" x="256" y="55" type="curve" smooth="yes"/>
			<point x="202" y="55"/>
			<point x="165" y="91"/>
			<point x="177" y="145" type="curve"/>
		</contour>
		<contour>
			<point x="385" y="447" type="line"/>
			<point x="454" y="447"/>
			<point x="489" y="412"/>
			<point x="475" y="350" type="curve"/>
			<point x="472" y="339"/>
			<point x="468" y="327"/>
			<point x="462" y="314" type="curve"/>
			<point x="448" y="314"/>
			<point x="408" y="316"/>
			<point name="n30" x="394" y="316" type="curve" smooth="yes"/>
			<point x="266" y="316"/>
			<point x="114" y="281"/>
			<point x="80" y="132" type="curve" smooth="yes"/>
			<point x="59" y="40"/>
			<point x="146" y="-13"/>
			<point name="n36" x="238" y="-13" type="curve" smooth="yes"/>
			<point x="316" y="-13"/>
			<point x="360" y="25"/>
			<point x="412" y="73" type="curve"/>
			<point x="409" y="62"/>
			<point x="408" y="38"/>
			<point name="n42" x="406" y="0" type="curve"/>
			<point name="n43" x="496" y="0" type="line"/>
			<point x="493" y="25"/>
			<point x="503" y="86"/>
			<point x="525" y="183" type="curve" smooth="yes"/>
			<point x="550" y="290" type="line" smooth="yes"/>
			<point x="568" y="366"/>
			<point x="574" y="412"/>
			<point x="571" y="429" type="curve" smooth="yes"/>
			<point x="561" y="486"/>
			<point x="504" y="514"/>
			<point name="n53" x="398" y="514" type="curve" smooth="yes"/>
			<point x="264" y="514"/>
			<point x="184" y="463"/>
			<point name="n56" x="162" y="366" type="curve"/>
			<point name="n57" x="255" y="366" type="line"/>
			<point x="268" y="424"/>
			<point x="328" y="447"/>
			<point name="n60" x="386" y="447" type="curve"/>
		</contour>
	</outline>
</glyph>
<glyph name="jcaron" format="2">
	<unicode hex="01F0"/>
	<advance width="235"/>
	<outline>
		<contour>
			<point x="24" y="-134" type="line"/>
			<point x="13" y="-134"/>
			<point x="-2" y="-134"/>
			<point name="n03" x="-21" y="-135" type="curve"/>
			<point x="-36" y="-199" type="line"/>
			<point name="n05" x="-25" y="-199" type="line" smooth="yes"/>
			<point x="-17" y="-199"/>
			<point x="-9" y="-199"/>
			<point x="0" y="-200" type="curve"/>
			<point x="9" y="-200" type="line" smooth="yes"/>
			<point x="79" y="-200"/>
			<point x="139" y="-161"/>
			<point x="159" y="-74" type="curve" smooth="yes"/>
			<point name="n13" x="291" y="500" type="line"/>
			<point x="201" y="500" type="line"/>
			<point x="76" y="-44" type="line" smooth="yes"/>
			<point x="65" y="-91"/>
			<point x="55" y="-134"/>
			<point x="23" y="-134" type="curve"/>
		</contour>
		<contour>
			<point x="462" y="802" type="line"/>
			<point x="402" y="802" type="line"/>
			<point x="292" y="692" type="line"/>
			<point x="232" y="802" type="line"/>
			<point x="172" y="802" type="line"/>
			<point x="223" y="632" type="line"/>
			<point x="333" y="632" type="line"/>
		</contour>
	</outline>
</glyph>
<glyph name="gacute" format="2">
	<unicode hex="01F5"/>
	<advance width="563"/>
	<outline>
		<contour>
			<point x="190" y="266" type="curve" smooth="yes"/>
			<point x="218" y="387"/>
			<point x="276" y="448"/>
			<point name="n03" x="367" y="448" type="curve" smooth="yes"/>
			<point x="474" y="448"/>
			<point x="504" y="382"/>
			<point x="477" y="264" type="curve" smooth="yes"/>
			<point x="451" y="153"/>
			<point x="390" y="77"/>
			<point name="n09" x="287" y="77" type="curve" smooth="yes"/>
			<point x="188" y="77"/>
			<point x="166" y="162"/>
		</contour>
		<contour>
			<point x="101" y="267" type="line"/>
			<point x="66" y="114"/>
			<point x="107" y="14"/>
			<point name="n15" x="263" y="14" type="curve" smooth="yes"/>
			<point x="342" y="14"/>
			<point x="395" y="50"/>
			<point x="440" y="93" type="curve"/>
			<point x="400" y="-79"/>
			<point x="345" y="-136"/>
			<point name="n21" x="250" y="-136" type="curve" smooth="yes"/>
			<point x="186" y="-136"/>
			<point x="133" y="-104"/>
			<point name="n24" x="148" y="-40" type="curve"/>
			<point name="n25" x="54" y="-40" type="line"/>
			<point x="34" y="-127"/>
			<point x="92" y="-198"/>
			<point name="n28" x="217" y="-198" type="curve" smooth="yes"/>
			<point x="373" y="-198"/>
			<point x="482" y="-105"/>
			<point x="513" y="29" type="curve" smooth="yes"/>
			<point name="n32" x="621" y="499" type="line"/>
			<point name="hr01" x="531" y="499" type="line"/>
			<point x="519" y="444" type="line"/>
			<point x="502" y="482"/>
			<point x="446" y="512"/>
			<point name="n37" x="377" y="512" type="curve" smooth="yes"/>
			<point x="239" y="512"/>
			<point x="131" y="399"/>
			<point x="101" y="268" type="curve"/>
		</contour>
		<contour>
			<point x="605" y="745" type="line"/>
			<point x="504" y="745" type="line"/>
			<point x="365" y="574" type="line"/>
			<point x="426" y="574" type="line"/>
		</contour>
	</outline>
</glyph>
<glyph name="AEacute" format="2">
	<unicode hex="01FC"/>
	<advance width="976"/>
	<outline>
		<contour>
			<point name="n00" x="524" y="278" type="line"/>
			<point x="342" y="278" type="line"/>
			<point x="608" y="641" type="line"/>
		</contour>
		<contour>
			<point name="n03" x="917" y="0" type="line"/>
			<point name="n04" x="937" y="87" type="line"/>
			<point x="581" y="87" type="line"/>
			<point name="n06" x="636" y="326" type="line"/>
			<point x="972" y="326" type="line"/>
			<point x="992" y="413" type="line"/>
			<point name="n09" x="656" y="413" type="line"/>
			<point x="708" y="635" type="line"/>
			<point name="n11" x="1054" y="635" type="line"/>
			<point name="n12" x="1074" y="722" type="line"/>
			<point x="565" y="722" type="line"/>
			<point x="15" y="0" type="line"/>
			<point x="121" y="0" type="line"/>
			<point x="274" y="193" type="line"/>
			<point name="n17" x="505" y="193" type="line"/>
			<point x="460" y="0" type="line"/>
		</contour>
		<contour>
			<point x="1046" y="967" type="line"/>
			<point x="945" y="967" type="line"/>
			<point x="806" y="796" type="line"/>
			<point x="867" y="796" type="line"/>
		</contour>
	</outline>
</glyph>
<glyph name="uni0208" format="2">
	<unicode hex="0208"/>
	<advance width="261"/>
	<outline>
		<contour>
			<point name="n00" x="180" y="0" type="line"/>
			<point name="n01" x="347" y="722" type="line"/>
			<point x="246" y="722" type="line"/>
			<point name="n03" x="79" y="0" type="line"/>
		</contour>
		<contour>
			<point x="269" y="796" type="line"/>
			<point x="238" y="967" type="line"/>
			<point x="148" y="967" type="line"/>
			<point x="219" y="796" type="line"/>
		</contour>
		<contour>
			<point name="n08" x="409" y="796" type="line"/>
			<point x="378" y="967" type="line"/>
			<point x="288" y="967" type="line"/>
			<point x="359" y="796" type="line"/>
		</contour>
	</outline>
</glyph>
<glyph name="uni020B" format="2">
	<unicode hex="020B"/>
	<advance width="229"/>
	<outline>
		<contour>
			<point name="n00" x="162" y="0" type="line"/>
			<point name="n01" x="277" y="500" type="line"/>
			<point x="187" y="500" type="line"/>
			<point x="72" y="0" type="line"/>
		</contour>
		<contour>
			<point name="n04" x="388" y="573" type="line"/>
			<point x="392" y="638"/>
			<point x="343" y="690"/>
			<point name="n07" x="274" y="690" type="curve" smooth="yes"/>
			<point x="203" y="690"/>
			<point x="129" y="639"/>
			<point x="106" y="573" type="curve"/>
			<point x="158" y="573" type="line"/>
			<point x="171" y="604"/>
			<point x="225" y="626"/>
			<point name="n14" x="261" y="626" type="curve" smooth="yes"/>
			<point x="297" y="626"/>
			<point x="339" y="604"/>
			<point name="n17" x="338" y="573" type="curve"/>
		</contour>
	</outline>
</glyph>
<glyph name="uni0210" format="2">
	<unicode hex="0210"/>
	<advance width="629"/>
	<outline>
		<contour>
			<point x="382" y="414" type="curve" smooth="yes"/>
			<point name="n01" x="257" y="414" type="line"/>
			<point x="307" y="634" type="line"/>
			<point name="n03" x="432" y="634" type="line" smooth="yes"/>
			<point x="526" y="634"/>
			<point x="590" y="613"/>
			<point x="569" y="524" type="curve" smooth="yes"/>
			<point x="549" y="436"/>
			<point x="476" y="414"/>
		</contour>
		<contour>
			<point x="569" y="0" type="line"/>
			<point x="559" y="77"/>
			<point x="578" y="275"/>
			<point name="n12" x="575" y="292" type="curve" smooth="yes"/>
			<point x="567" y="340"/>
			<point x="527" y="365"/>
			<point x="499" y="369" type="curve"/>
			<point x="599" y="412"/>
			<point x="656" y="464"/>
			<point x="670" y="525" type="curve" smooth="yes"/>
			<point x="703" y="668"/>
			<point x="631" y="722"/>
			<point name="n21" x="456" y="722" type="curve" smooth="yes"/>
			<point x="227" y="722" type="line"/>
			<point x="60" y="0" type="line"/>
			<point x="161" y="0" type="line"/>
			<point name="n25" x="237" y="328" type="line"/>
			<point x="356" y="328" type="line" smooth="yes"/>
			<point x="383" y="328"/>
			<point x="399" y="327"/>
			<point x="424" y="320" type="curve" smooth="yes"/>
			<point x="505" y="298"/>
			<point x="465" y="131"/>
			<point name="n32" x="465" y="-1" type="curve"/>
		</contour>
		<contour>
			<point x="404" y="796" type="line"/>
			<point x="373" y="967" type="line"/>
			<point x="283" y="967" type="line"/>
			<point x="354" y="796" type="line"/>
		</contour>
		<contour>
			<point x="544" y="796" type="line"/>
			<point x="513" y="967" type="line"/>
			<point x="423" y="967" type="line"/>
			<point x="494" y="796" type="line"/>
		</contour>
	</outline>
</glyph>
<glyph name="scommaaccent" format="2">
	<unicode hex="0219"/>
	<advance width="483"/>
	<outline>
		<contour>
			<point name="n00" x="342" y="449" type="line"/>
			<point x="408" y="449"/>
			<point x="434" y="421"/>
			<point x="421" y="366" type="curve"/>
			<point x="513" y="366" type="line"/>
			<point x="539" y="479"/>
			<point x="475" y="512"/>
			<point name="n07" x="357" y="512" type="curve" smooth="yes"/>
			<point x="223" y="512"/>
			<point x="154" y="450"/>
			<point x="136" y="373" type="curve" smooth="yes"/>
			<point x="87" y="162"/>
			<point x="410" y="267"/>
			<point x="380" y="139" type="curve" smooth="yes"/>
			<point x="367" y="81"/>
			<point x="303" y="51"/>
			<point name="n16" x="245" y="51" type="curve" smooth="yes"/>
			<point x="176" y="51"/>
			<point x="148" y="82"/>
			<point name="n19" x="161" y="144" type="curve"/>
			<point name="n20" x="69" y="144" type="line"/>
			<point x="44" y="34"/>
			<point x="108" y="-14"/>
			<point name="n23" x="218" y="-14" type="curve" smooth="yes"/>
			<point x="336" y="-14"/>
			<point x="446" y="31"/>
			<point x="473" y="146" type="curve" smooth="yes"/>
			<point x="519" y="345"/>
			<point x="197" y="242"/>
			<point x="227" y="373" type="curve" smooth="yes"/>
			<point x="238" y="420"/>
			<point x="290" y="447"/>
			<point x="338" y="447" type="curve"/>
		</contour>
		<contour>
			<point x="298" y="-73" type="line"/>
			<point x="178" y="-73" type="line"/>
			<point x="60" y="-323" type="line"/>
			<point x="130" y="-323" type="line"/>
		</contour>
	</outline>
</glyph>
<glyph name="uni0226" format="2">
	<unicode hex="0226"/>
	<advance width="750"/>
	<outline>
		<contour>
			<point name="n00" x="573" y="278" type="line"/>
			<point x="300" y="278" type="line"/>
			<point x="512" y="611" type="line"/>
		</contour>
		<contour>
			<point name="n03" x="735" y="0" type="line"/>
			<point name="n04" x="595" y="722" type="line"/>
			<point x="485" y="722" type="line"/>
			<point x="15" y="0" type="line"/>
			<point x="118" y="0" type="line"/>
			<point x="242" y="193" type="line"/>
			<point name="n09" x="596" y="193" type="line"/>
			<point x="629" y="0" type="line"/>
		</contour>
		<contour>
			<point name="n11" x="602" y="796" type="line"/>
			<point name="n12" x="625" y="896" type="line"/>
			<point x="535" y="896" type="line"/>
			<point x="512" y="796" type="line"/>
		</contour>
	</outline>
</glyph>
<glyph name="uni0231" format="2">
	<unicode hex="0231"/>
	<advance width="580"/>
	<outline>
		<contour>
			<point x="503" y="248" type="curve" smooth="yes"/>
			<point x="480" y="148"/>
			<point x="405" y="51"/>
			<point name="n03" x="302" y="51" type="curve" smooth="yes"/>
			<point x="199" y="51"/>
			<point x="168" y="148"/>
			<point x="191" y="248" type="curve" smooth="yes"/>
			<point x="214" y="349"/>
			<point x="290" y="447"/>
			<point name="n09" x="393" y="447" type="curve" smooth="yes"/>
			<point x="496" y="447"/>
			<point x="526" y="349"/>
		</contour>
		<contour>
			<point x="598" y="250" type="line"/>
			<point x="635" y="410"/>
			<point x="564" y="512"/>
			<point name="n15" x="408" y="512" type="curve" smooth="yes"/>
			<point x="253" y="512"/>
			<point x="134" y="408"/>
			<point x="97" y="249" type="curve" smooth="yes"/>
			<point x="60" y="90"/>
			<point x="132" y="-14"/>
			<point name="n21" x="287" y="-14" type="curve" smooth="yes"/>
			<point x="443" y="-14"/>
			<point x="560" y="88"/>
			<point x="597" y="248" type="curve"/>
		</contour>
		<contour>
			<point name="n25" x="462" y="573" type="line"/>
			<point name="n26" x="485" y="673" type="line"/>
			<point x="395" y="673" type="line"/>
			<point x="372" y="573" type="line"/>
		</contour>
		<contour>
			<point name="n29" x="585" y="733" type="line"/>
			<point name="n30" x="601" y="802" type="line"/>
			<point x="339" y="802" type="line"/>
			<point x="323" y="733" type="line"/>
		</contour>
	</outline>
</glyph>
<glyph name="uni0232" format="2">
	<unicode hex="0232"/>
	<advance width="666"/>
	<outline>
		<contour>
			<point name="n00" x="818" y="722" type="line"/>
			<point x="704" y="722" type="line"/>
			<point x="426" y="375" type="line"/>
			<point x="305" y="722" type="line"/>
			<point x="182" y="722" type="line"/>
			<point x="348" y="287" type="line"/>
			<point name="n06" x="282" y="0" type="line"/>
			<point x="383" y="0" type="line"/>
			<point x="449" y="287" type="line"/>
		</contour>
		<contour>
			<point name="n09" x="648" y="796" type="line"/>
			<point name="n10" x="664" y="865" type="line"/>
			<point x="402" y="865" type="line"/>
			<point x="386" y="796" type="line"/>
		</contour>
	</outline>
</glyph>
<glyph name="j.dotless" format="2">
  <advance width="351"/>
  <unicode hex="0237"/>
  <anchor x="348" y="580" name="top"/>
  <outline>
    <contour>
      <point x="51" y="-212" type="line"/>
      <point x="74" y="-212" type="line" smooth="yes"/>
      <point x="175" y="-212"/>
      <point x="243" y="-193"/>
      <point x="269" y="-80" type="curve" smooth="yes"/>
      <point x="402" y="500" type="line"/>
      <point x="267" y="500" type="line"/>
      <point x="140" y="-50" type="line"/>
      <point x="132" y="-81"/>
      <point x="120" y="-102"/>
      <point x="85" y="-102" type="curve" smooth="yes"/>
      <point x="76" y="-102" type="line"/>
    </contour>
  </outline>
</glyph>
<glyph name="uni0250" format="2">
	<unicode hex="0250"/>
	<advance width="552"/>
	<outline>
		<contour>
			<point x="586" y="354" type="line"/>
			<point x="610" y="460"/>
			<point x="558" y="513"/>
			<point name="n03" x="430" y="513" type="curve" smooth="yes"/>
			<point x="371" y="513"/>
			<point x="315" y="488"/>
			<point x="260" y="437" type="curve"/>
			<point name="n07" x="266" y="471" type="line"/>
			<point x="265" y="481"/>
			<point x="264" y="491"/>
			<point name="n10" x="263" y="500" type="curve"/>
			<point name="n11" x="173" y="500" type="line"/>
			<point x="177" y="477"/>
			<point x="175" y="448"/>
			<point x="167" y="412" type="curve" smooth="yes"/>
			<point x="109" y="159" type="line" smooth="yes"/>
			<point x="82" y="44"/>
			<point x="134" y="-13"/>
			<point name="n18" x="264" y="-13" type="curve" smooth="yes"/>
			<point x="389" y="-13"/>
			<point x="486" y="41"/>
			<point name="n21" x="507" y="134" type="curve"/>
			<point name="n22" x="414" y="134" type="line"/>
			<point x="402" y="80"/>
			<point x="345" y="52"/>
			<point name="n25" x="283" y="52" type="curve" smooth="yes"/>
			<point x="203" y="52"/>
			<point x="182" y="92"/>
			<point x="203" y="184" type="curve"/>
			<point name="n29" x="290" y="184" type="line" smooth="yes"/>
			<point x="438" y="184"/>
			<point x="564" y="259"/>
			<point x="585" y="352" type="curve"/>
		</contour>
		<contour>
			<point name="hr02" x="426" y="443" type="line"/>
			<point x="463" y="443"/>
			<point x="506" y="393"/>
			<point x="497" y="354" type="curve" smooth="yes"/>
			<point x="482" y="291"/>
			<point x="400" y="252"/>
			<point name="n39" x="285" y="252" type="curve" smooth="yes"/>
			<point x="221" y="252" type="line"/>
			<point x="233" y="304" type="line" smooth="yes"/>
			<point x="254" y="397"/>
			<point x="319" y="443"/>
			<point name="n44" x="427" y="443" type="curve"/>
		</contour>
	</outline>
</glyph>
<glyph name="uni0253" format="2">
  <advance width="590"/>
  <unicode hex="0253"/>
  <outline>
    <component base="uni0250"/>
    <contour>
      <point x="321" y="555" type="line" smooth="yes"/>
      <point x="331" y="602"/>
      <point x="365" y="626"/>
      <point x="424" y="626" type="curve" smooth="yes"/>
      <point x="462" y="626"/>
      <point x="492" y="616"/>
      <point x="512" y="595" type="curve"/>
      <point x="604" y="668" type="line"/>
      <point x="564" y="708"/>
      <point x="492" y="735"/>
      <point x="423" y="735" type="curve" smooth="yes"/>
      <point x="290" y="735"/>
      <point x="212" y="672"/>
      <point x="184" y="545" type="curve" smooth="yes"/>
      <point x="174" y="500" type="line"/>
      <point x="309" y="500" type="line"/>
    </contour>
  </outline>
</glyph>
<glyph name="uni0255" format="2">
	<unicode hex="0255"/>
	<advance width="555"/>
	<outline>
		<contour>
			<point x="386" y="66" type="line"/>
			<point x="366" y="57"/>
			<point x="345" y="52"/>
			<point name="n03" x="324" y="52" type="curve" smooth="yes"/>
			<point x="295" y="52"/>
			<point x="269" y="60"/>
			<point x="245" y="75" type="curve"/>
			<point x="278" y="120"/>
			<point x="327" y="152"/>
			<point x="392" y="172" type="curve" smooth="yes"/>
			<point x="398" y="174"/>
			<point x="404" y="175"/>
			<point name="n12" x="410" y="175" type="curve" smooth="yes"/>
			<point x="436" y="175"/>
			<point x="453" y="153"/>
			<point x="447" y="128" type="curve" smooth="yes"/>
			<point x="441" y="103"/>
			<point x="420" y="81"/>
			<point x="385" y="65" type="curve"/>
		</contour>
		<contour>
			<point x="535" y="135" type="line"/>
			<point x="549" y="194"/>
			<point x="501" y="234"/>
			<point name="n22" x="432" y="234" type="curve" smooth="yes"/>
			<point x="360" y="234"/>
			<point x="312" y="211"/>
			<point x="205" y="108" type="curve"/>
			<point x="185" y="136"/>
			<point x="184" y="186"/>
			<point x="200" y="255" type="curve" smooth="yes"/>
			<point x="227" y="374"/>
			<point x="301" y="450"/>
			<point name="n31" x="382" y="450" type="curve" smooth="yes"/>
			<point x="467" y="450"/>
			<point x="502" y="417"/>
			<point x="488" y="357" type="curve"/>
			<point x="487" y="351"/>
			<point x="486" y="346"/>
			<point x="484" y="342" type="curve"/>
			<point x="573" y="342" type="line"/>
			<point x="575" y="351" type="line" smooth="yes"/>
			<point x="600" y="458"/>
			<point x="533" y="511"/>
			<point name="n42" x="402" y="511" type="curve" smooth="yes"/>
			<point x="251" y="511"/>
			<point x="146" y="413"/>
			<point x="108" y="248" type="curve" smooth="yes"/>
			<point x="89" y="165"/>
			<point x="102" y="89"/>
			<point x="147" y="39" type="curve"/>
			<point x="100" y="-14"/>
			<point x="60" y="-71"/>
			<point x="30" y="-133" type="curve"/>
			<point x="77" y="-150" type="line"/>
			<point x="110" y="-89"/>
			<point x="148" y="-31"/>
			<point x="189" y="14" type="curve"/>
			<point x="217" y="-6"/>
			<point x="258" y="-16"/>
			<point name="n58" x="311" y="-16" type="curve" smooth="yes"/>
			<point x="410" y="-16"/>
			<point x="517" y="56"/>
			<point x="535" y="132" type="curve"/>
		</contour>
	</outline>
</glyph>
<glyph name="uni0256" format="2">
  <advance width="591"/>
  <unicode hex="0256"/>
  <outline>
    <component base="d"/>
    <contour>
      <point x="427.85" y="39" type="line"/>
      <point x="561.85" y="39" type="line"/>
      <point x="540.816" y="-49" type="line" smooth="yes"/>
      <point x="533.36" y="-80"/>
      <point x="555.697" y="-90"/>
      <point x="577.697" y="-90" type="curve" smooth="yes"/>
      <point x="602.697" y="-90"/>
      <point x="624.759" y="-77"/>
      <point x="637.355" y="-65" type="curve"/>
      <point x="688.849" y="-139" type="line"/>
      <point x="642.994" y="-173"/>
      <point x="584.871" y="-199"/>
      <point x="516.871" y="-199" type="curve" smooth="yes"/>
      <point x="430.871" y="-199"/>
      <point x="385.517" y="-144"/>
      <point x="405.153" y="-59" type="curve" smooth="yes"/>
    </contour>
  </outline>
</glyph>
<glyph name="uni0257" format="2">
  <advance width="591"/>
  <unicode hex="0257"/>
  <outline>
    <contour>
      <point x="98" y="169" type="curve" smooth="yes"/>
      <point x="98" y="54"/>
      <point x="152" y="-14"/>
      <point x="277" y="-14" type="curve" smooth="yes"/>
      <point x="341" y="-14"/>
      <point x="397" y="31"/>
      <point x="433" y="65" type="curve"/>
      <point x="418" y="-1" type="line"/>
      <point x="553" y="-1" type="line"/>
      <point x="668" y="500" type="line"/>
      <point x="534" y="500" type="line"/>
      <point x="523" y="454" type="line"/>
      <point x="500" y="494"/>
      <point x="469" y="514"/>
      <point x="390" y="514" type="curve" smooth="yes"/>
      <point x="207" y="514"/>
      <point x="98" y="330"/>
    </contour>
    <contour>
      <point x="233" y="178" type="curve" smooth="yes"/>
      <point x="233" y="278"/>
      <point x="297" y="428"/>
      <point x="403" y="428" type="curve" smooth="yes"/>
      <point x="466" y="428"/>
      <point x="486" y="375"/>
      <point x="486" y="322" type="curve" smooth="yes"/>
      <point x="486" y="230"/>
      <point x="427" y="72"/>
      <point x="315" y="72" type="curve" smooth="yes"/>
      <point x="250" y="72"/>
      <point x="233" y="126"/>
    </contour>
    <contour>
      <point x="534" y="500" type="line"/>
      <point x="668" y="500" type="line"/>
      <point x="688" y="588" type="line" smooth="yes"/>
      <point x="695" y="619"/>
      <point x="722" y="629"/>
      <point x="744" y="629" type="curve" smooth="yes"/>
      <point x="769" y="629"/>
      <point x="785" y="616"/>
      <point x="792" y="604" type="curve"/>
      <point x="878" y="678" type="line"/>
      <point x="848" y="712"/>
      <point x="802" y="738"/>
      <point x="734" y="738" type="curve" smooth="yes"/>
      <point x="648" y="738"/>
      <point x="577" y="683"/>
      <point x="557" y="598" type="curve" smooth="yes"/>
    </contour>
  </outline>
</glyph>
<glyph name="uni0260" format="2">
  <advance width="621"/>
  <unicode hex="0260"/>
  <outline>
    <component base="g"/>
    <contour>
      <point x="655" y="444" type="line"/>
      <point x="670" y="507" type="line" smooth="yes"/>
      <point x="675" y="528"/>
      <point x="689" y="542"/>
      <point x="725" y="542" type="curve" smooth="yes"/>
      <point x="744" y="542"/>
      <point x="759" y="538"/>
      <point x="772" y="530" type="curve"/>
      <point x="797" y="642" type="line"/>
      <point x="784" y="649"/>
      <point x="745" y="657"/>
      <point x="708" y="657" type="curve" smooth="yes"/>
      <point x="617" y="657"/>
      <point x="558" y="609"/>
      <point x="538" y="519" type="curve" smooth="yes"/>
      <point x="521" y="444" type="line"/>
    </contour>
  </outline>
</glyph>
<glyph name="uni0264" format="2">
	<unicode hex="0264"/>
	<advance width="579"/>
	<outline>
		<contour>
			<point x="346" y="98" type="line"/>
			<point x="344" y="89" type="line"/>
			<point x="338" y="65"/>
			<point x="324" y="53"/>
			<point x="302" y="53" type="curve" smooth="yes"/>
			<point name="n05" x="299" y="53" type="line" smooth="yes"/>
			<point x="278" y="53"/>
			<point x="271" y="64"/>
			<point x="276" y="87" type="curve" smooth="yes"/>
			<point x="278" y="96" type="line"/>
			<point x="295" y="124"/>
			<point x="312" y="148"/>
			<point x="328" y="168" type="curve"/>
			<point x="340" y="127"/>
			<point x="345" y="103"/>
			<point x="344" y="96" type="curve"/>
		</contour>
		<contour>
			<point x="666" y="457" type="line"/>
			<point x="652" y="502"/>
			<point x="639" y="514"/>
			<point name="n19" x="607" y="514" type="curve" smooth="yes"/>
			<point x="554" y="514"/>
			<point x="473" y="451"/>
			<point x="366" y="326" type="curve"/>
			<point x="314" y="451"/>
			<point x="263" y="514"/>
			<point x="212" y="514" type="curve" smooth="yes"/>
			<point x="177" y="514"/>
			<point x="157" y="498"/>
			<point x="125" y="456" type="curve" smooth="yes"/>
			<point x="121" y="451"/>
			<point x="120" y="447"/>
			<point x="119" y="444" type="curve"/>
			<point x="117" y="435"/>
			<point x="119" y="430"/>
			<point x="128" y="430" type="curve" smooth="yes"/>
			<point x="140" y="430"/>
			<point x="156" y="449"/>
			<point x="171" y="449" type="curve" smooth="yes"/>
			<point x="202" y="449"/>
			<point x="231" y="421"/>
			<point x="259" y="365" type="curve"/>
			<point x="266" y="352"/>
			<point x="282" y="314"/>
			<point x="305" y="251" type="curve"/>
			<point x="240" y="166"/>
			<point x="207" y="118"/>
			<point x="201" y="92" type="curve" smooth="yes"/>
			<point x="186" y="28"/>
			<point x="222" y="-14"/>
			<point name="n49" x="286" y="-14" type="curve" smooth="yes"/>
			<point x="351" y="-14"/>
			<point x="409" y="30"/>
			<point x="422" y="86" type="curve" smooth="yes"/>
			<point x="424" y="95" type="line"/>
			<point x="427" y="119"/>
			<point x="416" y="173"/>
			<point x="393" y="251" type="curve"/>
			<point x="452" y="320"/>
			<point x="484" y="358"/>
			<point x="491" y="365" type="curve" smooth="yes"/>
			<point x="545" y="421"/>
			<point x="588" y="449"/>
			<point name="n62" x="619" y="449" type="curve" smooth="yes"/>
			<point x="633" y="449"/>
			<point x="641" y="430"/>
			<point x="651" y="430" type="curve" smooth="yes"/>
			<point x="660" y="430"/>
			<point x="667" y="436"/>
			<point x="669" y="444" type="curve"/>
			<point x="670" y="447"/>
			<point x="669" y="451"/>
			<point x="667" y="456" type="curve"/>
		</contour>
	</outline>
</glyph>
<glyph name="uni0266" format="2">
  <advance width="573"/>
  <unicode hex="0266"/>
  <outline>
    <component base="n" xOffset="1"/>
    <contour>
      <point x="189" y="500" type="line"/>
      <point x="324" y="500" type="line"/>
      <point x="332" y="540" type="line" smooth="yes"/>
      <point x="342" y="592"/>
      <point x="373" y="627"/>
      <point x="437" y="627" type="curve" smooth="yes"/>
      <point x="484" y="627"/>
      <point x="517" y="608"/>
      <point x="528" y="593" type="curve"/>
      <point x="601" y="688" type="line"/>
      <point x="567" y="717"/>
      <point x="503" y="736"/>
      <point x="435" y="736" type="curve" smooth="yes"/>
      <point x="319" y="736"/>
      <point x="227" y="680"/>
      <point x="200" y="552" type="curve" smooth="yes"/>
    </contour>
  </outline>
</glyph>
<glyph name="uni0267" format="2">
	<unicode hex="0267"/>
	<advance width="574"/>
	<outline>
		<contour>
			<point x="490" y="-60" type="line"/>
			<point x="580" y="329" type="line" smooth="yes"/>
			<point x="608" y="452"/>
			<point x="560" y="513"/>
			<point name="n04" x="435" y="513" type="curve" smooth="yes"/>
			<point x="361" y="513"/>
			<point x="304" y="488"/>
			<point x="261" y="437" type="curve"/>
			<point x="287" y="552" type="line" smooth="yes"/>
			<point x="307" y="637"/>
			<point x="359" y="670"/>
			<point name="n11" x="456" y="670" type="curve" smooth="yes"/>
			<point x="487" y="670"/>
			<point x="506" y="661"/>
			<point x="513" y="644" type="curve"/>
			<point x="577" y="697" type="line"/>
			<point x="560" y="719"/>
			<point x="512" y="737"/>
			<point name="n18" x="475" y="737" type="curve" smooth="yes"/>
			<point x="312" y="737"/>
			<point x="225" y="679"/>
			<point x="196" y="552" type="curve" smooth="yes"/>
			<point name="n22" x="69" y="0" type="line"/>
			<point x="159" y="0" type="line"/>
			<point x="238" y="341" type="line" smooth="yes"/>
			<point x="251" y="396"/>
			<point x="330" y="447"/>
			<point name="n27" x="411" y="447" type="curve" smooth="yes"/>
			<point x="476" y="447"/>
			<point x="505" y="397"/>
			<point x="486" y="314" type="curve" smooth="yes"/>
			<point x="400" y="-61" type="line" smooth="yes"/>
			<point x="390" y="-103"/>
			<point x="356" y="-129"/>
			<point name="n34" x="322" y="-129" type="curve" smooth="yes"/>
			<point x="293" y="-129"/>
			<point x="271" y="-114"/>
			<point x="257" y="-85" type="curve"/>
			<point x="187" y="-142" type="line"/>
			<point x="213" y="-180"/>
			<point x="255" y="-199"/>
			<point name="n41" x="312" y="-199" type="curve" smooth="yes"/>
			<point x="399" y="-199"/>
			<point x="470" y="-145"/>
			<point x="489" y="-61" type="curve"/>
		</contour>
	</outline>
</glyph>
<glyph name="uni0268" format="2">
	<unicode hex="0268"/>
	<advance width="320"/>
	<outline>
		<contour>
			<point name="n00" x="346" y="222" type="line"/>
			<point name="n01" x="359" y="278" type="line"/>
			<point x="269" y="278" type="line"/>
			<point name="n03" x="320" y="500" type="line"/>
			<point x="230" y="500" type="line"/>
			<point x="179" y="278" type="line"/>
			<point x="89" y="278" type="line"/>
			<point name="n07" x="76" y="222" type="line"/>
			<point x="166" y="222" type="line"/>
			<point name="n09" x="115" y="0" type="line"/>
			<point x="205" y="0" type="line"/>
			<point x="256" y="222" type="line"/>
		</contour>
		<contour>
			<point name="n12" x="353" y="630" type="line"/>
			<point name="n13" x="375" y="722" type="line"/>
			<point x="279" y="722" type="line"/>
			<point x="257" y="630" type="line"/>
		</contour>
	</outline>
</glyph>
<glyph name="uni026B" format="2">
  <advance width="264"/>
  <unicode hex="026B"/>
  <outline>
    <component base="l"/>
    <contour>
      <point x="180" y="443" type="line"/>
      <point x="171" y="448" type="line" smooth="yes"/>
      <point x="156" y="456"/>
      <point x="145" y="459"/>
      <point x="126" y="459" type="curve" smooth="yes"/>
      <point x="72" y="459"/>
      <point x="32" y="422"/>
      <point x="6" y="345" type="curve"/>
      <point x="58" y="345" type="line"/>
      <point x="74" y="374"/>
      <point x="88" y="385"/>
      <point x="112" y="385" type="curve" smooth="yes"/>
      <point x="133" y="385"/>
      <point x="154" y="373"/>
      <point x="172" y="362" type="curve" smooth="yes"/>
      <point x="180" y="357" type="line"/>
    </contour>
    <contour>
      <point x="266" y="330" type="line"/>
      <point x="275" y="325" type="line" smooth="yes"/>
      <point x="290" y="317"/>
      <point x="301" y="314"/>
      <point x="320" y="314" type="curve" smooth="yes"/>
      <point x="374" y="314"/>
      <point x="414" y="351"/>
      <point x="440" y="428" type="curve"/>
      <point x="388" y="428" type="line"/>
      <point x="372" y="399"/>
      <point x="358" y="388"/>
      <point x="334" y="388" type="curve" smooth="yes"/>
      <point x="313" y="388"/>
      <point x="292" y="400"/>
      <point x="274" y="411" type="curve" smooth="yes"/>
      <point x="266" y="416" type="line"/>
    </contour>
  </outline>
</glyph>
<glyph name="uni026C" format="2">
	<unicode hex="026C"/>
	<advance width="522"/>
	<outline>
		<contour>
			<point name="n00" x="307" y="349" type="line"/>
			<point x="224" y="368"/>
			<point x="215" y="379"/>
			<point x="222" y="409" type="curve" smooth="yes"/>
			<point x="230" y="443"/>
			<point x="259" y="462"/>
			<point name="n06" x="297" y="462" type="curve" smooth="yes"/>
			<point x="308" y="462"/>
			<point x="319" y="460"/>
			<point x="331" y="456" type="curve"/>
		</contour>
		<contour>
			<point x="552" y="345" type="line"/>
			<point x="551" y="346" type="line"/>
		</contour>
		<contour>
			<point x="550" y="346" type="line"/>
			<point x="521" y="386" type="line"/>
			<point x="472" y="362"/>
			<point x="430" y="348"/>
			<point x="394" y="344" type="curve"/>
			<point name="n17" x="482" y="722" type="line"/>
			<point x="392" y="722" type="line"/>
			<point x="342" y="505" type="line"/>
			<point x="324" y="513"/>
			<point x="305" y="517"/>
			<point name="n22" x="287" y="517" type="curve" smooth="yes"/>
			<point x="238" y="517"/>
			<point x="194" y="490"/>
			<point x="154" y="435" type="curve" smooth="yes"/>
			<point x="149" y="428"/>
			<point x="145" y="419"/>
			<point x="143" y="409" type="curve"/>
			<point x="128" y="345"/>
			<point x="186" y="295"/>
			<point name="n31" x="290" y="283" type="curve"/>
			<point name="n32" x="225" y="1" type="line"/>
			<point x="315" y="1" type="line"/>
			<point x="381" y="284" type="line"/>
			<point x="432" y="293"/>
			<point x="489" y="314"/>
			<point x="551" y="346" type="curve"/>
		</contour>
	</outline>
</glyph>
<glyph name="uni026F" format="2">
	<unicode hex="026F"/>
	<advance width="896"/>
	<outline>
		<contour>
			<point name="n00" x="826" y="0" type="line"/>
			<point name="n01" x="941" y="500" type="line"/>
			<point x="851" y="500" type="line"/>
			<point x="777" y="177" type="line" smooth="yes"/>
			<point x="763" y="117"/>
			<point name="hr01" x="682" y="51"/>
			<point x="614" y="51" type="curve" smooth="yes"/>
			<point x="551" y="51"/>
			<point x="516" y="107"/>
			<point x="532" y="177" type="curve" smooth="yes"/>
			<point x="606" y="500" type="line"/>
			<point x="516" y="500" type="line"/>
			<point x="442" y="177" type="line" smooth="yes"/>
			<point x="428" y="117"/>
			<point x="350" y="51"/>
			<point name="n15" x="285" y="51" type="curve" smooth="yes"/>
			<point x="217" y="51"/>
			<point x="189" y="93"/>
			<point x="201" y="177" type="curve"/>
			<point x="275" y="500" type="line"/>
			<point x="185" y="500" type="line"/>
			<point x="111" y="177" type="line" smooth="yes"/>
			<point x="82" y="50"/>
			<point x="129" y="-13"/>
			<point name="n24" x="252" y="-13" type="curve" smooth="yes"/>
			<point x="318" y="-13"/>
			<point x="379" y="17"/>
			<point x="435" y="76" type="curve"/>
			<point x="461" y="9"/>
			<point x="498" y="-12"/>
			<point x="584" y="-12" type="curve" smooth="yes"/>
			<point x="643" y="-12"/>
			<point x="699" y="15"/>
			<point x="752" y="70" type="curve"/>
			<point name="hr02" x="736" y="0" type="line"/>
		</contour>
	</outline>
</glyph>
<glyph name="uni0270" format="2">
	<unicode hex="0270"/>
	<advance width="896"/>
	<outline>
		<contour>
			<point name="n00" x="781" y="-197" type="line"/>
			<point name="n01" x="941" y="500" type="line"/>
			<point x="851" y="500" type="line"/>
			<point x="777" y="177" type="line" smooth="yes"/>
			<point x="763" y="117"/>
			<point x="682" y="51"/>
			<point x="614" y="51" type="curve" smooth="yes"/>
			<point x="551" y="51"/>
			<point x="516" y="107"/>
			<point x="532" y="177" type="curve" smooth="yes"/>
			<point x="606" y="500" type="line"/>
			<point x="516" y="500" type="line"/>
			<point x="442" y="177" type="line" smooth="yes"/>
			<point x="428" y="117"/>
			<point x="350" y="51"/>
			<point name="n15" x="285" y="51" type="curve" smooth="yes"/>
			<point x="217" y="51"/>
			<point x="189" y="93"/>
			<point x="201" y="177" type="curve"/>
			<point x="275" y="500" type="line"/>
			<point x="185" y="500" type="line"/>
			<point x="111" y="177" type="line" smooth="yes"/>
			<point x="82" y="50"/>
			<point x="129" y="-13"/>
			<point name="n24" x="252" y="-13" type="curve" smooth="yes"/>
			<point x="318" y="-13"/>
			<point x="379" y="17"/>
			<point x="435" y="76" type="curve"/>
			<point x="461" y="9"/>
			<point x="498" y="-12"/>
			<point x="584" y="-12" type="curve" smooth="yes"/>
			<point x="643" y="-12"/>
			<point x="699" y="15"/>
			<point x="752" y="70" type="curve"/>
			<point x="691" y="-197" type="line"/>
		</contour>
	</outline>
</glyph>
<glyph name="uni0271" format="2">
	<unicode hex="0271"/>
	<advance width="896"/>
	<outline>
		<contour>
			<point x="812" y="-59" type="line"/>
			<point x="901" y="323" type="line" smooth="yes"/>
			<point x="930" y="450"/>
			<point x="882" y="513"/>
			<point x="759" y="513" type="curve" smooth="yes"/>
			<point x="693" y="513"/>
			<point x="633" y="483"/>
			<point x="577" y="424" type="curve"/>
			<point x="550" y="493"/>
			<point x="511" y="512"/>
			<point name="n10" x="427" y="512" type="curve" smooth="yes"/>
			<point x="368" y="512"/>
			<point x="312" y="485"/>
			<point x="259" y="430" type="curve"/>
			<point name="n14" x="275" y="499" type="line"/>
			<point x="185" y="499" type="line"/>
			<point name="n16" x="70" y="-1" type="line"/>
			<point x="160" y="-1" type="line"/>
			<point x="234" y="322" type="line" smooth="yes"/>
			<point x="247" y="378"/>
			<point name="hr02" x="323" y="449"/>
			<point name="n21" x="397" y="449" type="curve" smooth="yes"/>
			<point x="464" y="449"/>
			<point x="492" y="389"/>
			<point x="477" y="322" type="curve" smooth="yes"/>
			<point x="403" y="-1" type="line"/>
			<point x="493" y="-1" type="line"/>
			<point x="567" y="322" type="line" smooth="yes"/>
			<point x="581" y="382"/>
			<point x="658" y="448"/>
			<point x="724" y="448" type="curve" smooth="yes"/>
			<point x="792" y="448"/>
			<point x="820" y="406"/>
			<point x="808" y="322" type="curve"/>
			<point x="720" y="-60" type="line" smooth="yes"/>
			<point x="710" y="-102"/>
			<point x="674" y="-128"/>
			<point name="n37" x="636" y="-128" type="curve" smooth="yes"/>
			<point x="604" y="-128"/>
			<point x="582" y="-113"/>
			<point x="568" y="-84" type="curve"/>
			<point x="498" y="-141" type="line"/>
			<point x="523" y="-179"/>
			<point x="566" y="-198"/>
			<point name="n44" x="626" y="-198" type="curve" smooth="yes"/>
			<point x="715" y="-198"/>
			<point x="790" y="-145"/>
			<point x="810" y="-60" type="curve"/>
		</contour>
	</outline>
</glyph>
<glyph name="uni0272" format="2">
  <advance width="619"/>
  <unicode hex="0272"/>
  <outline>
    <component base="n"/>
    <contour>
      <point x="73" y="0" type="line"/>
      <point x="63" y="-42" type="line" smooth="yes"/>
      <point x="53" y="-85"/>
      <point x="30" y="-95"/>
      <point x="-29" y="-95" type="curve" smooth="yes"/>
      <point x="-55" y="-95" type="line"/>
      <point x="-78" y="-200" type="line"/>
      <point x="-51" y="-200" type="line" smooth="yes"/>
      <point x="63" y="-200"/>
      <point x="166" y="-186"/>
      <point x="194" y="-62" type="curve" smooth="yes"/>
      <point x="208" y="0" type="line"/>
    </contour>
  </outline>
</glyph>
<glyph name="uni0273" format="2">
  <advance width="620"/>
  <unicode hex="0273"/>
  <outline>
    <component base="n"/>
    <contour>
      <point x="404" y="0" type="line"/>
      <point x="389" y="-67"/>
      <point x="386" y="-85"/>
      <point x="386" y="-103" type="curve" smooth="yes"/>
      <point x="386" y="-157"/>
      <point x="415" y="-197"/>
      <point x="480" y="-197" type="curve" smooth="yes"/>
      <point x="599" y="-197" type="line"/>
      <point x="621" y="-94" type="line"/>
      <point x="569" y="-94" type="line" smooth="yes"/>
      <point x="541" y="-94"/>
      <point x="527" y="-81"/>
      <point x="527" y="-58" type="curve" smooth="yes"/>
      <point x="527" y="-49"/>
      <point x="529" y="-40"/>
      <point x="539" y="0" type="curve"/>
    </contour>
  </outline>
</glyph>
<glyph name="uni0274" format="2">
	<unicode hex="0274"/>
	<advance width="535"/>
	<outline>
		<contour>
			<point name="n00" x="478" y="0" type="line"/>
			<point name="n01" x="593" y="500" type="line"/>
			<point x="515" y="500" type="line"/>
			<point x="423" y="98" type="line"/>
			<point x="282" y="500" type="line"/>
			<point x="172" y="500" type="line"/>
			<point x="57" y="0" type="line"/>
			<point x="136" y="0" type="line"/>
			<point x="229" y="402" type="line"/>
			<point x="367" y="0" type="line"/>
		</contour>
	</outline>
</glyph>
<glyph name="uni0276" format="2">
	<unicode hex="0276"/>
	<advance width="744"/>
	<outline>
		<contour>
			<point x="416" y="96" type="line"/>
			<point x="384" y="75"/>
			<point x="346" y="64"/>
			<point name="n03" x="301" y="64" type="curve" smooth="yes"/>
			<point x="194" y="64"/>
			<point x="153" y="135"/>
			<point x="180" y="250" type="curve" smooth="yes"/>
			<point x="206" y="364"/>
			<point x="281" y="436"/>
			<point name="n09" x="387" y="436" type="curve" smooth="yes"/>
			<point x="424" y="436"/>
			<point name="hr01" x="457" y="427"/>
			<point x="488" y="409" type="curve"/>
		</contour>
		<contour>
			<point x="699" y="0" type="line"/>
			<point x="716" y="74" type="line"/>
			<point name="n15" x="489" y="74" type="line"/>
			<point name="n16" x="523" y="219" type="line"/>
			<point x="735" y="219" type="line"/>
			<point x="751" y="292" type="line"/>
			<point name="n19" x="539" y="292" type="line"/>
			<point x="571" y="427" type="line"/>
			<point name="n21" x="798" y="427" type="line"/>
			<point name="n22" x="814" y="500" type="line"/>
			<point x="481" y="500" type="line"/>
			<point x="457" y="507"/>
			<point name="hr02" x="431" y="510"/>
			<point name="n26" x="404" y="510" type="curve" smooth="yes"/>
			<point x="257" y="510"/>
			<point x="135" y="394"/>
			<point x="102" y="250" type="curve" smooth="yes"/>
			<point x="67" y="100"/>
			<point x="141" y="-10"/>
			<point name="n32" x="284" y="-10" type="curve" smooth="yes"/>
			<point x="307" y="-10"/>
			<point x="332" y="-7"/>
			<point name="n35" x="357" y="-1" type="curve"/>
		</contour>
	</outline>
</glyph>
<glyph name="uni0278" format="2">
	<unicode hex="0278"/>
	<advance width="592"/>
	<outline>
		<contour>
			<point x="264" y="57" type="line"/>
			<point x="206" y="74"/>
			<point x="180" y="155"/>
			<point x="201" y="247" type="curve" smooth="yes"/>
			<point x="222" y="339"/>
			<point x="286" y="420"/>
			<point x="352" y="437" type="curve"/>
		</contour>
		<contour>
			<point x="600" y="250" type="line"/>
			<point x="633" y="395"/>
			<point x="578" y="496"/>
			<point x="459" y="511" type="curve"/>
			<point name="n11" x="508" y="723" type="line"/>
			<point x="418" y="723" type="line"/>
			<point x="369" y="511" type="line"/>
			<point x="244" y="496"/>
			<point x="141" y="395"/>
			<point x="108" y="250" type="curve" smooth="yes"/>
			<point x="75" y="106"/>
			<point x="129" y="5"/>
			<point x="249" y="-10" type="curve"/>
			<point name="n20" x="205" y="-199" type="line"/>
			<point x="295" y="-199" type="line"/>
			<point x="339" y="-8" type="line"/>
			<point x="464" y="7"/>
			<point x="566" y="104"/>
			<point x="599" y="249" type="curve"/>
		</contour>
		<contour>
			<point x="505" y="248" type="line"/>
			<point x="484" y="156"/>
			<point x="420" y="75"/>
			<point x="354" y="58" type="curve"/>
			<point x="442" y="437" type="line"/>
			<point x="500" y="420"/>
			<point x="526" y="339"/>
			<point x="505" y="247" type="curve"/>
		</contour>
	</outline>
</glyph>
<glyph name="uni027B" format="2">
  <advance width="413"/>
  <unicode hex="027B"/>
  <outline>
    <component base="uni0279"/>
    <contour>
      <point x="210" y="0" type="line"/>
      <point x="195" y="-67"/>
      <point x="192" y="-85"/>
      <point x="192" y="-103" type="curve" smooth="yes"/>
      <point x="192" y="-157"/>
      <point x="221" y="-197"/>
      <point x="286" y="-197" type="curve" smooth="yes"/>
      <point x="405" y="-197" type="line"/>
      <point x="427" y="-94" type="line"/>
      <point x="375" y="-94" type="line" smooth="yes"/>
      <point x="347" y="-94"/>
      <point x="333" y="-81"/>
      <point x="333" y="-58" type="curve" smooth="yes"/>
      <point x="333" y="-49"/>
      <point x="335" y="-40"/>
      <point x="345" y="0" type="curve"/>
    </contour>
  </outline>
</glyph>
<glyph name="uni027E" format="2">
  <advance width="462"/>
  <unicode hex="027E"/>
  <outline>
    <contour>
      <point x="74" y="0" type="line"/>
      <point x="209" y="0" type="line"/>
      <point x="277" y="318" type="line" smooth="yes"/>
      <point x="288" y="370"/>
      <point x="318" y="405"/>
      <point x="382" y="405" type="curve" smooth="yes"/>
      <point x="429" y="405"/>
      <point x="462" y="386"/>
      <point x="473" y="371" type="curve"/>
      <point x="546" y="466" type="line"/>
      <point x="512" y="495"/>
      <point x="448" y="514"/>
      <point x="380" y="514" type="curve" smooth="yes"/>
      <point x="264" y="514"/>
      <point x="173" y="458"/>
      <point x="145" y="330" type="curve" smooth="yes"/>
    </contour>
  </outline>
</glyph>
<glyph name="uni027F" format="2">
	<unicode hex="027F"/>
	<advance width="462"/>
	<outline>
		<contour>
			<point x="176" y="458" type="line"/>
			<point x="177" y="457" type="line"/>
		</contour>
		<contour>
			<point x="177" y="457" type="curve"/>
			<point x="231" y="420" type="line"/>
			<point x="246" y="439"/>
			<point x="279" y="449"/>
			<point name="n06" x="328" y="449" type="curve" smooth="yes"/>
			<point x="394" y="449"/>
			<point x="417" y="406"/>
			<point x="397" y="321" type="curve" smooth="yes"/>
			<point name="n10" x="323" y="0" type="line"/>
			<point x="413" y="0" type="line"/>
			<point x="487" y="321" type="line" smooth="yes"/>
			<point x="518" y="456"/>
			<point x="468" y="512"/>
			<point name="n15" x="336" y="512" type="curve" smooth="yes"/>
			<point x="261" y="512"/>
			<point x="209" y="494"/>
		</contour>
	</outline>
</glyph>
<glyph name="uni0280" format="2">
  <advance width="580"/>
  <unicode hex="0280"/>
  <outline>
    <contour>
      <point x="276" y="294" type="line"/>
      <point x="370" y="294" type="line" smooth="yes"/>
      <point x="419" y="294"/>
      <point x="433" y="311"/>
      <point x="441" y="346" type="curve" smooth="yes"/>
      <point x="448" y="379"/>
      <point x="442" y="398"/>
      <point x="399" y="398" type="curve" smooth="yes"/>
      <point x="300" y="398" type="line"/>
    </contour>
    <contour>
      <point x="73" y="0" type="line"/>
      <point x="188" y="500" type="line"/>
      <point x="440" y="500" type="line" smooth="yes"/>
      <point x="545" y="500"/>
      <point x="603" y="442"/>
      <point x="582" y="353" type="curve"/>
      <point x="571" y="302"/>
      <point x="538" y="259"/>
      <point x="497" y="235" type="curve"/>
      <point x="498" y="239" type="line"/>
      <point x="520" y="224"/>
      <point x="533" y="184"/>
      <point x="525" y="125" type="curve"/>
      <point x="523" y="113" type="line"/>
      <point x="517" y="69"/>
      <point x="520" y="46"/>
      <point x="530" y="0" type="curve"/>
      <point x="395" y="0" type="line"/>
      <point x="394" y="41"/>
      <point x="395" y="68"/>
      <point x="402" y="122" type="curve" smooth="yes"/>
      <point x="411" y="185"/>
      <point x="402" y="194"/>
      <point x="356" y="194" type="curve" smooth="yes"/>
      <point x="253" y="194" type="line"/>
      <point x="208" y="0" type="line"/>
    </contour>
  </outline>
</glyph>
<glyph name="uni0282" format="2">
  <advance width="503"/>
  <unicode hex="0282"/>
  <outline>
    <component base="s"/>
    <contour>
      <point x="86" y="154" type="line"/>
      <point x="30" y="-89" type="line" smooth="yes"/>
      <point x="28" y="-98"/>
      <point x="27" y="-107"/>
      <point x="27" y="-115" type="curve" smooth="yes"/>
      <point x="27" y="-166"/>
      <point x="80" y="-200"/>
      <point x="149" y="-200" type="curve" smooth="yes"/>
      <point x="257" y="-200"/>
      <point x="332" y="-176"/>
      <point x="356" y="-85" type="curve"/>
      <point x="205" y="-85" type="line"/>
      <point x="197" y="-116"/>
      <point x="177" y="-135"/>
      <point x="154" y="-135" type="curve" smooth="yes"/>
      <point x="130" y="-135"/>
      <point x="117" y="-124"/>
      <point x="117" y="-101" type="curve" smooth="yes"/>
      <point x="117" y="-97"/>
      <point x="117" y="-92"/>
      <point x="118" y="-88" type="curve" smooth="yes"/>
      <point x="174" y="154" type="line"/>
    </contour>
  </outline>
</glyph>
<glyph name="uni0283" format="2">
	<unicode hex="0283"/>
	<advance width="360"/>
	<outline>
		<contour>
			<point x="509" y="722" type="line"/>
			<point x="497" y="731"/>
			<point x="476" y="735"/>
			<point name="n03" x="446" y="735" type="curve" smooth="yes"/>
			<point x="328" y="735"/>
			<point x="264" y="685"/>
			<point x="238" y="573" type="curve" smooth="yes"/>
			<point x="228" y="528"/>
			<point x="217" y="443"/>
			<point x="205" y="317" type="curve" smooth="yes"/>
			<point x="186" y="117"/>
			<point x="172" y="-4"/>
			<point x="162" y="-46" type="curve" smooth="yes"/>
			<point x="147" y="-109"/>
			<point x="131" y="-135"/>
			<point name="n15" x="78" y="-135" type="curve" smooth="yes"/>
			<point x="56" y="-135"/>
			<point x="40" y="-129"/>
			<point x="30" y="-118" type="curve"/>
			<point x="-25" y="-184" type="line"/>
			<point x="-10" y="-195"/>
			<point x="15" y="-200"/>
			<point name="n22" x="48" y="-200" type="curve" smooth="yes"/>
			<point x="159" y="-200"/>
			<point x="221" y="-150"/>
			<point x="249" y="-30" type="curve" smooth="yes"/>
			<point x="261" y="22"/>
			<point x="275" y="133"/>
			<point x="290" y="302" type="curve" smooth="yes"/>
			<point x="302" y="441"/>
			<point x="312" y="529"/>
			<point x="321" y="567" type="curve" smooth="yes"/>
			<point x="337" y="638"/>
			<point x="361" y="668"/>
			<point name="n34" x="409" y="668" type="curve" smooth="yes"/>
			<point x="427" y="668"/>
			<point x="442" y="664"/>
			<point x="454" y="656" type="curve"/>
		</contour>
	</outline>
</glyph>
<glyph name="uni0284" format="2">
  <advance width="686"/>
  <unicode hex="0284"/>
  <outline>
    <contour>
      <point x="95" y="298" type="line"/>
      <point x="73" y="202" type="line"/>
      <point x="363" y="202" type="line"/>
      <point x="385" y="298" type="line"/>
    </contour>
    <contour>
      <point x="289" y="218" type="line"/>
      <point x="354" y="500" type="line" smooth="yes"/>
      <point x="359" y="521"/>
      <point x="375" y="527"/>
      <point x="392" y="527" type="curve" smooth="yes"/>
      <point x="416" y="527"/>
      <point x="438" y="514"/>
      <point x="446" y="500" type="curve"/>
      <point x="533" y="568" type="line"/>
      <point x="513" y="594"/>
      <point x="465" y="636"/>
      <point x="398" y="636" type="curve" smooth="yes"/>
      <point x="306" y="636"/>
      <point x="242" y="594"/>
      <point x="220" y="500" type="curve" smooth="yes"/>
      <point x="155" y="218" type="line"/>
    </contour>
    <contour>
      <point x="155" y="218" type="line"/>
      <point x="90" y="-64" type="line" smooth="yes"/>
      <point x="85" y="-85"/>
      <point x="69" y="-91"/>
      <point x="52" y="-91" type="curve" smooth="yes"/>
      <point x="28" y="-91"/>
      <point x="6" y="-78"/>
      <point x="-2" y="-64" type="curve"/>
      <point x="-89" y="-132" type="line"/>
      <point x="-69" y="-158"/>
      <point x="-21" y="-200"/>
      <point x="46" y="-200" type="curve" smooth="yes"/>
      <point x="138" y="-200"/>
      <point x="202" y="-158"/>
      <point x="224" y="-64" type="curve" smooth="yes"/>
      <point x="289" y="218" type="line"/>
    </contour>
  </outline>
  <guideline angle="0" x="0" y="218"/>
</glyph>
<glyph name="uni0287" format="2">
	<unicode hex="0287"/>
	<advance width="370"/>
	<outline>
		<contour>
			<point x="258" y="469" type="curve" smooth="yes"/>
			<point x="188" y="164" type="line"/>
			<point name="n02" x="78" y="164" type="line"/>
			<point name="n03" x="63" y="100" type="line"/>
			<point x="173" y="100" type="line"/>
			<point x="142" y="-36" type="line"/>
			<point x="240" y="0" type="line"/>
			<point x="263" y="100" type="line"/>
			<point x="353" y="100" type="line"/>
			<point name="n09" x="368" y="164" type="line"/>
			<point x="278" y="164" type="line"/>
			<point x="348" y="469" type="line" smooth="yes"/>
			<point x="370" y="565"/>
			<point x="355" y="614"/>
			<point name="n14" x="269" y="614" type="curve" smooth="yes"/>
			<point x="235" y="614"/>
			<point x="205" y="610"/>
			<point x="179" y="602" type="curve"/>
			<point x="164" y="538" type="line"/>
			<point x="182" y="543"/>
			<point x="203" y="547"/>
			<point name="n21" x="227" y="547" type="curve" smooth="yes"/>
			<point x="266" y="547"/>
			<point x="269" y="515"/>
		</contour>
	</outline>
</glyph>
<glyph name="uni0288" format="2">
  <advance width="370"/>
  <unicode hex="0288"/>
  <outline>
    <contour>
      <point x="259" y="-29" type="curve" smooth="yes"/>
      <point x="361" y="415" type="line"/>
      <point x="480" y="415" type="line"/>
      <point x="499" y="500" type="line"/>
      <point x="380" y="500" type="line"/>
      <point x="414" y="647" type="line"/>
      <point x="265" y="589" type="line"/>
      <point x="245" y="500" type="line"/>
      <point x="145" y="500" type="line"/>
      <point x="126" y="415" type="line"/>
      <point x="226" y="415" type="line"/>
      <point x="115" y="-67" type="line"/>
      <point x="113" y="-77"/>
      <point x="112" y="-87"/>
      <point x="112" y="-96" type="curve" smooth="yes"/>
      <point x="112" y="-161"/>
      <point x="169" y="-200"/>
      <point x="250" y="-200" type="curve" smooth="yes"/>
      <point x="282" y="-200"/>
      <point x="317" y="-194"/>
      <point x="351" y="-183" type="curve"/>
      <point x="371" y="-98" type="line"/>
      <point x="355" y="-104"/>
      <point x="337" y="-107"/>
      <point x="321" y="-107" type="curve" smooth="yes"/>
      <point x="279" y="-107"/>
      <point x="256" y="-88"/>
      <point x="256" y="-53" type="curve" smooth="yes"/>
      <point x="256" y="-46"/>
      <point x="257" y="-38"/>
    </contour>
  </outline>
  <guideline angle="77" x="130" y="-2"/>
  <guideline angle="77" x="221" y="0"/>
</glyph>
<glyph name="uni0289" format="2">
  <advance width="627"/>
  <unicode hex="0289"/>
  <outline>
    <component base="u"/>
    <contour>
      <point x="635" y="228" type="line"/>
      <point x="654" y="309" type="line"/>
      <point x="94" y="309" type="line"/>
      <point x="75" y="228" type="line"/>
    </contour>
  </outline>
</glyph>
